<svg width="21" height="21" viewBox="0 0 21 21" fill="none" xmlns="http://www.w3.org/2000/svg">
<path d="M16.2528 9.73828H4.5861C3.66563 9.73828 2.91943 10.4845 2.91943 11.4049V17.2383C2.91943 18.1588 3.66563 18.9049 4.5861 18.9049H16.2528C17.1732 18.9049 17.9194 18.1588 17.9194 17.2383V11.4049C17.9194 10.4845 17.1732 9.73828 16.2528 9.73828Z" stroke="#919EAB" stroke-linecap="round" stroke-linejoin="round"/>
<path d="M6.25293 9.73828V6.40495C6.25293 5.29988 6.69192 4.24007 7.47332 3.45867C8.25472 2.67727 9.31453 2.23828 10.4196 2.23828C11.5247 2.23828 12.5845 2.67727 13.3659 3.45867C14.1473 4.24007 14.5863 5.29988 14.5863 6.40495V9.73828" stroke="#919EAB" stroke-linecap="round" stroke-linejoin="round"/>
</svg>
