<svg width="88" height="82" viewBox="0 0 88 82" fill="none" xmlns="http://www.w3.org/2000/svg">
<path fill-rule="evenodd" clip-rule="evenodd" d="M68.3103 20.2461C76.3719 27.9031 86.0843 35.013 87.3712 46.0567C88.7687 58.0499 85.0853 71.8597 75.119 78.676C65.7727 85.0681 53.8155 77.1509 42.4997 76.7456C31.9841 76.369 20.384 82.9542 12.136 76.4204C3.58028 69.643 3.08773 56.9509 3.75874 46.0567C4.3842 35.9019 8.81592 26.7448 15.6593 19.2163C22.9164 11.2328 31.7129 3.22657 42.4997 3.43754C53.171 3.64626 60.5714 12.8957 68.3103 20.2461Z" fill="#C4CDD5"/>
<mask id="mask0_566_197" style="mask-type:alpha" maskUnits="userSpaceOnUse" x="0" y="0" width="81" height="80">
<circle cx="40.6665" cy="40" r="40" fill="#FC4F4E"/>
</mask>
<g mask="url(#mask0_566_197)">
<rect x="31.3333" y="59" width="18.6667" height="27" fill="white" stroke="#323232" stroke-width="1.33333"/>
<g style="mix-blend-mode:multiply">
<path d="M32 59H49.3333V75.3333C41.7204 74.761 37.7784 73.856 32 70V59Z" fill="#22268B" fill-opacity="0.2"/>
</g>
</g>
<rect x="15" y="47" width="8" height="8" rx="4" fill="white" stroke="#323232" stroke-width="1.33333"/>
<rect x="58" y="47" width="8" height="8" rx="4" fill="white" stroke="#323232" stroke-width="1.33333"/>
<path fill-rule="evenodd" clip-rule="evenodd" d="M61.9665 40.2186C61.9887 39.9257 61.9999 39.6306 61.9999 39.3337C61.9999 30.6812 52.4487 23.667 40.6666 23.667C28.8845 23.667 19.3333 30.6812 19.3333 39.3337C19.3333 39.6306 19.3445 39.9257 19.3667 40.2185C19.3446 40.4761 19.3333 40.7367 19.3333 41V57C19.3333 61.9706 23.3649 66 28.3355 66H52.9977C57.9682 66 61.9999 61.9706 61.9999 57V41C61.9999 40.7367 61.9886 40.4761 61.9665 40.2186Z" fill="white"/>
<path d="M61.9665 40.2186L61.3017 40.1682L61.2976 40.222L61.3022 40.2757L61.9665 40.2186ZM19.3667 40.2185L20.0309 40.2757L20.0355 40.2219L20.0315 40.1681L19.3667 40.2185ZM61.3333 39.3337C61.3333 39.6138 61.3226 39.892 61.3017 40.1682L62.6312 40.269C62.6547 39.9594 62.6666 39.6475 62.6666 39.3337H61.3333ZM40.6666 24.3337C46.4306 24.3337 51.6222 26.0503 55.3569 28.793C59.092 31.5359 61.3333 35.2704 61.3333 39.3337H62.6666C62.6666 34.7444 60.1322 30.6456 56.1461 27.7183C52.1597 24.7908 46.6847 23.0003 40.6666 23.0003V24.3337ZM19.9999 39.3337C19.9999 35.2704 22.2412 31.5359 25.9762 28.793C29.711 26.0503 34.9026 24.3337 40.6666 24.3337V23.0003C34.6485 23.0003 29.1735 24.7908 25.187 27.7183C21.201 30.6456 18.6666 34.7444 18.6666 39.3337H19.9999ZM20.0315 40.1681C20.0105 39.892 19.9999 39.6138 19.9999 39.3337H18.6666C18.6666 39.6475 18.6785 39.9593 18.7019 40.2689L20.0315 40.1681ZM19.9999 41C19.9999 40.7558 20.0104 40.5142 20.0309 40.2757L18.7025 40.1614C18.6787 40.4379 18.6666 40.7176 18.6666 41H19.9999ZM19.9999 57V41H18.6666V57H19.9999ZM28.3355 65.3333C23.7329 65.3333 19.9999 61.6022 19.9999 57H18.6666C18.6666 62.339 22.997 66.6667 28.3355 66.6667V65.3333ZM52.9977 65.3333H28.3355V66.6667H52.9977V65.3333ZM61.3332 57C61.3332 61.6022 57.6003 65.3333 52.9977 65.3333V66.6667C58.3362 66.6667 62.6666 62.339 62.6666 57H61.3332ZM61.3332 41V57H62.6666V41H61.3332ZM61.3022 40.2757C61.3228 40.5143 61.3332 40.7558 61.3332 41H62.6666C62.6666 40.7176 62.6545 40.438 62.6307 40.1615L61.3022 40.2757Z" fill="#323232"/>
<circle cx="26.9998" cy="58.333" r="4" fill="url(#paint0_radial_566_197)"/>
<circle cx="54.6665" cy="58.333" r="4" fill="url(#paint1_radial_566_197)"/>
<circle cx="30.9998" cy="51.333" r="2" fill="#323232"/>
<circle cx="50.6665" cy="51.333" r="2" fill="#323232"/>
<circle cx="41.3332" cy="19.3337" r="2.66667" fill="#323232"/>
<circle cx="31.3332" cy="20.9997" r="2.66667" fill="#323232"/>
<circle cx="36.9998" cy="23.6663" r="5.33333" fill="#323232"/>
<circle cx="53.333" cy="25.667" r="4" fill="#323232"/>
<circle cx="28.6665" cy="25.667" r="4" fill="#323232"/>
<circle cx="45.9998" cy="23.6663" r="5.33333" fill="#323232"/>
<defs>
<radialGradient id="paint0_radial_566_197" cx="0" cy="0" r="1" gradientUnits="userSpaceOnUse" gradientTransform="translate(26.9998 58.333) rotate(90) scale(4)">
<stop stop-color="#FD6F00" stop-opacity="0.4"/>
<stop offset="1" stop-color="#FD6F00" stop-opacity="0"/>
</radialGradient>
<radialGradient id="paint1_radial_566_197" cx="0" cy="0" r="1" gradientUnits="userSpaceOnUse" gradientTransform="translate(54.6665 58.333) rotate(90) scale(4)">
<stop stop-color="#FD6F00" stop-opacity="0.4"/>
<stop offset="1" stop-color="#FD6F00" stop-opacity="0"/>
</radialGradient>
</defs>
</svg>
