<svg width="347" height="347" viewBox="0 0 347 347" fill="none" xmlns="http://www.w3.org/2000/svg">
<g clip-path="url(#clip0_2770_4444)">
<path fill-rule="evenodd" clip-rule="evenodd" d="M1.38552 15.7869C4.10738 8.21516 10.5409 2.67247 17.8652 1.58372C19.3498 1.38577 89.8215 1.2373 174.447 1.2373L328.356 1.28679L331.127 2.37554C336.521 4.50353 340.431 7.91823 342.905 12.6691C343.109 13.0638 343.295 13.3692 343.465 13.6831C345.407 17.2669 345.285 21.9688 345.33 173.309C345.33 260.656 345.132 327.614 344.885 328.95C343.796 334.79 339.441 340.877 334.542 343.401C333.964 343.702 333.59 343.97 333.198 344.208C329.79 346.273 325.015 346.083 173.952 346.172C51.7153 346.221 18.9539 346.122 16.8259 345.628C9.6006 343.994 4.00839 338.897 1.38552 331.622C0.395752 328.851 0.395752 328.009 0.395752 173.705C0.395752 19.3501 0.395752 18.5583 1.38552 15.7869ZM64.1675 217.75H41.7236C43.6811 251.154 69.1259 271.771 108.011 271.771C147.418 271.771 172.863 250.241 172.863 216.445C172.863 188.129 157.466 172.209 120.93 163.206L104.488 159.03C79.9564 152.897 69.5175 143.502 69.5175 127.191C69.5175 108.01 84.0014 96.5269 108.142 96.5269C130.324 96.5269 144.678 108.01 147.027 127.452H169.471C167.905 96.1353 143.504 75.6489 108.011 75.6489C70.4309 75.6489 46.2908 96.3966 46.2908 128.496C46.2908 155.768 62.0797 172.34 97.0504 181.213L113.23 185.258C138.676 191.522 149.636 201.308 149.636 217.619C149.636 237.844 133.195 250.893 108.142 250.893C83.088 250.893 66.5162 238.367 64.1675 217.75Z" fill="black"/>
</g>
<defs>
<clipPath id="clip0_2770_4444">
<rect width="346.667" height="346.667" fill="white"/>
</clipPath>
</defs>
</svg>
