<?xml version="1.0" standalone="no"?>
<!DOCTYPE svg PUBLIC "-//W3C//DTD SVG 20010904//EN"
 "http://www.w3.org/TR/2001/REC-SVG-20010904/DTD/svg10.dtd">
<svg version="1.0" xmlns="http://www.w3.org/2000/svg"
 width="700.000000pt" height="700.000000pt" viewBox="0 0 700.000000 700.000000"
 preserveAspectRatio="xMidYMid meet">
<metadata>
Created by potrace 1.14, written by Peter Selinger 2001-2017
</metadata>
<g transform="translate(0.000000,700.000000) scale(0.100000,-0.100000)"
fill="#000000" stroke="none">
<path d="M361 6968 c-148 -22 -278 -134 -333 -287 -20 -56 -20 -72 -20 -3191
0 -3118 0 -3135 20 -3191 53 -147 166 -250 312 -283 43 -10 705 -12 3175 -11
3404 2 3132 -3 3245 56 99 51 187 174 209 292 5 27 9 1380 9 3145 -1 3326 2
3147 -49 3246 -50 96 -129 165 -238 208 l-56 22 -3110 1 c-1710 0 -3134 -3
-3164 -7z"/>
</g>
</svg>
