<?xml version="1.0" standalone="no"?>
<!DOCTYPE svg PUBLIC "-//W3C//DTD SVG 20010904//EN"
 "http://www.w3.org/TR/2001/REC-SVG-20010904/DTD/svg10.dtd">
<svg version="1.0" xmlns="http://www.w3.org/2000/svg"
 width="260.000000pt" height="260.000000pt" viewBox="0 0 934 934" fill="none" xmlns="http://www.w3.org/2000/svg">
<path d="M48.1331 4.26667C28.3997 7.2 11.0664 22.1333 3.73307 42.5333C1.06641 50 1.06641 52.1333 1.06641 468C1.06641 883.733 1.06641 886 3.73307 893.467C10.7997 913.067 25.8664 926.8 45.3331 931.2C51.0664 932.533 139.333 932.8 468.666 932.667C922.533 932.4 886.266 933.067 901.333 925.2C914.533 918.4 926.266 902 929.2 886.267C929.866 882.667 930.4 702.267 930.4 466.933C930.266 23.4666 930.666 47.3333 923.866 34.1333C917.2 21.3333 906.666 12.1333 892.133 6.4L884.666 3.46667L470 3.33334C242 3.33334 52.1331 3.73334 48.1331 4.26667Z" fill="black"/>
<path d="M599.007 769.832H540.647L787.796 166.199H846.507L599.007 769.832Z" fill="#454F5B"/>
<path d="M112.413 586.668H172.882C179.21 642.215 223.858 675.965 291.359 675.965C358.859 675.965 403.155 640.808 403.155 586.316C403.155 542.371 373.624 516.004 305.069 499.129L261.476 488.23C167.257 464.324 124.718 419.676 124.718 346.199C124.718 259.715 189.757 203.816 291.007 203.816C386.632 203.816 452.374 259.011 456.593 343.386H396.124C389.796 291.004 351.124 260.066 291.359 260.066C226.319 260.066 187.296 291.004 187.296 342.683C187.296 386.629 215.421 411.941 281.515 428.465L325.812 439.715C424.249 463.972 465.734 506.863 465.734 583.152C465.734 674.207 397.179 732.215 291.007 732.215C186.241 732.215 117.687 676.668 112.413 586.668Z" fill="white"/>
</svg>
