<?xml version="1.0" encoding="utf-8"?>
<!-- Generator: Adobe Illustrator 16.0.0, SVG Export Plug-In . SVG Version: 6.00 Build 0)  -->
<!DOCTYPE svg PUBLIC "-//W3C//DTD SVG 1.1//EN" "http://www.w3.org/Graphics/SVG/1.1/DTD/svg11.dtd">
<svg version="1.1" id="Layer_1" xmlns="http://www.w3.org/2000/svg" xmlns:xlink="http://www.w3.org/1999/xlink" x="0px" y="0px"
	 width="1024px" height="768px" viewBox="0 0 1024 768" enable-background="new 0 0 1024 768" xml:space="preserve">
<rect x="-10" y="-10" opacity="0.3" fill="#D8DCE3" width="1049" height="790"/>
<path fill="#FFFFFF" d="M345,568c0,6.627-5.373,12-12,12H57c-6.627,0-12-5.373-12-12V142c0-6.627,5.373-12,12-12h276
	c6.627,0,12,5.373,12,12V568z"/>
<circle opacity="0.3" fill="#D8DCE3" cx="195" cy="284.975" r="75"/>
<path fill="#FFFFFF" d="M665,568c0,6.627-5.373,12-12,12H377c-6.627,0-12-5.373-12-12V142c0-6.627,5.373-12,12-12h276
	c6.627,0,12,5.373,12,12V568z"/>
<path fill="#FFFFFF" d="M985,568c0,6.627-5.373,12-12,12H697c-6.627,0-12-5.373-12-12V142c0-6.627,5.373-12,12-12h276
	c6.627,0,12,5.373,12,12V568z"/>
<path opacity="0.8" fill="#FACFC9" d="M162.469,269.265c0-5.64,16.528-10.212,36.834-10.212c20.304,0,36.833,4.572,36.833,10.212
	l-6.401,49.021c0,5.641-10.128,10.213-30.432,10.213c-20.306,0-30.397-4.572-30.397-10.213L162.469,269.265z"/>
<g>
	<g>
		<path fill="#A1B2C2" d="M158.153,260.464c0-5.64,16.528-10.212,36.834-10.212c20.304,0,36.833,4.572,36.833,10.212l-6.401,49.021
			c0,5.641-10.128,10.213-30.432,10.213c-20.306,0-30.397-4.572-30.397-10.213L158.153,260.464z M167.589,307.659
			c0,5.197,8.906,9.412,27.619,9.412s27.759-4.215,27.759-9.412l6.403-45.37c0-5.198-15.449-9.411-34.162-9.411
			s-34.161,4.213-34.161,9.411L167.589,307.659z"/>
		<path fill="#A1B2C2" d="M196.922,270.46c-0.041,0-0.073,0.02-0.114,0.023c-14.91-0.25-27.306-3.175-30.895-7.07l-0.029,0.024
			c-0.22-0.2-0.506-0.33-0.826-0.33c-0.681,0-1.231,0.552-1.231,1.231c0,0.354,0.153,0.668,0.392,0.893
			c2.845,4.313,16.326,7.605,32.574,7.718l0.001-0.051c0.046,0.005,0.083,0.026,0.129,0.026c0.68,0,1.23-0.553,1.23-1.232
			C198.152,271.012,197.602,270.46,196.922,270.46z"/>
		<path fill="#A1B2C2" d="M193.184,270.46c0.041,0,0.073,0.02,0.114,0.023c14.909-0.25,27.305-3.175,30.894-7.07l0.03,0.024
			c0.219-0.2,0.506-0.33,0.825-0.33c0.683,0,1.231,0.552,1.231,1.231c0,0.354-0.153,0.668-0.391,0.893
			c-2.845,4.313-16.327,7.605-32.574,7.718l-0.002-0.051c-0.045,0.005-0.082,0.026-0.128,0.026c-0.68,0-1.23-0.553-1.23-1.232
			C191.953,271.012,192.504,270.46,193.184,270.46z"/>
	</g>
	<g>
		<path fill="#A1B2C2" d="M230.101,265.152l-0.48,3.668c3.471,3.772,5.469,8.198,5.469,12.931c0,6.269-3.512,11.993-9.295,16.379
			c-0.894,0.677-1.836,1.322-2.832,1.932c-6.769,4.143-15.833,6.681-25.801,6.681c-14.567,0-27.209-5.415-33.562-13.353
			c-2.783-3.477-4.365-7.436-4.365-11.639c0-2.53,0.576-4.973,1.638-7.275l-0.661-4.588c-0.871,1.314-1.6,2.687-2.174,4.107
			c-0.993,2.455-1.534,5.055-1.534,7.757c0,4.555,1.513,8.819,4.205,12.585c1.038,1.451,2.249,2.829,3.621,4.118
			c7.339,6.889,19.2,11.286,32.833,11.286c9.634,0,18.376-2.201,25.271-5.919c0.984-0.531,1.932-1.093,2.837-1.685
			c7.767-5.067,12.551-12.27,12.551-20.386C237.82,275.487,234.97,269.769,230.101,265.152z"/>
	</g>
</g>
<rect x="45" y="397.905" fill="none" width="300" height="149.999"/>
<text transform="matrix(1 0 0 1 141.3608 412.7451)"><tspan x="0" y="0" fill="#446586" font-family="'LibreFranklin-Bold'" font-size="20">SANDBOX</tspan><tspan x="-43.337" y="56" fill="#666666" font-family="'LibreFranklin-Light'" font-size="12">Try experiments to see if cloud.gov </tspan><tspan x="-2.664" y="76" fill="#666666" font-family="'LibreFranklin-Light'" font-size="12">works for you today!</tspan></text>
<circle opacity="0.3" fill="#D8DCE3" cx="514" cy="284.975" r="75"/>
<rect x="364" y="397.905" fill="none" width="300" height="149.999"/>
<text transform="matrix(1 0 0 1 434.771 412.7451)"><tspan x="0" y="0" fill="#446586" font-family="'LibreFranklin-Bold'" font-size="20">PROTOTYPING</tspan><tspan x="-20.394" y="56" fill="#666666" font-family="'LibreFranklin-Light'" font-size="12">Provide self-service workspaces for </tspan><tspan x="-3.576" y="76" fill="#666666" font-family="'LibreFranklin-Light'" font-size="12">everyone in your organization.</tspan></text>
<circle opacity="0.3" fill="#D8DCE3" cx="833" cy="284.975" r="75"/>
<rect x="683" y="397.905" fill="none" width="300" height="149.999"/>
<text transform="matrix(1 0 0 1 760.9316 412.7451)"><tspan x="0" y="0" fill="#446586" font-family="'LibreFranklin-Bold'" font-size="20">PRODUCTION</tspan><tspan x="4.029" y="56" fill="#666666" font-family="'LibreFranklin-Light'" font-size="12">Go to production with an  </tspan><tspan x="3.01" y="76" fill="#666666" font-family="'LibreFranklin-Light'" font-size="12">accelerated path to ATO.</tspan></text>
<polygon opacity="0.8" fill="#FACFC9" points="839.381,336.246 802.423,314.629 802.182,271.813 838.902,250.613 875.86,272.23 
	876.102,315.045 "/>
<g>
	<path fill="#A1B2C2" d="M833.501,328.391l-36.959-21.616l-0.241-42.816l36.721-21.2l36.959,21.617l0.241,42.815L833.501,328.391z
		 M867.716,305.866l-0.348-39.982l-34.452-20.293l-34.109,19.693l0.347,39.983l34.453,20.292L867.716,305.866z"/>
	<polygon fill="#A1B2C2" points="799.153,263.159 833.606,283.451 867.716,263.757 870.222,265.082 833.501,286.283 
		796.542,264.666 	"/>
	<g>
		<path fill="#A1B2C2" d="M834.722,254.891v9.587h9.221v2.448h-9.221v9.668h-2.61v-9.668h-9.221v-2.448h9.221v-9.587H834.722z"/>
	</g>
</g>
<g opacity="0.8">
	<path opacity="0.8" fill="#FACFC9" d="M508.5,339.822c-7.031,0-12.75-5.72-12.75-12.75v-78h25.5v78
		C521.25,334.102,515.531,339.822,508.5,339.822z"/>
	<path opacity="0.8" fill="#FACFC9" d="M538.5,339.822c-7.031,0-12.75-5.72-12.75-12.75v-55.5h25.5v55.5
		C551.25,334.102,545.531,339.822,538.5,339.822z"/>
</g>
<g>
	<path fill="#A1B2C2" d="M502.5,332.822c-7.031,0-12.75-5.72-12.75-12.75v-78h25.5v78C515.25,327.102,509.531,332.822,502.5,332.822
		z M492.75,245.072v75c0,5.385,4.365,9.75,9.75,9.75s9.75-4.365,9.75-9.75v-75H492.75z"/>
	<path fill="#A1B2C2" d="M532.5,332.822c-7.031,0-12.75-5.72-12.75-12.75v-55.5h25.5v55.5
		C545.25,327.102,539.531,332.822,532.5,332.822z M522.75,267.572v52.5c0,5.385,4.365,9.75,9.75,9.75s9.75-4.365,9.75-9.75v-52.5
		H522.75z"/>
</g>
</svg>
