<?xml version="1.0" encoding="utf-8"?>
<!-- Generator: Adobe Illustrator 16.0.0, SVG Export Plug-In . SVG Version: 6.00 Build 0)  -->
<!DOCTYPE svg PUBLIC "-//W3C//DTD SVG 1.1//EN" "http://www.w3.org/Graphics/SVG/1.1/DTD/svg11.dtd">
<svg version="1.1" xmlns="http://www.w3.org/2000/svg" xmlns:xlink="http://www.w3.org/1999/xlink" x="0px" y="0px" width="1024px"
	 height="768px" viewBox="0 0 1024 768" enable-background="new 0 0 1024 768" xml:space="preserve">
<g id="Layer_2">
	<rect x="-30" y="-16" opacity="0.6" fill="#BBDDEE" width="1129" height="825"/>
</g>
<g id="Layer_1">
	<g>
		<g>
			<path fill="none" stroke="#446586" stroke-width="4" stroke-linecap="round" stroke-linejoin="round" d="M471.662,524.907
				c-2.011-0.085-4.007-0.23-5.986-0.434"/>
			
				<path fill="none" stroke="#446586" stroke-width="4" stroke-linecap="round" stroke-linejoin="round" stroke-dasharray="12.7953,12.7953" d="
				M453.061,522.356c-40.271-9.452-71.162-43.244-76.306-85.006"/>
			<path fill="none" stroke="#446586" stroke-width="4" stroke-linecap="round" stroke-linejoin="round" d="M376.177,430.999
				C376.06,429.015,376,427.015,376,425"/>
			<g>
				<polygon fill="#446586" points="459.651,507.398 456.716,510.12 470.143,524.566 454.752,536.904 457.259,540.025 476,524.996 
									"/>
			</g>
		</g>
	</g>
	<g opacity="0.5">
		<path fill="#FFFFFF" d="M936.83,215c43.172,0,78.17,34.828,78.17,78s-34.998,78-78.17,78H478.229
			c-43.173,0-78.171-34.828-78.171-78s34.998-78,78.171-78H936.83z"/>
		<path fill="#FFFFFF" d="M702.318,138c43.172,0,78.17,34.828,78.17,78c0,43.172-34.998,78-78.17,78H243.718
			c-43.173,0-78.171-34.828-78.171-78c0-43.172,34.998-78,78.171-78H702.318z"/>
		<path fill="#FFFFFF" d="M553.273,294c43.172,0,78.17,35.328,78.17,78.5c0,43.173-34.998,78.5-78.17,78.5H94.673
			c-43.173,0-78.171-35.327-78.171-78.5c0-43.172,34.998-78.5,78.171-78.5H553.273z"/>
	</g>
	<g>
		
			<line fill="none" stroke="#446586" stroke-width="4" stroke-linecap="round" stroke-linejoin="round" stroke-miterlimit="10" x1="113" y1="353" x2="113" y2="378"/>
		
			<rect x="88" y="319" fill="none" stroke="#446586" stroke-width="4" stroke-linecap="round" stroke-linejoin="round" stroke-miterlimit="10" width="50" height="33"/>
		
			<rect x="88" y="378" fill="none" stroke="#446586" stroke-width="4" stroke-linecap="round" stroke-linejoin="round" stroke-miterlimit="10" width="50" height="33"/>
		
			<rect x="151" y="378" fill="none" stroke="#446586" stroke-width="4" stroke-linecap="round" stroke-linejoin="round" stroke-miterlimit="10" width="50" height="33"/>
		
			<rect x="213" y="378" fill="none" stroke="#446586" stroke-width="4" stroke-linecap="round" stroke-linejoin="round" stroke-miterlimit="10" width="51" height="33"/>
		
			<polyline fill="none" stroke="#446586" stroke-width="4" stroke-linecap="round" stroke-linejoin="round" stroke-miterlimit="10" points="
			113,365 236,365 236,377 		"/>
	</g>
	<g>
		<g>
			
				<polygon fill="none" stroke="#446586" stroke-width="4" stroke-linecap="round" stroke-linejoin="round" stroke-miterlimit="10" points="
				646,512.646 673,496.965 700,512.646 700,544.01 673,559.693 646,544.01 			"/>
			
				<polyline fill="none" stroke="#446586" stroke-width="4" stroke-linecap="round" stroke-linejoin="round" stroke-miterlimit="10" points="
				701.043,514.529 673.755,530.212 646.469,514.529 			"/>
		</g>
		<g>
			
				<polygon fill="none" stroke="#446586" stroke-width="4" stroke-linecap="round" stroke-linejoin="round" stroke-miterlimit="10" points="
				701,510.819 728,495.138 755,510.819 755,542.183 728,557.866 701,542.183 			"/>
			
				<polyline fill="none" stroke="#446586" stroke-width="4" stroke-linecap="round" stroke-linejoin="round" stroke-miterlimit="10" points="
				755.75,512.701 728.462,528.385 701.176,512.701 			"/>
		</g>
		<g>
			
				<polygon fill="none" stroke="#446586" stroke-width="4" stroke-linecap="round" stroke-linejoin="round" stroke-miterlimit="10" points="
				673,464.221 700,448.539 727,464.221 727,495.584 700,511.268 673,495.584 			"/>
			
				<polyline fill="none" stroke="#446586" stroke-width="4" stroke-linecap="round" stroke-linejoin="round" stroke-miterlimit="10" points="
				727.426,466.104 700.138,481.786 672.852,466.104 			"/>
		</g>
	</g>
	<path fill="#FFFFFF" d="M773.104,293c0.007,0,0.027-0.562,0.027-0.93c0-32.709-26.517-59.141-59.226-59.141
		c-8.029,0-15.681,1.647-22.662,4.542c0.338-3.826,0.521-7.675,0.521-11.589c0-71.957-58.333-130.279-130.29-130.279
		c-65.507,0-119.715,48.351-128.908,111.308c-13.17-5.566-27.649-8.81-42.847-8.81c-55.717,0-101.765,41.9-109.121,94.9H773.104z"/>
	<g>
		
			<polygon fill="#FFFFFF" stroke="#446586" stroke-width="4" stroke-linecap="round" stroke-linejoin="round" stroke-miterlimit="10" points="
			489,190 489,226 452,226 452,348 575,348 575,190 		"/>
		
			<polygon fill="#FFFFFF" stroke="#446586" stroke-width="4" stroke-linecap="round" stroke-linejoin="round" stroke-miterlimit="10" points="
			452.229,226 489,226 489,189.499 		"/>
	</g>
	<g>
		
			<path fill="#FFFFFF" stroke="#446586" stroke-width="4" stroke-linecap="round" stroke-linejoin="round" stroke-miterlimit="10" d="
			M610,395.434c0,3.074-2.492,5.566-5.565,5.566H494.565c-3.074,0-5.565-2.492-5.565-5.566V253.566c0-3.074,2.492-5.566,5.565-5.566
			h109.869c3.073,0,5.565,2.492,5.565,5.566V395.434z"/>
		
			<rect x="510" y="364" fill="none" stroke="#446586" stroke-width="4" stroke-linecap="round" stroke-linejoin="round" stroke-miterlimit="10" width="51" height="18"/>
		
			<rect x="575" y="364" fill="none" stroke="#446586" stroke-width="4" stroke-linecap="round" stroke-linejoin="round" stroke-miterlimit="10" width="18" height="18"/>
		
			<rect x="510" y="331" fill="none" stroke="#446586" stroke-width="4" stroke-linecap="round" stroke-linejoin="round" stroke-miterlimit="10" width="18" height="19"/>
		
			<rect x="542" y="331" fill="none" stroke="#446586" stroke-width="4" stroke-linecap="round" stroke-linejoin="round" stroke-miterlimit="10" width="19" height="19"/>
		
			<rect x="575" y="331" fill="none" stroke="#446586" stroke-width="4" stroke-linecap="round" stroke-linejoin="round" stroke-miterlimit="10" width="18" height="19"/>
		
			<rect x="510" y="299" fill="none" stroke="#446586" stroke-width="4" stroke-linecap="round" stroke-linejoin="round" stroke-miterlimit="10" width="18" height="19"/>
		
			<rect x="542" y="299" fill="none" stroke="#446586" stroke-width="4" stroke-linecap="round" stroke-linejoin="round" stroke-miterlimit="10" width="19" height="19"/>
		
			<rect x="575" y="299" fill="none" stroke="#446586" stroke-width="4" stroke-linecap="round" stroke-linejoin="round" stroke-miterlimit="10" width="18" height="19"/>
		
			<rect x="510" y="266" fill="#A1B2C2" stroke="#446586" stroke-width="4" stroke-linecap="round" stroke-linejoin="round" stroke-miterlimit="10" width="83" height="19"/>
	</g>
	
		<line fill="none" stroke="#446586" stroke-width="4" stroke-linecap="round" stroke-linejoin="round" stroke-miterlimit="10" x1="362" y1="294" x2="250" y2="294"/>
	
		<line fill="none" stroke="#446586" stroke-width="4" stroke-linecap="round" stroke-linejoin="round" stroke-miterlimit="10" x1="302" y1="477" x2="201" y2="477"/>
	
		<line fill="none" stroke="#446586" stroke-width="4" stroke-linecap="round" stroke-linejoin="round" stroke-miterlimit="10" x1="274" y1="492" x2="201" y2="492"/>
	
		<line fill="none" stroke="#446586" stroke-width="4" stroke-linecap="round" stroke-linejoin="round" stroke-miterlimit="10" x1="860" y1="294" x2="712" y2="294"/>
	
		<line fill="none" stroke="#446586" stroke-width="4" stroke-linecap="round" stroke-linejoin="round" stroke-miterlimit="10" x1="686" y1="294" x2="653" y2="294"/>
	
		<line fill="none" stroke="#446586" stroke-width="4" stroke-linecap="round" stroke-linejoin="round" stroke-miterlimit="10" x1="350" y1="311" x2="317" y2="311"/>
	<g>
		
			<circle fill="none" stroke="#446586" stroke-width="4" stroke-linecap="round" stroke-linejoin="round" stroke-miterlimit="10" cx="317.38" cy="178.359" r="63.751"/>
		<path fill="none" stroke="#446586" stroke-width="4" stroke-linecap="round" stroke-linejoin="round" stroke-miterlimit="10" d="
			M269.566,178.359c0-26.407,21.407-47.813,47.813-47.813c26.406,0,47.813,21.407,47.813,47.813"/>
		
			<circle fill="none" stroke="#446586" stroke-width="4" stroke-linecap="round" stroke-linejoin="round" stroke-miterlimit="10" cx="317.38" cy="178.359" r="63.751"/>
		
			<circle fill="none" stroke="#446586" stroke-width="4" stroke-linecap="round" stroke-linejoin="round" stroke-miterlimit="10" cx="316.523" cy="178.117" r="5.1"/>
		
			<line fill="none" stroke="#446586" stroke-width="4" stroke-linecap="round" stroke-linejoin="round" stroke-miterlimit="10" x1="311.61" y1="172.682" x2="299.59" y2="160.661"/>
	</g>
	<path fill="none" stroke="#446586" stroke-width="4" stroke-linecap="round" stroke-linejoin="round" stroke-miterlimit="10" d="
		M186,492c0,3.313-2.687,6-6,6h-18c-3.313,0-6-2.687-6-6v-18c0-3.313,2.687-6,6-6h18c3.313,0,6,2.687,6,6V492z"/>
	
		<line fill="none" stroke="#446586" stroke-width="4" stroke-linecap="round" stroke-linejoin="round" stroke-miterlimit="10" x1="302" y1="527" x2="201" y2="527"/>
	
		<line fill="none" stroke="#446586" stroke-width="4" stroke-linecap="round" stroke-linejoin="round" stroke-miterlimit="10" x1="274" y1="542" x2="201" y2="542"/>
	<path fill="none" stroke="#446586" stroke-width="4" stroke-linecap="round" stroke-linejoin="round" stroke-miterlimit="10" d="
		M186,542c0,3.313-2.687,6-6,6h-18c-3.313,0-6-2.687-6-6v-18c0-3.313,2.687-6,6-6h18c3.313,0,6,2.687,6,6V542z"/>
	
		<circle fill="none" stroke="#446586" stroke-width="4" stroke-linecap="round" stroke-linejoin="round" stroke-miterlimit="10" cx="203.118" cy="111.609" r="15"/>
	<g>
		<path fill="#446586" d="M832.691,517.497c-9.219,0-16.719-7.499-16.719-16.719V388.5h33.438v112.278
			C849.41,509.998,841.91,517.497,832.691,517.497z M819.907,392.435v108.344c0,7.062,5.725,12.785,12.784,12.785
			c7.062,0,12.785-5.724,12.785-12.785V392.435H819.907z"/>
		<path fill="#446586" d="M872.029,517.497c-9.22,0-16.719-7.499-16.719-16.719v-82.774h33.437v82.774
			C888.747,509.998,881.248,517.497,872.029,517.497z M859.245,421.938v78.841c0,7.062,5.724,12.785,12.784,12.785
			c7.062,0,12.784-5.724,12.784-12.785v-78.841H859.245z"/>
		
			<circle fill="none" stroke="#446586" stroke-width="4" stroke-linecap="round" stroke-linejoin="round" stroke-miterlimit="10" cx="907.087" cy="352.096" r="7.5"/>
		
			<circle fill="none" stroke="#446586" stroke-width="4" stroke-linecap="round" stroke-linejoin="round" stroke-miterlimit="10" cx="883.117" cy="371.609" r="15"/>
	</g>
	
		<circle fill="none" stroke="#446586" stroke-width="4" stroke-linecap="round" stroke-linejoin="round" stroke-miterlimit="10" cx="843.117" cy="239.609" r="15"/>
	<g>
		<g>
			<path fill="none" stroke="#446586" stroke-width="4" stroke-linecap="round" stroke-linejoin="round" d="M745,75
				c2.015,0,4.015,0.06,5.999,0.177"/>
			
				<path fill="none" stroke="#446586" stroke-width="4" stroke-linecap="round" stroke-linejoin="round" stroke-dasharray="11.1605,11.1605" d="
				M762.086,76.454c43.363,7.465,77.175,42.855,82.254,86.99"/>
			<path fill="none" stroke="#446586" stroke-width="4" stroke-linecap="round" stroke-linejoin="round" d="M844.823,169.001
				C844.94,170.985,845,172.986,845,175"/>
		</g>
	</g>
</g>
</svg>
