<?xml version="1.0" encoding="utf-8"?>
<!-- Generator: Adobe Illustrator 15.1.0, SVG Export Plug-In  -->
<!DOCTYPE svg PUBLIC "-//W3C//DTD SVG 1.1//EN" "http://www.w3.org/Graphics/SVG/1.1/DTD/svg11.dtd" [
	<!ENTITY ns_flows "http://ns.adobe.com/Flows/1.0/">
]>
<svg version="1.1"
	 xmlns="http://www.w3.org/2000/svg" xmlns:xlink="http://www.w3.org/1999/xlink" xmlns:a="http://ns.adobe.com/AdobeSVGViewerExtensions/3.0/"
	 x="0px" y="0px" width="1024px" height="768px" viewBox="30 16 1024 768"
	 overflow="visible" enable-background="new 30 16 1024 768" xml:space="preserve">
<defs>
</defs>
<rect opacity="0.6" fill="#BBDDEE" width="1129" height="825"/>
<g>
	<g>
		<path fill="none" stroke="#446586" stroke-width="4" stroke-linecap="round" stroke-linejoin="round" d="M501.662,540.907
			c-2.011-0.085-4.007-0.23-5.986-0.434"/>
		
			<path fill="none" stroke="#446586" stroke-width="4" stroke-linecap="round" stroke-linejoin="round" stroke-dasharray="12.7953,12.7953" d="
			M483.061,538.356c-40.271-9.452-71.162-43.244-76.306-85.006"/>
		<path fill="none" stroke="#446586" stroke-width="4" stroke-linecap="round" stroke-linejoin="round" d="M406.177,446.999
			C406.06,445.015,406,443.015,406,441"/>
		<g>
			<polygon fill="#446586" points="489.651,523.398 486.716,526.12 500.143,540.566 484.752,552.904 487.259,556.025 506,540.996 
							"/>
		</g>
	</g>
</g>
<path fill="#FFFFFF" d="M966.83,231c43.172,0,78.17,34.828,78.17,78s-34.998,78-78.17,78H508.229c-43.173,0-78.171-34.828-78.171-78
	s34.998-78,78.171-78H966.83z"/>
<path fill="#FFFFFF" d="M732.318,154c43.172,0,78.17,34.828,78.17,78c0,43.172-34.998,78-78.17,78H273.718
	c-43.173,0-78.171-34.828-78.171-78c0-43.172,34.998-78,78.171-78H732.318z"/>
<path fill="#FFFFFF" d="M583.273,310c43.172,0,78.17,35.328,78.17,78.5c0,43.173-34.998,78.5-78.17,78.5H124.673
	c-43.173,0-78.171-35.327-78.171-78.5c0-43.172,34.998-78.5,78.171-78.5H583.273z"/>
<line fill="none" stroke="#446586" stroke-width="4" stroke-linecap="round" stroke-linejoin="round" stroke-miterlimit="10" x1="143" y1="369" x2="143" y2="394"/>
<rect x="118" y="335" fill="none" stroke="#446586" stroke-width="4" stroke-linecap="round" stroke-linejoin="round" stroke-miterlimit="10" width="50" height="33"/>
<rect x="118" y="394" fill="none" stroke="#446586" stroke-width="4" stroke-linecap="round" stroke-linejoin="round" stroke-miterlimit="10" width="50" height="33"/>
<rect x="181" y="394" fill="none" stroke="#446586" stroke-width="4" stroke-linecap="round" stroke-linejoin="round" stroke-miterlimit="10" width="50" height="33"/>
<rect x="243" y="394" fill="none" stroke="#446586" stroke-width="4" stroke-linecap="round" stroke-linejoin="round" stroke-miterlimit="10" width="51" height="33"/>
<polyline fill="none" stroke="#446586" stroke-width="4" stroke-linecap="round" stroke-linejoin="round" stroke-miterlimit="10" points="
	143,381 266,381 266,393 "/>
<polygon fill="none" stroke="#446586" stroke-width="4" stroke-linecap="round" stroke-linejoin="round" stroke-miterlimit="10" points="
	676,528.646 703,512.965 730,528.646 730,560.01 703,575.693 676,560.01 "/>
<polyline fill="none" stroke="#446586" stroke-width="4" stroke-linecap="round" stroke-linejoin="round" stroke-miterlimit="10" points="
	731.043,530.529 703.755,546.212 676.469,530.529 "/>
<polygon fill="none" stroke="#446586" stroke-width="4" stroke-linecap="round" stroke-linejoin="round" stroke-miterlimit="10" points="
	731,526.819 758,511.138 785,526.819 785,558.183 758,573.866 731,558.183 "/>
<polyline fill="none" stroke="#446586" stroke-width="4" stroke-linecap="round" stroke-linejoin="round" stroke-miterlimit="10" points="
	785.75,528.701 758.462,544.385 731.176,528.701 "/>
<polygon fill="none" stroke="#446586" stroke-width="4" stroke-linecap="round" stroke-linejoin="round" stroke-miterlimit="10" points="
	703,480.221 730,464.539 757,480.221 757,511.584 730,527.268 703,511.584 "/>
<polyline fill="none" stroke="#446586" stroke-width="4" stroke-linecap="round" stroke-linejoin="round" stroke-miterlimit="10" points="
	757.426,482.104 730.138,497.786 702.852,482.104 "/>
<path fill="#FFFFFF" d="M803.104,309c0.007,0,0.027-0.562,0.027-0.93c0-32.709-26.517-59.141-59.226-59.141
	c-8.029,0-15.681,1.647-22.662,4.542c0.338-3.826,0.521-7.675,0.521-11.589c0-71.957-58.333-130.279-130.29-130.279
	c-65.507,0-119.715,48.351-128.908,111.308c-13.17-5.566-27.649-8.81-42.847-8.81c-55.717,0-101.765,41.9-109.121,94.9H803.104z"/>
<polygon fill="#FFFFFF" stroke="#446586" stroke-width="4" stroke-linecap="round" stroke-linejoin="round" stroke-miterlimit="10" points="
	519,206 519,242 482,242 482,364 605,364 605,206 "/>
<polygon fill="#FFFFFF" stroke="#446586" stroke-width="4" stroke-linecap="round" stroke-linejoin="round" stroke-miterlimit="10" points="
	482.229,242 519,242 519,205.499 "/>
<path fill="#FFFFFF" stroke="#446586" stroke-width="4" stroke-linecap="round" stroke-linejoin="round" stroke-miterlimit="10" d="
	M640,411.434c0,3.074-2.492,5.566-5.565,5.566H524.565c-3.074,0-5.565-2.492-5.565-5.566V269.566c0-3.074,2.492-5.566,5.565-5.566
	h109.869c3.073,0,5.565,2.492,5.565,5.566V411.434z"/>
<rect x="540" y="380" fill="none" stroke="#446586" stroke-width="4" stroke-linecap="round" stroke-linejoin="round" stroke-miterlimit="10" width="51" height="18"/>
<rect x="605" y="380" fill="none" stroke="#446586" stroke-width="4" stroke-linecap="round" stroke-linejoin="round" stroke-miterlimit="10" width="18" height="18"/>
<rect x="540" y="347" fill="none" stroke="#446586" stroke-width="4" stroke-linecap="round" stroke-linejoin="round" stroke-miterlimit="10" width="18" height="19"/>
<rect x="572" y="347" fill="none" stroke="#446586" stroke-width="4" stroke-linecap="round" stroke-linejoin="round" stroke-miterlimit="10" width="19" height="19"/>
<rect x="605" y="347" fill="none" stroke="#446586" stroke-width="4" stroke-linecap="round" stroke-linejoin="round" stroke-miterlimit="10" width="18" height="19"/>
<rect x="540" y="315" fill="none" stroke="#446586" stroke-width="4" stroke-linecap="round" stroke-linejoin="round" stroke-miterlimit="10" width="18" height="19"/>
<rect x="572" y="315" fill="none" stroke="#446586" stroke-width="4" stroke-linecap="round" stroke-linejoin="round" stroke-miterlimit="10" width="19" height="19"/>
<rect x="605" y="315" fill="none" stroke="#446586" stroke-width="4" stroke-linecap="round" stroke-linejoin="round" stroke-miterlimit="10" width="18" height="19"/>
<rect x="540" y="282" fill="#A1B2C2" stroke="#446586" stroke-width="4" stroke-linecap="round" stroke-linejoin="round" stroke-miterlimit="10" width="83" height="19"/>
<line fill="none" stroke="#446586" stroke-width="4" stroke-linecap="round" stroke-linejoin="round" stroke-miterlimit="10" x1="392" y1="310" x2="280" y2="310"/>
<line fill="none" stroke="#446586" stroke-width="4" stroke-linecap="round" stroke-linejoin="round" stroke-miterlimit="10" x1="332" y1="493" x2="231" y2="493"/>
<line fill="none" stroke="#446586" stroke-width="4" stroke-linecap="round" stroke-linejoin="round" stroke-miterlimit="10" x1="304" y1="508" x2="231" y2="508"/>
<line fill="none" stroke="#446586" stroke-width="4" stroke-linecap="round" stroke-linejoin="round" stroke-miterlimit="10" x1="890" y1="310" x2="742" y2="310"/>
<line fill="none" stroke="#446586" stroke-width="4" stroke-linecap="round" stroke-linejoin="round" stroke-miterlimit="10" x1="716" y1="310" x2="683" y2="310"/>
<line fill="none" stroke="#446586" stroke-width="4" stroke-linecap="round" stroke-linejoin="round" stroke-miterlimit="10" x1="380" y1="327" x2="347" y2="327"/>
<circle fill="none" stroke="#446586" stroke-width="4" stroke-linecap="round" stroke-linejoin="round" stroke-miterlimit="10" cx="347.38" cy="194.359" r="63.751"/>
<path fill="none" stroke="#446586" stroke-width="4" stroke-linecap="round" stroke-linejoin="round" stroke-miterlimit="10" d="
	M299.566,194.359c0-26.407,21.407-47.813,47.813-47.813c26.406,0,47.813,21.407,47.813,47.813"/>
<circle fill="none" stroke="#446586" stroke-width="4" stroke-linecap="round" stroke-linejoin="round" stroke-miterlimit="10" cx="347.38" cy="194.359" r="63.751"/>
<circle fill="none" stroke="#446586" stroke-width="4" stroke-linecap="round" stroke-linejoin="round" stroke-miterlimit="10" cx="346.523" cy="194.117" r="5.1"/>
<line fill="none" stroke="#446586" stroke-width="4" stroke-linecap="round" stroke-linejoin="round" stroke-miterlimit="10" x1="341.61" y1="188.682" x2="329.59" y2="176.661"/>
<path fill="none" stroke="#446586" stroke-width="4" stroke-linecap="round" stroke-linejoin="round" stroke-miterlimit="10" d="
	M216,508c0,3.313-2.687,6-6,6h-18c-3.313,0-6-2.687-6-6v-18c0-3.313,2.687-6,6-6h18c3.313,0,6,2.687,6,6V508z"/>
<line fill="none" stroke="#446586" stroke-width="4" stroke-linecap="round" stroke-linejoin="round" stroke-miterlimit="10" x1="332" y1="543" x2="231" y2="543"/>
<line fill="none" stroke="#446586" stroke-width="4" stroke-linecap="round" stroke-linejoin="round" stroke-miterlimit="10" x1="304" y1="558" x2="231" y2="558"/>
<path fill="none" stroke="#446586" stroke-width="4" stroke-linecap="round" stroke-linejoin="round" stroke-miterlimit="10" d="
	M216,558c0,3.313-2.687,6-6,6h-18c-3.313,0-6-2.687-6-6v-18c0-3.313,2.687-6,6-6h18c3.313,0,6,2.687,6,6V558z"/>
<circle fill="none" stroke="#446586" stroke-width="4" stroke-linecap="round" stroke-linejoin="round" stroke-miterlimit="10" cx="233.118" cy="127.609" r="15"/>
<path fill="#446586" d="M862.691,533.497c-9.219,0-16.719-7.499-16.719-16.719V404.5h33.438v112.278
	C879.41,525.998,871.91,533.497,862.691,533.497z M849.907,408.435v108.344c0,7.062,5.725,12.785,12.784,12.785
	c7.062,0,12.785-5.724,12.785-12.785V408.435H849.907z"/>
<path fill="#446586" d="M902.029,533.497c-9.22,0-16.719-7.499-16.719-16.719v-82.774h33.437v82.774
	C918.747,525.998,911.248,533.497,902.029,533.497z M889.245,437.938v78.841c0,7.062,5.724,12.785,12.784,12.785
	c7.062,0,12.784-5.724,12.784-12.785v-78.841H889.245z"/>
<circle fill="none" stroke="#446586" stroke-width="4" stroke-linecap="round" stroke-linejoin="round" stroke-miterlimit="10" cx="937.087" cy="368.096" r="7.5"/>
<circle fill="none" stroke="#446586" stroke-width="4" stroke-linecap="round" stroke-linejoin="round" stroke-miterlimit="10" cx="913.117" cy="387.609" r="15"/>
<circle fill="none" stroke="#446586" stroke-width="4" stroke-linecap="round" stroke-linejoin="round" stroke-miterlimit="10" cx="873.117" cy="255.609" r="15"/>
<g>
	<g>
		<path fill="none" stroke="#446586" stroke-width="4" stroke-linecap="round" stroke-linejoin="round" d="M775,91
			c2.015,0,4.015,0.06,5.999,0.177"/>
		
			<path fill="none" stroke="#446586" stroke-width="4" stroke-linecap="round" stroke-linejoin="round" stroke-dasharray="11.1605,11.1605" d="
			M792.086,92.454c43.363,7.465,77.175,42.855,82.254,86.99"/>
		<path fill="none" stroke="#446586" stroke-width="4" stroke-linecap="round" stroke-linejoin="round" d="M874.823,185.001
			C874.94,186.985,875,188.986,875,191"/>
	</g>
</g>
</svg>
