<svg width="5349" height="3648" viewBox="0 0 5349 3648" fill="none" xmlns="http://www.w3.org/2000/svg">
<path fill-rule="evenodd" clip-rule="evenodd" d="M2575.22 1063.51C2529.3 1217.48 2471.78 1388.02 2289.73 1434.99C2108.16 1481.84 1907.84 1378.33 1732.8 1280.88C1566.09 1188.07 1407.98 1073.47 1360.74 917.795C1310.91 753.578 1352.04 581.234 1488.84 476.941C1618.19 378.332 1821.34 399.325 2010.59 422.378C2202.74 445.783 2417.38 468.427 2537.36 604.663C2659.29 743.113 2620.1 913 2575.22 1063.51Z" fill="white"/>
<rect x="1724.24" y="633.029" width="120" height="80" fill="#FFC58B"/>
<rect x="1964.24" y="633.029" width="120" height="80" fill="#FFC58B"/>
<rect x="2164.24" y="633.029" width="120" height="80" fill="#FFC58B"/>
<rect x="2364.24" y="633.029" width="120" height="80" fill="#FFC58B"/>
<rect x="1964.24" y="841.029" width="120" height="80" fill="#FFC58B"/>
<rect x="2164.24" y="841.029" width="120" height="80" fill="#FFC58B"/>
<rect x="2364.24" y="841.029" width="120" height="80" fill="#FFC58B"/>
<rect x="1964.24" y="737.029" width="120" height="80" fill="#FFC58B"/>
<rect x="2164.24" y="737.029" width="120" height="80" fill="#FFC58B"/>
<rect x="2364.24" y="737.029" width="120" height="80" fill="#FFC58B"/>
<rect x="1964.24" y="945.029" width="120" height="80" fill="#FFC58B"/>
<rect x="2164.24" y="945.029" width="120" height="80" fill="#FFC58B"/>
<rect x="2364.24" y="945.029" width="120" height="80" fill="#FFC58B"/>
<circle cx="1604.24" cy="895.807" r="6" fill="#446586"/>
<circle cx="1645.69" cy="886.284" r="6" fill="#446586"/>
<path d="M1602.24 1224.03H1638.24V1427.03H1575.24L1602.24 1224.03Z" stroke="#446586" stroke-width="8" stroke-linecap="round" stroke-linejoin="round"/>
<path d="M1674.24 1224.03H1638.24V1427.03H1770.24C1764.72 1418.45 1740.94 1399.26 1688.63 1386.28L1674.24 1224.03Z" stroke="#446586" stroke-width="8" stroke-linecap="round" stroke-linejoin="round"/>
<path d="M1518.24 850.029L1653.74 819.029L1746.24 922.029H1674.74V1118.03H1602.74L1518.24 850.029Z" stroke="#446586" stroke-width="8" stroke-linecap="round" stroke-linejoin="round"/>
<path d="M1796.24 760.029L1796.24 1143.03H1603.24V1191.03H1844.24L1844.24 760.029L1796.24 760.029Z" stroke="#446586" stroke-width="8" stroke-linecap="round"/>
<path d="M1752.08 298.931L1741.51 283.556L1751.38 273.501H1746.55L1735.46 284.915H1735.16V263.517H1731.18V298.931H1735.16V289.673L1738.65 286.298L1747.35 298.931H1752.08ZM1766.8 299.376C1770.5 299.376 1773.27 297.853 1774.49 295.134H1774.89V298.954H1778.68V281.54C1778.68 276.243 1775.26 273.197 1769.28 273.197C1764.08 273.197 1760.14 275.986 1759.68 280.064H1763.59C1764.25 277.884 1766.31 276.642 1769.24 276.642C1772.78 276.642 1774.72 278.4 1774.72 281.587V283.884L1767.74 284.236C1761.95 284.54 1758.71 287.212 1758.71 291.712C1758.71 296.329 1761.95 299.376 1766.8 299.376ZM1767.95 295.884C1764.74 295.884 1762.75 294.243 1762.75 291.572C1762.75 288.923 1764.62 287.4 1768.18 287.236L1774.72 286.931V289.931C1774.72 293.329 1771.79 295.884 1767.95 295.884ZM1788.64 298.931H1792.63V283.954C1792.63 279.618 1795.44 276.689 1799.64 276.689C1803.6 276.689 1805.47 278.845 1805.47 283.439V298.931H1809.46V282.431C1809.46 276.337 1806.46 273.032 1800.93 273.032C1797.06 273.032 1794.15 274.814 1792.79 277.978H1792.46V273.501H1788.64V298.931ZM1830.32 299.353C1836.2 299.353 1840.04 295.111 1840.04 288.572V283.837C1840.04 277.322 1836.2 273.079 1830.32 273.079C1826.64 273.079 1823.94 274.65 1822.82 277.439H1822.39V263.517H1818.34V298.931H1822.25V295.04H1822.7C1824.01 297.853 1826.68 299.353 1830.32 299.353ZM1829.14 295.72C1824.97 295.72 1822.3 292.72 1822.3 288.009V284.353C1822.3 279.665 1824.97 276.665 1829.14 276.665C1833.36 276.665 1836.03 279.665 1836.03 284.353V288.009C1836.03 292.697 1833.36 295.72 1829.14 295.72ZM1855.82 299.376C1859.52 299.376 1862.28 297.853 1863.5 295.134H1863.9V298.954H1867.7V281.54C1867.7 276.243 1864.28 273.197 1858.3 273.197C1853.1 273.197 1849.16 275.986 1848.69 280.064H1852.6C1853.26 277.884 1855.32 276.642 1858.25 276.642C1861.79 276.642 1863.74 278.4 1863.74 281.587V283.884L1856.75 284.236C1850.96 284.54 1847.73 287.212 1847.73 291.712C1847.73 296.329 1850.96 299.376 1855.82 299.376ZM1856.96 295.884C1853.75 295.884 1851.76 294.243 1851.76 291.572C1851.76 288.923 1853.64 287.4 1857.2 287.236L1863.74 286.931V289.931C1863.74 293.329 1860.81 295.884 1856.96 295.884ZM1877.66 298.931H1881.64V283.954C1881.64 279.618 1884.46 276.689 1888.65 276.689C1892.61 276.689 1894.49 278.845 1894.49 283.439V298.931H1898.47V282.431C1898.47 276.337 1895.47 273.032 1889.94 273.032C1886.07 273.032 1883.17 274.814 1881.81 277.978H1881.48V273.501H1877.66V298.931ZM1949 299.353C1954.89 299.353 1958.73 295.111 1958.73 288.572V283.837C1958.73 277.322 1954.89 273.079 1949 273.079C1945.32 273.079 1942.63 274.65 1941.5 277.439H1941.08V263.517H1937.03V298.931H1940.94V295.04H1941.39C1942.7 297.853 1945.37 299.353 1949 299.353ZM1947.83 295.72C1943.66 295.72 1940.99 292.72 1940.99 288.009V284.353C1940.99 279.665 1943.66 276.665 1947.83 276.665C1952.05 276.665 1954.72 279.665 1954.72 284.353V288.009C1954.72 292.697 1952.05 295.72 1947.83 295.72ZM1977.08 299.4C1983.81 299.4 1988.1 295.017 1988.1 288.15V284.306C1988.1 277.439 1983.81 273.056 1977.08 273.056C1970.35 273.056 1966.07 277.439 1966.07 284.306V288.15C1966.07 295.017 1970.35 299.4 1977.08 299.4ZM1977.08 276.572C1981.44 276.572 1984.16 279.665 1984.16 284.657V287.775C1984.16 292.79 1981.44 295.861 1977.08 295.861C1972.72 295.861 1970 292.79 1970 287.775V284.657C1970 279.665 1972.72 276.572 1977.08 276.572ZM2004.18 299.376C2007.88 299.376 2010.64 297.853 2011.86 295.134H2012.26V298.954H2016.06V281.54C2016.06 276.243 2012.64 273.197 2006.66 273.197C2001.46 273.197 1997.52 275.986 1997.05 280.064H2000.96C2001.62 277.884 2003.68 276.642 2006.61 276.642C2010.15 276.642 2012.1 278.4 2012.1 281.587V283.884L2005.11 284.236C1999.32 284.54 1996.09 287.212 1996.09 291.712C1996.09 296.329 1999.32 299.376 2004.18 299.376ZM2005.32 295.884C2002.11 295.884 2000.12 294.243 2000.12 291.572C2000.12 288.923 2002 287.4 2005.56 287.236L2012.1 286.931V289.931C2012.1 293.329 2009.17 295.884 2005.32 295.884ZM2035.37 279.993V273.501H2025.88V276.689H2031.53V295.743H2026.39V298.931H2043.29V295.743H2035.42V287.54C2035.42 281.072 2038.75 277.181 2044.37 277.181C2045.75 277.181 2047.39 277.462 2048.57 277.884V273.407C2047.72 273.056 2046.34 272.845 2044.89 272.845C2039.99 272.845 2036.82 275.282 2035.89 279.993H2035.37ZM2058.78 284.353C2058.78 279.665 2061.48 276.665 2065.68 276.665C2069.85 276.665 2072.54 279.665 2072.54 284.353V288.009C2072.54 292.72 2069.85 295.72 2065.68 295.72C2061.48 295.72 2058.78 292.697 2058.78 288.009V284.353ZM2072.57 295.04V298.931H2076.48V263.517H2072.43V277.439H2072C2070.9 274.65 2068.18 273.079 2064.5 273.079C2058.62 273.079 2054.78 277.322 2054.78 283.837V288.572C2054.78 295.111 2058.62 299.353 2064.5 299.353C2068.14 299.353 2070.81 297.853 2072.12 295.04H2072.57Z" fill="#454F5B"/>
<path fill-rule="evenodd" clip-rule="evenodd" d="M3253.72 2156.86C3416.51 2165.77 3562.76 2232.07 3677.6 2347.87C3814.66 2486.07 3962.42 2648.74 3932.28 2841.1C3900.59 3043.44 3729.61 3208.78 3533.54 3267.55C3362.85 3318.7 3217.52 3171.35 3052.19 3104.87C2858.08 3026.81 2579.68 3053.36 2510 2855.98C2438.27 2652.77 2610.4 2445.58 2767.37 2298.02C2896.81 2176.34 3076.39 2147.14 3253.72 2156.86Z" fill="white"/>
<path fill-rule="evenodd" clip-rule="evenodd" d="M3183.97 2948.6L3133.06 2897.69L3198.62 2832.13L2791.24 2832.13L2791.24 2760.13L3199.15 2760.13L3133.06 2694.04L3183.97 2643.13L3336.71 2795.87L3183.97 2948.6Z" fill="#446586" fill-opacity="0.5"/>
<path fill-rule="evenodd" clip-rule="evenodd" d="M3360.97 3126.6L3411.88 3075.69L3346.32 3010.13L3753.71 3010.13V2938.13L3345.79 2938.13L3411.88 2872.04L3360.97 2821.13L3208.24 2973.87L3360.97 3126.6Z" fill="#446586" fill-opacity="0.5"/>
<path d="M2711.24 2450.48L2795.68 2717.13H2867.95V2521.21H2941.46L2850.19 2419.13L2711.24 2450.48Z" stroke="#446586" stroke-width="8" stroke-linecap="round" stroke-linejoin="round"/>
<circle cx="2793.42" cy="2492.91" r="6" fill="#446586"/>
<circle cx="2834.87" cy="2483.39" r="6" fill="#446586"/>
<path d="M3833.71 2628.48L3749.26 2895.13H3676.99V2699.21H3603.48L3694.75 2597.13L3833.71 2628.48Z" stroke="#446586" stroke-width="8" stroke-linecap="round" stroke-linejoin="round"/>
<circle r="6" transform="matrix(-1 0 0 1 3751.52 2670.91)" fill="#446586"/>
<circle r="6" transform="matrix(-1 0 0 1 3710.07 2661.39)" fill="#446586"/>
<path d="M2843 1368.32L2927.45 1634.98H2999.72V1439.06H3073.22L2981.96 1336.98L2843 1368.32Z" stroke="#446586" stroke-width="8" stroke-linecap="round" stroke-linejoin="round"/>
<circle cx="2925.18" cy="1410.76" r="6" fill="#446586"/>
<circle cx="2966.63" cy="1401.23" r="6" fill="#446586"/>
<path d="M3715.47 1103.32L3631.02 1369.98H3558.75V1174.06H3485.25L3576.51 1071.98L3715.47 1103.32Z" stroke="#446586" stroke-width="8" stroke-linecap="round" stroke-linejoin="round"/>
<circle r="6" transform="matrix(-1 0 0 1 3633.29 1145.76)" fill="#446586"/>
<circle r="6" transform="matrix(-1 0 0 1 3591.84 1136.23)" fill="#446586"/>
<path fill-rule="evenodd" clip-rule="evenodd" d="M3242.74 1601.45L3293.65 1550.54L3228.09 1484.98L3635.47 1484.98V1412.98L3227.56 1412.98L3293.65 1346.89L3242.74 1295.98L3090 1448.71L3242.74 1601.45ZM3315.74 1866.45L3264.82 1815.54L3330.38 1749.98L2923 1749.98L2923 1677.98L3330.91 1677.98L3264.82 1611.89L3315.74 1560.98L3468.47 1713.71L3315.74 1866.45Z" fill="#446586" fill-opacity="0.5"/>
<path d="M3453.43 2124.68C3459.31 2124.68 3463.16 2120.43 3463.16 2113.89V2109.16C3463.16 2102.64 3459.31 2098.4 3453.43 2098.4C3449.75 2098.4 3447.05 2099.97 3445.93 2102.76H3445.51V2088.84H3441.45V2124.25H3445.37V2120.36H3445.81C3447.12 2123.18 3449.8 2124.68 3453.43 2124.68ZM3452.26 2121.04C3448.09 2121.04 3445.41 2118.04 3445.41 2113.33V2109.68C3445.41 2104.99 3448.09 2101.99 3452.26 2101.99C3456.48 2101.99 3459.15 2104.99 3459.15 2109.68V2113.33C3459.15 2118.02 3456.48 2121.04 3452.26 2121.04ZM3481.95 2092.59C3483.83 2092.59 3485.26 2091.18 3485.26 2089.31C3485.26 2087.46 3483.83 2086.05 3481.95 2086.05C3480.08 2086.05 3478.65 2087.46 3478.65 2089.31C3478.65 2091.18 3480.08 2092.59 3481.95 2092.59ZM3492.62 2124.25V2120.95H3484.2V2098.82H3471.62V2102.13H3480.27V2120.95H3471.55V2124.25H3492.62ZM3523.58 2111.11V2107.4H3498.78V2111.11H3523.58ZM3533.54 2109.68C3533.54 2104.99 3536.23 2101.99 3540.43 2101.99C3544.6 2101.99 3547.3 2104.99 3547.3 2109.68V2113.33C3547.3 2118.04 3544.6 2121.04 3540.43 2121.04C3536.23 2121.04 3533.54 2118.02 3533.54 2113.33V2109.68ZM3547.32 2120.36V2124.25H3551.23V2088.84H3547.18V2102.76H3546.76C3545.66 2099.97 3542.94 2098.4 3539.26 2098.4C3533.38 2098.4 3529.53 2102.64 3529.53 2109.16V2113.89C3529.53 2120.43 3533.38 2124.68 3539.26 2124.68C3542.89 2124.68 3545.56 2123.18 3546.88 2120.36H3547.32ZM3570.97 2092.59C3572.84 2092.59 3574.27 2091.18 3574.27 2089.31C3574.27 2087.46 3572.84 2086.05 3570.97 2086.05C3569.09 2086.05 3567.66 2087.46 3567.66 2089.31C3567.66 2091.18 3569.09 2092.59 3570.97 2092.59ZM3581.63 2124.25V2120.95H3573.22V2098.82H3560.63V2102.13H3569.28V2120.95H3560.56V2124.25H3581.63ZM3599.14 2105.32V2098.82H3589.65V2102.01H3595.3V2121.07H3590.16V2124.25H3607.06V2121.07H3599.19V2112.86C3599.19 2106.39 3602.52 2102.5 3608.14 2102.5C3609.52 2102.5 3611.16 2102.79 3612.34 2103.21V2098.73C3611.49 2098.38 3610.11 2098.17 3608.66 2098.17C3603.76 2098.17 3600.59 2100.61 3599.66 2105.32H3599.14ZM3630.15 2101.78C3634.25 2101.78 3636.73 2104.71 3636.73 2109.56H3623.35C3623.35 2104.68 3625.91 2101.78 3630.15 2101.78ZM3636.73 2117.69C3636.03 2119.92 3633.66 2121.28 3630.45 2121.28C3626.12 2121.28 3623.35 2118.28 3623.35 2113.61V2112.58H3640.67V2110.1C3640.67 2102.74 3636.78 2098.36 3630.17 2098.36C3623.7 2098.36 3619.41 2102.76 3619.41 2109.46V2113.29C3619.41 2120.53 3623.47 2124.72 3630.45 2124.72C3635.8 2124.72 3639.83 2121.89 3640.6 2117.69H3636.73ZM3670.13 2106.75C3669.48 2101.52 3665.63 2098.33 3660.01 2098.33C3653.09 2098.33 3649.06 2102.57 3649.06 2109.86V2113.19C3649.06 2120.48 3653.09 2124.72 3660.01 2124.72C3665.63 2124.72 3669.5 2121.56 3670.13 2116.38H3666.2C3665.7 2119.29 3663.22 2121.14 3659.94 2121.14C3655.51 2121.14 3653.05 2118.14 3653.05 2112.68V2110.38C3653.05 2104.92 3655.51 2101.89 3659.94 2101.89C3663.22 2101.89 3665.7 2103.77 3666.2 2106.75H3670.13ZM3684.88 2092V2098.89H3678.1V2102.29H3684.88V2116.68C3684.88 2121.98 3687.8 2124.37 3694.11 2124.37C3695.33 2124.37 3698.42 2124.25 3699.05 2124.14V2120.76C3698.38 2120.83 3695.82 2120.9 3694.39 2120.9C3690.8 2120.9 3688.86 2119.4 3688.86 2116.64V2102.29H3699.12V2098.89H3688.81V2092H3684.88ZM3719.33 2092.59C3721.2 2092.59 3722.63 2091.18 3722.63 2089.31C3722.63 2087.46 3721.2 2086.05 3719.33 2086.05C3717.45 2086.05 3716.02 2087.46 3716.02 2089.31C3716.02 2091.18 3717.45 2092.59 3719.33 2092.59ZM3729.99 2124.25V2120.95H3721.58V2098.82H3708.99V2102.13H3717.64V2120.95H3708.92V2124.25H3729.99ZM3748.55 2124.72C3755.28 2124.72 3759.57 2120.34 3759.57 2113.47V2109.63C3759.57 2102.76 3755.28 2098.38 3748.55 2098.38C3741.83 2098.38 3737.54 2102.76 3737.54 2109.63V2113.47C3737.54 2120.34 3741.83 2124.72 3748.55 2124.72ZM3748.55 2101.89C3752.91 2101.89 3755.63 2104.99 3755.63 2109.98V2113.1C3755.63 2118.11 3752.91 2121.18 3748.55 2121.18C3744.2 2121.18 3741.48 2118.11 3741.48 2113.1V2109.98C3741.48 2104.99 3744.2 2101.89 3748.55 2101.89ZM3767.82 2124.25H3771.8V2109.28C3771.8 2104.94 3774.62 2102.01 3778.81 2102.01C3782.77 2102.01 3784.65 2104.17 3784.65 2108.76V2124.25H3788.63V2107.75C3788.63 2101.66 3785.63 2098.36 3780.1 2098.36C3776.23 2098.36 3773.33 2100.14 3771.97 2103.3H3771.64V2098.82H3767.82V2124.25ZM3805.32 2124.7C3809.02 2124.7 3811.79 2123.18 3813.01 2120.46H3813.41V2124.28H3817.2V2106.86C3817.2 2101.57 3813.78 2098.52 3807.8 2098.52C3802.6 2098.52 3798.66 2101.31 3798.2 2105.39H3802.11C3802.77 2103.21 3804.83 2101.96 3807.76 2101.96C3811.3 2101.96 3813.24 2103.72 3813.24 2106.91V2109.21L3806.26 2109.56C3800.47 2109.86 3797.23 2112.54 3797.23 2117.04C3797.23 2121.65 3800.47 2124.7 3805.32 2124.7ZM3806.47 2121.21C3803.26 2121.21 3801.27 2119.57 3801.27 2116.89C3801.27 2114.25 3803.14 2112.72 3806.7 2112.56L3813.24 2112.25V2115.25C3813.24 2118.65 3810.31 2121.21 3806.47 2121.21ZM3848.68 2124.25V2120.95H3840.29V2088.84H3827.68V2092.14H3836.3V2120.95H3827.61V2124.25H3848.68Z" fill="#454F5B"/>
<circle cx="1809.18" cy="1964.78" r="6" fill="#446586"/>
<circle cx="1850.63" cy="1955.26" r="6" fill="#446586"/>
<path d="M1727 1922.35L1811.45 2189H1883.72V1993.08H1957.22L1865.96 1891L1727 1922.35Z" stroke="#446586" stroke-width="8" stroke-linecap="round" stroke-linejoin="round"/>
<path fill-rule="evenodd" clip-rule="evenodd" d="M2255.47 2551.74L2204.56 2602.65L2139 2537.09L2139 2944.47H2067L2067 2536.56L2000.91 2602.65L1950 2551.74L2102.74 2399L2255.47 2551.74Z" fill="#446586" fill-opacity="0.5"/>
<path fill-rule="evenodd" clip-rule="evenodd" d="M1802 2232L1874 2232L1874 2639.38L1939.56 2573.82L1990.47 2624.74L1837.74 2777.47L1685 2624.74L1735.91 2573.82L1802 2639.91L1802 2232Z" fill="#446586" fill-opacity="0.5"/>
<path d="M2220.22 2094.35L2135.77 2361H2063.51V2165.08H1990L2081.26 2063L2220.22 2094.35Z" stroke="#446586" stroke-width="8" stroke-linecap="round" stroke-linejoin="round"/>
<circle r="6" transform="matrix(-1 0 0 1 2138.04 2136.78)" fill="#446586"/>
<circle r="6" transform="matrix(-1 0 0 1 2096.59 2127.26)" fill="#446586"/>
<path fill-rule="evenodd" clip-rule="evenodd" d="M576.989 1569.01C724.577 1489.17 895.461 1442.93 1066.62 1522.25C1243.66 1604.29 1394.62 1774.92 1450.29 1973.7C1502.04 2158.5 1420.36 2321.61 1329.7 2461.65C1245.93 2591.04 1130.8 2685.42 978.729 2702.1C802.737 2721.41 605.316 2703.76 462.037 2556.82C308.488 2399.35 232.002 2166.29 255.912 1960.82C278.436 1767.27 423.789 1651.89 576.989 1569.01Z" fill="white"/>
<rect x="526" y="2096.13" width="120" height="80" fill="#FFC58B"/>
<rect x="662" y="2096.13" width="120" height="80" fill="#FFC58B"/>
<rect x="798" y="2096.13" width="120" height="80" fill="#FFC58B"/>
<rect x="934" y="2096.13" width="120" height="80" fill="#FFC58B"/>
<rect x="1070" y="2096.13" width="120" height="80" fill="#FFC58B"/>
<path fill-rule="evenodd" clip-rule="evenodd" d="M510 2096.13H390V2117.46C401.727 2122.2 410 2133.7 410 2147.13V2163.13C410 2167.76 409.017 2172.16 407.249 2176.13H510V2096.13Z" fill="#FFC58B"/>
<path fill-rule="evenodd" clip-rule="evenodd" d="M1326 2096.13H1206V2176.13H1308.75C1306.98 2172.16 1306 2167.76 1306 2163.13V2147.13C1306 2133.7 1314.27 2122.2 1326 2117.46V2096.13Z" fill="#FFC58B"/>
<circle cx="817" cy="1830.91" r="6" fill="#446586"/>
<circle cx="858.451" cy="1821.39" r="6" fill="#446586"/>
<path d="M815 2263.13H851V2466.13H788L815 2263.13Z" stroke="#446586" stroke-width="8" stroke-linecap="round" stroke-linejoin="round"/>
<path d="M887 2263.13H851V2466.13H983C977.483 2457.55 953.7 2438.37 901.387 2425.38L887 2263.13Z" stroke="#446586" stroke-width="8" stroke-linecap="round" stroke-linejoin="round"/>
<path d="M731 1785.13L866.5 1754.13L959 1857.13H887.5V2053.13H815.5L731 1785.13Z" stroke="#446586" stroke-width="8" stroke-linecap="round" stroke-linejoin="round"/>
<path d="M370 2115.13H394C402.837 2115.13 410 2122.29 410 2131.13V2179.13C410 2187.97 402.837 2195.13 394 2195.13H370V2115.13Z" stroke="#446586" stroke-width="8" stroke-linecap="round"/>
<path d="M1346 2115.13H1322C1313.16 2115.13 1306 2122.29 1306 2131.13V2179.13C1306 2187.97 1313.16 2195.13 1322 2195.13H1346V2115.13Z" stroke="#446586" stroke-width="8" stroke-linecap="round"/>
<path d="M747.43 1386.58C746.773 1381.35 742.93 1378.16 737.305 1378.16C730.391 1378.16 726.359 1382.41 726.359 1389.7V1393.02C726.359 1400.31 730.391 1404.56 737.305 1404.56C742.93 1404.56 746.797 1401.39 747.43 1396.21H743.492C743 1399.12 740.516 1400.97 737.234 1400.97C732.805 1400.97 730.344 1397.97 730.344 1392.51V1390.21C730.344 1384.75 732.805 1381.73 737.234 1381.73C740.516 1381.73 743 1383.6 743.492 1386.58H747.43ZM766.508 1404.56C773.234 1404.56 777.523 1400.17 777.523 1393.31V1389.46C777.523 1382.59 773.234 1378.21 766.508 1378.21C759.781 1378.21 755.492 1382.59 755.492 1389.46V1393.31C755.492 1400.17 759.781 1404.56 766.508 1404.56ZM766.508 1381.73C770.867 1381.73 773.586 1384.82 773.586 1389.81V1392.93C773.586 1397.95 770.867 1401.02 766.508 1401.02C762.148 1401.02 759.43 1397.95 759.43 1392.93V1389.81C759.43 1384.82 762.148 1381.73 766.508 1381.73ZM808.438 1385.36C808.438 1380.65 806.586 1378.19 803.047 1378.19C800.492 1378.19 798.453 1379.73 797.797 1382.17H797.375C796.836 1379.66 795.148 1378.19 792.758 1378.19C790.367 1378.19 788.539 1379.69 787.906 1382.24H787.484V1378.66H783.922V1404.09H787.508V1386.93C787.508 1383.77 788.914 1381.82 791.164 1381.82C793.32 1381.82 794.445 1383.44 794.445 1386.51V1404.09H798.008V1386.93C798.008 1383.77 799.367 1381.82 801.594 1381.82C803.727 1381.82 804.852 1383.44 804.852 1386.53V1404.09H808.438V1385.36ZM838.109 1385.36C838.109 1380.65 836.258 1378.19 832.719 1378.19C830.164 1378.19 828.125 1379.73 827.469 1382.17H827.047C826.508 1379.66 824.82 1378.19 822.43 1378.19C820.039 1378.19 818.211 1379.69 817.578 1382.24H817.156V1378.66H813.594V1404.09H817.18V1386.93C817.18 1383.77 818.586 1381.82 820.836 1381.82C822.992 1381.82 824.117 1383.44 824.117 1386.51V1404.09H827.68V1386.93C827.68 1383.77 829.039 1381.82 831.266 1381.82C833.398 1381.82 834.523 1383.44 834.523 1386.53V1404.09H838.109V1385.36ZM855.805 1381.61C859.906 1381.61 862.391 1384.54 862.391 1389.39H849.008C849.008 1384.52 851.562 1381.61 855.805 1381.61ZM862.391 1397.52C861.688 1399.75 859.32 1401.11 856.109 1401.11C851.773 1401.11 849.008 1398.11 849.008 1393.45V1392.41H866.328V1389.93C866.328 1382.57 862.438 1378.19 855.828 1378.19C849.359 1378.19 845.07 1382.59 845.07 1389.3V1393.12C845.07 1400.36 849.125 1404.56 856.109 1404.56C861.453 1404.56 865.484 1401.72 866.258 1397.52H862.391ZM874.789 1404.09H878.773V1389.11C878.773 1384.77 881.586 1381.84 885.781 1381.84C889.742 1381.84 891.617 1384 891.617 1388.59V1404.09H895.602V1387.59C895.602 1381.49 892.602 1378.19 887.07 1378.19C883.203 1378.19 880.297 1379.97 878.938 1383.13H878.609V1378.66H874.789V1404.09ZM910.531 1371.84V1378.73H903.758V1382.13H910.531V1396.52C910.531 1401.81 913.461 1404.2 919.766 1404.2C920.984 1404.2 924.078 1404.09 924.711 1403.97V1400.59C924.031 1400.66 921.477 1400.73 920.047 1400.73C916.461 1400.73 914.516 1399.23 914.516 1396.47V1382.13H924.781V1378.73H914.469V1371.84H910.531ZM969.875 1371.84V1378.73H963.102V1382.13H969.875V1396.52C969.875 1401.81 972.805 1404.2 979.109 1404.2C980.328 1404.2 983.422 1404.09 984.055 1403.97V1400.59C983.375 1400.66 980.82 1400.73 979.391 1400.73C975.805 1400.73 973.859 1399.23 973.859 1396.47V1382.13H984.125V1378.73H973.812V1371.84H969.875ZM993.453 1404.09H997.438V1389.13C997.438 1384.8 1000.27 1381.87 1004.47 1381.87C1008.45 1381.87 1010.33 1384.05 1010.33 1388.62V1404.09H1014.31V1387.61C1014.31 1381.54 1011.31 1378.21 1005.78 1378.21C1001.89 1378.21 998.961 1379.99 997.625 1383.16H997.297V1368.67H993.453V1404.09ZM1032.5 1385.15V1378.66H1023.01V1381.84H1028.66V1400.9H1023.52V1404.09H1040.42V1400.9H1032.55V1392.7C1032.55 1386.23 1035.88 1382.34 1041.5 1382.34C1042.88 1382.34 1044.52 1382.62 1045.7 1383.04V1378.56C1044.85 1378.21 1043.47 1378 1042.02 1378C1037.12 1378 1033.95 1380.44 1033.02 1385.15H1032.5ZM1063.51 1381.61C1067.61 1381.61 1070.09 1384.54 1070.09 1389.39H1056.71C1056.71 1384.52 1059.27 1381.61 1063.51 1381.61ZM1070.09 1397.52C1069.39 1399.75 1067.02 1401.11 1063.81 1401.11C1059.48 1401.11 1056.71 1398.11 1056.71 1393.45V1392.41H1074.03V1389.93C1074.03 1382.57 1070.14 1378.19 1063.53 1378.19C1057.06 1378.19 1052.77 1382.59 1052.77 1389.3V1393.12C1052.77 1400.36 1056.83 1404.56 1063.81 1404.56C1069.16 1404.56 1073.19 1401.72 1073.96 1397.52H1070.09ZM1090.32 1404.53C1094.02 1404.53 1096.79 1403.01 1098.01 1400.29H1098.41V1404.11H1102.2V1386.7C1102.2 1381.4 1098.78 1378.35 1092.8 1378.35C1087.6 1378.35 1083.66 1381.14 1083.2 1385.22H1087.11C1087.77 1383.04 1089.83 1381.8 1092.76 1381.8C1096.3 1381.8 1098.24 1383.56 1098.24 1386.74V1389.04L1091.26 1389.39C1085.47 1389.7 1082.23 1392.37 1082.23 1396.87C1082.23 1401.48 1085.47 1404.53 1090.32 1404.53ZM1091.47 1401.04C1088.26 1401.04 1086.27 1399.4 1086.27 1396.73C1086.27 1394.08 1088.14 1392.56 1091.7 1392.39L1098.24 1392.09V1395.09C1098.24 1398.48 1095.31 1401.04 1091.47 1401.04ZM1115.26 1389.51C1115.26 1384.82 1117.95 1381.82 1122.15 1381.82C1126.32 1381.82 1129.02 1384.82 1129.02 1389.51V1393.16C1129.02 1397.88 1126.32 1400.88 1122.15 1400.88C1117.95 1400.88 1115.26 1397.85 1115.26 1393.16V1389.51ZM1129.04 1400.2V1404.09H1132.95V1368.67H1128.9V1382.59H1128.48C1127.38 1379.81 1124.66 1378.23 1120.98 1378.23C1115.09 1378.23 1111.25 1382.48 1111.25 1388.99V1393.73C1111.25 1400.27 1115.09 1404.51 1120.98 1404.51C1124.61 1404.51 1127.28 1403.01 1128.59 1400.2H1129.04Z" fill="#454F5B"/>
<path fill-rule="evenodd" clip-rule="evenodd" d="M4649.65 559.024C4833.57 598.01 5007.3 717.589 5066.58 895.93C5121.72 1061.82 5027.98 1234.84 4919.96 1372.28C4835.63 1479.59 4697.88 1499.58 4565.61 1533.38C4414.28 1572.04 4241.73 1676.73 4122.27 1576.1C4002.54 1475.23 4080.2 1287.44 4088.13 1131.14C4095.84 979.428 4060.08 813.561 4166.5 705.132C4290.46 578.829 4476.46 522.31 4649.65 559.024Z" fill="white"/>
<rect x="4656" y="707.978" width="80" height="80" fill="#FFC58B"/>
<rect x="4656" y="827.978" width="80" height="80" fill="#FFC58B"/>
<rect x="4656" y="947.978" width="80" height="80" fill="#FFC58B"/>
<path d="M4480.22 819.325L4395.77 1085.98H4323.51V890.061H4250L4341.26 787.978L4480.22 819.325Z" stroke="#446586" stroke-width="8" stroke-linecap="round" stroke-linejoin="round"/>
<circle r="6" transform="matrix(-1 0 0 1 4398.04 861.756)" fill="#446586"/>
<circle r="6" transform="matrix(-1 0 0 1 4356.59 852.234)" fill="#446586"/>
<path d="M4321 1197.98H4357V1400.98H4294L4321 1197.98Z" stroke="#446586" stroke-width="8" stroke-linecap="round" stroke-linejoin="round"/>
<path d="M4393 1197.98H4357V1400.98H4489C4483.48 1392.4 4459.7 1373.21 4407.39 1360.23L4393 1197.98Z" stroke="#446586" stroke-width="8" stroke-linecap="round" stroke-linejoin="round"/>
<path d="M4323.51 1117.98H4592L4544 1165.98H4323.51V1117.98Z" stroke="#446586" stroke-width="8" stroke-linecap="round" stroke-linejoin="round"/>
<path d="M4592 778.978L4592 1117.98L4544 1165.98L4544 778.978L4592 778.978Z" stroke="#446586" stroke-width="8" stroke-linecap="round" stroke-linejoin="round"/>
<path d="M4720.43 734.949L4694.97 760.404L4678 743.434" stroke="#446586" stroke-width="8" stroke-linecap="round" stroke-linejoin="round"/>
<path d="M4720.43 852.949L4694.97 878.404L4678 861.434" stroke="#446586" stroke-width="8" stroke-linecap="round" stroke-linejoin="round"/>
<path d="M4330.45 445.969C4329.79 440.742 4325.95 437.555 4320.32 437.555C4313.41 437.555 4309.38 441.797 4309.38 449.086V452.414C4309.38 459.703 4313.41 463.946 4320.32 463.946C4325.95 463.946 4329.82 460.781 4330.45 455.602H4326.51C4326.02 458.508 4323.54 460.36 4320.25 460.36C4315.82 460.36 4313.36 457.36 4313.36 451.899V449.602C4313.36 444.141 4315.82 441.117 4320.25 441.117C4323.54 441.117 4326.02 442.992 4326.51 445.969H4330.45ZM4339.1 463.477H4343.08V448.524C4343.08 444.188 4345.92 441.258 4350.11 441.258C4354.1 441.258 4355.97 443.438 4355.97 448.008V463.477H4359.96V447C4359.96 440.93 4356.96 437.602 4351.43 437.602C4347.54 437.602 4344.61 439.383 4343.27 442.547H4342.94V428.063H4339.1V463.477ZM4379.48 441C4383.58 441 4386.07 443.93 4386.07 448.781H4372.68C4372.68 443.906 4375.24 441 4379.48 441ZM4386.07 456.914C4385.36 459.141 4383 460.5 4379.79 460.5C4375.45 460.5 4372.68 457.5 4372.68 452.836V451.805H4390V449.321C4390 441.961 4386.11 437.578 4379.5 437.578C4373.04 437.578 4368.75 441.985 4368.75 448.688V452.508C4368.75 459.75 4372.8 463.946 4379.79 463.946C4385.13 463.946 4389.16 461.11 4389.93 456.914H4386.07ZM4419.47 445.969C4418.81 440.742 4414.97 437.555 4409.34 437.555C4402.43 437.555 4398.4 441.797 4398.4 449.086V452.414C4398.4 459.703 4402.43 463.946 4409.34 463.946C4414.97 463.946 4418.83 460.781 4419.47 455.602H4415.53C4415.04 458.508 4412.55 460.36 4409.27 460.36C4404.84 460.36 4402.38 457.36 4402.38 451.899V449.602C4402.38 444.141 4404.84 441.117 4409.27 441.117C4412.55 441.117 4415.04 442.992 4415.53 445.969H4419.47ZM4450.92 463.477L4440.35 448.102L4450.22 438.047H4445.39L4434.3 449.461H4434V428.063H4430.01V463.477H4434V454.219L4437.49 450.844L4446.18 463.477H4450.92ZM4479.32 463.477V460.172H4470.93V428.063H4458.32V431.367H4466.95V460.172H4458.25V463.477H4479.32ZM4498.33 431.813C4500.21 431.813 4501.64 430.406 4501.64 428.531C4501.64 426.68 4500.21 425.274 4498.33 425.274C4496.46 425.274 4495.03 426.68 4495.03 428.531C4495.03 430.406 4496.46 431.813 4498.33 431.813ZM4509 463.477V460.172H4500.58V438.047H4488V441.352H4496.65V460.172H4487.93V463.477H4509ZM4518.3 444.914C4518.3 448.524 4520.57 450.844 4525.17 451.899L4528.94 452.766C4532.18 453.492 4533.42 454.571 4533.42 456.586C4533.42 459.024 4531.22 460.594 4527.75 460.594C4524.47 460.594 4522.22 459.235 4521.63 456.891H4517.57C4518.02 461.25 4521.84 463.946 4527.61 463.946C4533.63 463.946 4537.54 460.899 4537.54 456.211C4537.54 452.531 4535.29 450.375 4530.35 449.25L4526.76 448.43C4523.57 447.727 4522.26 446.625 4522.26 444.68C4522.26 442.36 4524.35 440.86 4527.58 440.86C4530.56 440.86 4532.69 442.219 4533.16 444.446H4537C4536.54 440.203 4532.95 437.555 4527.65 437.555C4522.05 437.555 4518.3 440.508 4518.3 444.914ZM4552.9 431.227V438.117H4546.12V441.516H4552.9V455.906C4552.9 461.203 4555.82 463.594 4562.13 463.594C4563.35 463.594 4566.44 463.477 4567.07 463.36V459.985C4566.4 460.055 4563.84 460.125 4562.41 460.125C4558.82 460.125 4556.88 458.625 4556.88 455.86V441.516H4567.15V438.117H4556.83V431.227H4552.9Z" fill="#454F5B"/>
<rect x="4580" y="2179" width="80" height="80" fill="#FFC58B"/>
<rect x="4580" y="2299" width="80" height="80" fill="#FFC58B"/>
<rect x="4580" y="2419" width="80" height="80" fill="#FFC58B"/>
<path d="M4404.22 2290.35L4319.77 2557H4247.51V2361.08H4174L4265.26 2259L4404.22 2290.35Z" stroke="#446586" stroke-width="8" stroke-linecap="round" stroke-linejoin="round"/>
<circle r="6" transform="matrix(-1 0 0 1 4322.04 2332.78)" fill="#446586"/>
<circle r="6" transform="matrix(-1 0 0 1 4280.59 2323.26)" fill="#446586"/>
<path d="M4245 2669H4281V2872H4218L4245 2669Z" stroke="#446586" stroke-width="8" stroke-linecap="round" stroke-linejoin="round"/>
<path d="M4317 2669H4281V2872H4413C4407.48 2863.42 4383.7 2844.24 4331.39 2831.25L4317 2669Z" stroke="#446586" stroke-width="8" stroke-linecap="round" stroke-linejoin="round"/>
<path d="M4442 2198L4442 2581H4249V2629H4490L4490 2198L4442 2198Z" stroke="#446586" stroke-width="8" stroke-linecap="round"/>
<path d="M4644.43 2205.97L4618.97 2231.43L4602 2214.46" stroke="#446586" stroke-width="8" stroke-linecap="round" stroke-linejoin="round"/>
<path d="M4644.43 2323.97L4618.97 2349.43L4602 2332.46" stroke="#446586" stroke-width="8" stroke-linecap="round" stroke-linejoin="round"/>
</svg>
