<svg width="414" height="410" viewBox="0 0 414 410" fill="none" xmlns="http://www.w3.org/2000/svg">
<path d="M290.936 44.2995C287.128 35.2839 282.17 38.8437 277.13 41.049C269.097 47.7838 259.767 51.062 255.558 53.4894C252.19 55.4313 233.874 58.0519 225.137 59.1194C203.499 56.8823 192.433 76.5772 189.358 79.7523C186.897 82.2924 184.171 105.167 183.115 116.287C180.685 112.082 176.102 87.1627 174.115 75.2286C172.153 67.951 164.445 69.827 160.836 71.6746C107.774 103.675 125.013 143.156 125.296 146.125C125.676 150.11 128.101 161.092 129.756 165.977L111.122 127.672C106.196 118.179 109.658 109.362 112.005 106.14C111.662 96.808 103.642 95.3132 99.6752 95.7323C84.6931 102.27 76.7905 138.36 77.5827 147.012C78.4576 156.567 94.1826 199.104 98.7394 206.987C102.385 213.294 99.5713 213.281 97.7088 212.487C84.204 212.426 68.2967 185.068 62.0311 171.397C53.0392 155.84 46.4627 161.455 44.2984 166.207C20.2851 205.981 76.1157 288.004 90.9357 299.078C102.792 307.938 119.06 308.086 125.712 307.053C125.344 319.038 142.704 337.663 151.431 345.477C173.185 370.491 205.352 365.536 218.716 359.931C241.992 357.72 269.798 340.284 286.331 330.049C293.048 325.891 326.7 290.653 330.947 279.795C334.344 271.109 324.399 270.491 319.002 271.268C307.198 274.15 286.205 273.596 277.185 272.959C260.651 269.6 255.436 262.844 254.895 259.886C299.606 268.298 319.565 249.271 328.423 237.805C353.809 204.947 342.189 181.517 339.759 177.312C337.815 173.949 322.892 183.329 322.981 183.484C323.071 183.638 320.515 184.972 320.35 185.001C314.748 185.989 303.146 185.579 298.045 185.251C286.046 184.883 282.424 180.478 282.113 178.321C297.853 179.335 317.786 161.954 325.785 153.137C336.672 144.056 334.746 134.656 336.91 129.904C338.642 126.103 327.303 110.452 321.417 103.101C314.452 95.9062 308.476 102.155 306.359 106.179C302.362 115.771 295.4 121.608 292.418 123.328C276.693 128.892 282.155 120.137 280.859 116.68C279.821 113.915 293.376 101.52 300.283 95.6681C310.724 84.602 295.263 51.3809 290.936 44.2995Z" fill="#F3A361"/>
<path d="M235.652 152.559C237.448 149.842 240.957 136.654 242.486 130.399C237.626 121.99 217.184 168.348 207.57 192.578L206.051 189.95C207.522 181.814 186.007 150.823 175.066 136.344C168.213 127.403 167.299 135.451 167.699 140.592C163.056 153.921 189.055 186.438 202.634 201.03C202.13 206.226 180.763 231.161 178.822 235.083C177.268 238.222 171.376 244.049 168.624 246.57C167.504 238.807 155.438 218.904 149.545 209.923C141.039 195.207 131.369 189.806 127.597 188.944C117.944 203.548 156.98 243.86 162.704 249.772L162.836 249.908C168.06 255.304 163.183 260.218 159.256 258.279C155.329 256.339 104.116 246.631 98.4472 242.893C93.9123 239.902 91.7262 239.761 91.2001 240.065C88.1408 243.511 96.2035 252.362 100.617 256.357C105.011 261.531 107.42 260.843 125.152 266.033C139.339 270.185 150.805 267.123 154.765 265.073C152.66 266.287 126.417 296.136 123.808 302.545C121.721 307.673 124.356 307.134 125.935 306.224C148.701 290.993 161.893 274.977 165.272 272.328C167.976 270.208 168.908 270.931 169.037 271.558C172.409 284.189 181.526 295.188 185.663 299.109C190.057 304.283 211.251 308.178 213.882 306.661C216.512 305.144 226.005 304.575 223.879 300.896C222.178 297.953 210.835 293.703 205.376 291.946C201.57 290.216 194.315 284.543 191.163 281.922C188.668 276.634 177.314 268.887 171.949 265.674C192.914 248.539 210.305 219.964 216.38 207.819C247.799 223.335 265.184 218.215 273.321 217.727C279.83 217.337 277.624 213.844 275.708 212.146L257.286 204.551C247.86 199.896 227.679 201.069 218.767 202.238L230.982 169.968C245.373 169.377 265.367 157.847 258.098 150.126C250.829 142.406 233.406 155.957 235.652 152.559Z" fill="#F3DEE5"/>
</svg>
