<svg width="392" height="816" viewBox="0 0 392 816" fill="none" xmlns="http://www.w3.org/2000/svg">
<path d="M142.935 118.447C156.559 141.468 183.922 150.461 195.901 152.079C202.263 166.443 211.715 192.721 198.617 182.917C185.518 173.113 144.648 162.894 125.85 159.011C61.8828 152.46 70.1174 209.721 94.1549 227.463C113.385 241.656 176.085 230.759 205.031 223.536L203.427 307.999C208.884 312.084 215.129 317.66 196.448 307.284C173.097 294.315 82.4375 261.524 73.5842 313.509C66.5015 355.097 94.5583 372.609 113.167 374.515C155.442 378.843 184.117 370.275 198.062 360.341C198.114 386.597 196.78 437.079 191.029 428.968C183.842 418.829 149.099 402.342 101.414 397.46C63.2656 393.553 33.9639 413.419 38.1644 429.77C77.1765 507.813 168.696 474.872 179.164 475.944C187.538 476.801 170.112 529.867 160.352 556.293C157.38 550.896 142.344 537.054 105.985 524.868C60.5361 509.636 27.8695 533.151 32.8067 573.792C36.6316 605.278 106.121 611.468 144.282 609.89L78.6876 791.233L118.379 782.368L172.195 612.749C211.533 653.213 252.149 646.794 260.41 646.464C268.67 646.135 309.883 633.9 285.217 587.885C260.551 541.871 166.615 563.987 177.798 558.08C186.744 553.354 198.719 503.021 203.588 478.444C296.902 519.735 332.834 478.75 345.209 461.211C357.584 443.672 320.305 417.523 292.153 416.991C269.632 416.566 226.984 425.99 208.475 430.755L215.508 362.128C224.534 365.795 253.454 372.596 296.921 370.465C340.389 368.333 348.908 344.836 347.735 333.354C347.923 320.053 337.968 293.332 296.648 292.862C255.327 292.392 228.199 310.927 219.799 320.254L221.223 214.616C289.48 236.65 312.129 210.604 314.921 194.826C319.056 185.063 320.937 161.357 295.385 144.636C269.832 127.915 232.969 153.524 217.731 168.419L209.648 144.084C223.852 139.27 252.285 120.241 252.378 82.6384C252.493 35.6354 210.443 10.1728 173.912 11.1335C144.687 11.9021 133.049 39.076 130.883 52.5669C122.176 73.3022 135.29 105.126 142.935 118.447Z" fill="#61B379"/>
</svg>
