<svg width="95" height="80" viewBox="0 0 95 80" fill="none" xmlns="http://www.w3.org/2000/svg">
<path fill-rule="evenodd" clip-rule="evenodd" d="M50.7065 0.0506791C61.7031 0.654031 70.623 7.7822 78.4824 15.4972C86.4408 23.3094 94.5723 32.1222 94.7375 43.273C94.9043 54.5344 88.5175 65.3874 79.3176 71.8842C71.1886 77.6247 60.6158 73.4504 50.7065 74.3668C38.7661 75.4711 26.4833 83.9891 16.2641 77.7155C5.02287 70.8145 -0.635936 56.4453 0.0567889 43.273C0.724729 30.5721 10.031 20.5282 19.7057 12.2723C28.4893 4.77668 39.1767 -0.581926 50.7065 0.0506791Z" fill="#C4CDD5"/>
<mask id="mask0_566_138" style="mask-type:alpha" maskUnits="userSpaceOnUse" x="7" y="0" width="80" height="80">
<circle cx="47" cy="40" r="40" fill="#FC4F4E"/>
</mask>
<g mask="url(#mask0_566_138)">
<rect x="37.6667" y="59" width="18.6667" height="27" fill="white" stroke="#323232" stroke-width="1.33333"/>
<g style="mix-blend-mode:multiply">
<path d="M38.3335 59H55.6668V75.3333C48.0539 74.761 44.1119 73.856 38.3335 70V59Z" fill="#22268B" fill-opacity="0.2"/>
</g>
</g>
<rect x="21.3335" y="47" width="8" height="8" rx="4" fill="white" stroke="#323232" stroke-width="1.33333"/>
<rect x="64.3335" y="47" width="8" height="8" rx="4" fill="white" stroke="#323232" stroke-width="1.33333"/>
<path d="M25.6667 41C25.6667 36.0294 29.6962 32 34.6667 32H59.3334C64.304 32 68.3334 36.0294 68.3334 41V57C68.3334 61.9706 64.3017 66 59.3312 66C50.5542 66 43.446 66 34.669 66C29.6984 66 25.6667 61.9706 25.6667 57V41Z" fill="white" stroke="#323232" stroke-width="1.33333"/>
<circle cx="33.3333" cy="58.334" r="4" fill="url(#paint0_radial_566_138)"/>
<circle cx="61" cy="58.334" r="4" fill="url(#paint1_radial_566_138)"/>
<circle cx="37.3333" cy="51.334" r="2" fill="#323232"/>
<circle cx="57" cy="51.334" r="2" fill="#323232"/>
<path fill-rule="evenodd" clip-rule="evenodd" d="M66.6665 34.667C62.7741 39.4494 55.499 42.667 47.1665 42.667C38.834 42.667 31.5589 39.4494 27.6665 34.667C31.5589 29.8846 38.834 26.667 47.1665 26.667C55.499 26.667 62.7741 29.8846 66.6665 34.667Z" fill="#323232"/>
<path fill-rule="evenodd" clip-rule="evenodd" d="M28.2096 42.0216C32.943 45.9732 40.6983 47.7434 48.8775 46.1535C57.0566 44.5636 63.584 40.0172 66.4925 34.5802C61.759 30.6286 54.0038 28.8584 45.8246 30.4483C37.6455 32.0381 31.1181 36.5845 28.2096 42.0216Z" fill="#323232"/>
<path fill-rule="evenodd" clip-rule="evenodd" d="M27.5985 28.093C30.4873 34.7357 37.0299 39.9333 45.2598 41.2368C53.4898 42.5403 61.3183 39.6189 66.1184 34.194C63.2296 27.5512 56.687 22.3536 48.4571 21.0501C40.2272 19.7466 32.3986 22.6681 27.5985 28.093Z" fill="#323232"/>
<defs>
<radialGradient id="paint0_radial_566_138" cx="0" cy="0" r="1" gradientUnits="userSpaceOnUse" gradientTransform="translate(33.3333 58.334) rotate(90) scale(4)">
<stop stop-color="#FD6F00" stop-opacity="0.4"/>
<stop offset="1" stop-color="#FD6F00" stop-opacity="0"/>
</radialGradient>
<radialGradient id="paint1_radial_566_138" cx="0" cy="0" r="1" gradientUnits="userSpaceOnUse" gradientTransform="translate(61 58.334) rotate(90) scale(4)">
<stop stop-color="#FD6F00" stop-opacity="0.4"/>
<stop offset="1" stop-color="#FD6F00" stop-opacity="0"/>
</radialGradient>
</defs>
</svg>
