<svg width="526" height="552" viewBox="0 0 526 552" fill="none" xmlns="http://www.w3.org/2000/svg">
<path d="M221.446 184.725C222.938 191.071 233.599 213.696 239.632 224.922L242.464 213.43C245.323 203.722 265.663 179.404 275.845 168.136C299.946 144.73 329.661 134.111 350.916 154.179C372.17 174.247 350.43 203.437 343.945 217.621C337.46 231.805 302.278 260.559 292.538 267.738L274.885 280.75L302.612 318.617C302.935 316.498 306.696 308.835 319.159 295.135C334.738 278.01 373.858 248.234 405.238 237.329C436.618 226.424 452.269 247.8 451.598 269.924C450.926 292.048 422.801 309.958 412.453 317.586L372.886 346.751C360.798 362.243 383.668 371.717 389.928 380.267C396.189 388.818 427.705 394.739 436.401 401.495C443.357 406.9 439.365 417.491 436.5 422.111C431.471 429.579 421.332 426.185 414.412 425.226C407.038 425.396 388.001 435.707 377.466 438.77C364.746 450.027 344.19 458.179 337.614 461.146C303.091 476.718 291.692 465.843 287.663 455.647C284.006 434.269 306.472 417.333 318.162 411.538C328.672 402.85 349.989 401.243 347.753 398.189C345.517 395.136 324.684 393.564 315.305 394.835C307.802 395.852 255.075 415.408 229.65 425.058C192.501 441.909 169.309 426.278 162.357 416.356C135.525 379.711 187.241 359.458 203.316 353.252C216.176 348.286 250.357 342.401 265.84 340.079C258.198 330.666 192.434 338.39 160.508 343.429C117.078 347.605 93.2608 324.975 86.7806 313.138C82.7999 305.568 79.5322 287.11 98.3077 273.839C119.432 256.009 183.215 266.911 193.617 264.482C202.581 262.388 195.563 261.166 190.934 260.817C171.376 258.683 139.364 230.495 125.803 216.667C108.213 198.788 91.5566 170.364 92.736 153.585C97.4478 117.011 118.789 105.152 131.757 103.194C170.107 94.5966 197.807 130.679 201.994 135.117C206.18 139.554 219.954 178.379 221.446 184.725Z" fill="#4F7EDD"/>
<ellipse rx="3.7811" ry="4.54184" transform="matrix(0.804957 -0.593333 0.590769 0.806841 160.34 174.7)" fill="#F3DEE5"/>
<ellipse rx="3.7811" ry="6.81276" transform="matrix(0.804957 -0.593333 0.590769 0.806841 141.11 148.438)" fill="#F3DEE5"/>
<ellipse rx="4.53781" ry="6.62275" transform="matrix(0.955362 -0.292047 0.290848 0.957808 156.37 123.758)" fill="#F3DEE5"/>
<ellipse rx="4.53781" ry="6.62275" transform="matrix(0.955362 -0.292046 0.290848 0.957808 182.245 143.737)" fill="#F3DEE5"/>
<ellipse rx="4.53781" ry="6.62275" transform="matrix(0.955362 -0.292047 0.290848 0.957808 193.723 174.773)" fill="#F3DEE5"/>
<ellipse rx="4.53781" ry="6.62276" transform="matrix(0.955363 -0.292046 0.290849 0.957808 208.282 199.777)" fill="#F3DEE5"/>
<ellipse rx="4.53732" ry="6.62347" transform="matrix(0.785613 -0.618882 0.616209 0.787454 141.908 204.214)" fill="#F3DEE5"/>
<ellipse rx="4.53732" ry="6.62347" transform="matrix(0.785613 -0.618883 0.616209 0.787454 121.262 183.698)" fill="#F3DEE5"/>
<ellipse rx="4.53751" ry="6.6232" transform="matrix(0.909602 -0.413931 0.412177 0.911808 112.294 143.289)" fill="#F3DEE5"/>
<ellipse rx="4.53818" ry="6.62221" transform="matrix(0.982479 -0.17952 0.178813 0.985155 128.861 120.603)" fill="#F3DEE5"/>
<ellipse rx="4.53818" ry="6.62221" transform="matrix(0.982479 -0.17952 0.178813 0.985155 176.152 201.126)" fill="#F3DEE5"/>
<ellipse rx="4.53732" ry="6.81277" transform="matrix(0.804957 -0.593333 0.590769 0.806841 204.973 229.257)" fill="#F3DEE5"/>
<ellipse rx="4.53819" ry="6.81146" transform="matrix(0.464286 -0.8871 0.883604 0.465551 171.151 235.116)" fill="#F3DEE5"/>
<ellipse rx="4.53911" ry="6.0534" transform="matrix(0.25319 -0.969024 0.965598 0.253984 113.105 288.503)" fill="#F3DEE5"/>
<ellipse rx="4.71623" ry="6.0534" transform="matrix(0.25319 -0.969024 0.965598 0.253984 106.5 310.437)" fill="#F3DEE5"/>
<ellipse rx="4.71491" ry="6.84404" transform="matrix(0.556294 -0.832208 0.828802 0.557724 132.717 314.603)" fill="#F3DEE5"/>
<ellipse rx="4.71666" ry="6.8415" transform="matrix(0.161893 -0.988419 0.985107 0.162429 148.893 287.355)" fill="#F3DEE5"/>
<ellipse rx="4.71518" ry="6.84365" transform="matrix(0.485387 -0.875678 0.872195 0.486691 162.878 318.417)" fill="#F3DEE5"/>
<ellipse rx="4.71519" ry="6.84364" transform="matrix(0.483981 -0.876459 0.872975 0.485283 181.048 284.339)" fill="#F3DEE5"/>
<ellipse rx="4.71471" ry="6.84433" transform="matrix(0.614832 -0.78971 0.786411 0.616361 199.356 308.056)" fill="#F3DEE5"/>
<ellipse rx="5.4054" ry="8.39986" transform="matrix(0.684784 -0.729522 0.726417 0.686432 213.645 265.376)" fill="#F3DEE5"/>
<ellipse rx="4.27932" ry="6.53256" transform="matrix(0.936163 -0.349171 0.347714 0.938494 232.853 252.221)" fill="#F3DEE5"/>
<ellipse rx="4.28109" ry="6.52987" transform="matrix(0.988544 0.14 -0.13953 0.991823 263.415 211.69)" fill="#F3DEE5"/>
<ellipse rx="4.28109" ry="6.52987" transform="matrix(0.988544 0.14 -0.13953 0.991823 299.938 184.768)" fill="#F3DEE5"/>
<ellipse rx="4.28109" ry="6.52987" transform="matrix(0.988544 0.14 -0.13953 0.991823 314.697 158.844)" fill="#F3DEE5"/>
<ellipse rx="4.28109" ry="6.52987" transform="matrix(0.988544 0.14 -0.13953 0.991823 334.772 176.02)" fill="#F3DEE5"/>
<ellipse rx="4.28109" ry="6.52987" transform="matrix(0.988544 0.14 -0.139529 0.991823 323.59 206.831)" fill="#F3DEE5"/>
<ellipse rx="4.2811" ry="6.52988" transform="matrix(0.988544 0.139999 -0.13953 0.991823 293.304 214.109)" fill="#F3DEE5"/>
<ellipse rx="4.27921" ry="6.53275" transform="matrix(0.913128 -0.406031 0.404313 0.915349 276.611 248.528)" fill="#F3DEE5"/>
<ellipse rx="4.2792" ry="6.53274" transform="matrix(0.913128 -0.406031 0.404313 0.915349 252.759 277.394)" fill="#F3DEE5"/>
<ellipse rx="4.27959" ry="6.53216" transform="matrix(0.527733 -0.850702 0.847258 0.529114 233.851 295.093)" fill="#F3DEE5"/>
<ellipse rx="4.2792" ry="6.53275" transform="matrix(0.913128 -0.406031 0.404314 0.915349 256.037 312.593)" fill="#F3DEE5"/>
<ellipse rx="4.61877" ry="6.12388" transform="matrix(0.266377 -0.965473 0.969002 0.240637 180.108 378.295)" fill="#F3DEE5"/>
<ellipse rx="4.799" ry="6.12388" transform="matrix(0.266378 -0.965472 0.969002 0.240637 172.188 399.321)" fill="#F3DEE5"/>
<ellipse rx="4.78088" ry="6.94813" transform="matrix(0.128863 -0.993264 0.993246 0.101474 194.535 415.285)" fill="#F3DEE5"/>
<ellipse rx="4.76378" ry="6.97279" transform="matrix(-0.00631692 -1.00149 0.997976 -0.0327948 209.99 394.189)" fill="#F3DEE5"/>
<ellipse rx="4.78045" ry="6.94875" transform="matrix(0.125558 -0.993686 0.99358 0.0981607 238.732 407.252)" fill="#F3DEE5"/>
<ellipse rx="4.7632" ry="6.97362" transform="matrix(-0.0110872 -1.00144 0.997816 -0.0374901 212.297 370.397)" fill="#F3DEE5"/>
<ellipse rx="4.76522" ry="6.97074" transform="matrix(0.00535587 -1.00151 0.998275 -0.021293 257.422 379.962)" fill="#F3DEE5"/>
<ellipse rx="5.55578" ry="8.41019" transform="matrix(0.688355 -0.726134 0.729865 0.682742 291.388 360.436)" fill="#F3DEE5"/>
<ellipse rx="5.34724" ry="6.3917" transform="matrix(0.735885 -0.677615 0.679271 0.733393 313.413 345.889)" fill="#F3DEE5"/>
<ellipse rx="5.16283" ry="4.87372" transform="matrix(0.933599 -0.356025 0.340707 0.941082 331.044 327.249)" fill="#F3DEE5"/>
<ellipse rx="4.34501" ry="6.62306" transform="matrix(0.990416 0.126089 -0.15338 0.989776 334.279 298.646)" fill="#F3DEE5"/>
<ellipse rx="4.29482" ry="6.69879" transform="matrix(0.806087 0.590248 -0.601425 0.800024 363.93 271.145)" fill="#F3DEE5"/>
<ellipse rx="4.345" ry="6.62306" transform="matrix(0.990416 0.12609 -0.153379 0.989776 393.499 253.109)" fill="#F3DEE5"/>
<ellipse rx="4.345" ry="6.62306" transform="matrix(0.990416 0.12609 -0.153379 0.989776 410.271 263.326)" fill="#F3DEE5"/>
<ellipse rx="4.28834" ry="6.7084" transform="matrix(0.729027 0.683642 -0.689199 0.725328 402.126 300.361)" fill="#F3DEE5"/>
<ellipse rx="4.31029" ry="6.67564" transform="matrix(0.9026 0.427376 -0.446958 0.895997 435.047 274.214)" fill="#F3DEE5"/>
<ellipse rx="4.31028" ry="6.67563" transform="matrix(0.9026 0.427376 -0.446958 0.895997 427.435 249.64)" fill="#F3DEE5"/>
<ellipse rx="4.28836" ry="6.70842" transform="matrix(0.729027 0.683642 -0.689199 0.725328 374.93 318.526)" fill="#F3DEE5"/>
<ellipse rx="4.30193" ry="6.68817" transform="matrix(0.858869 0.509951 -0.52556 0.852053 384.865 283.934)" fill="#F3DEE5"/>
<ellipse rx="4.345" ry="6.62306" transform="matrix(0.990416 0.12609 -0.153379 0.989776 353.196 309.159)" fill="#F3DEE5"/>
<ellipse rx="4.33807" ry="6.63364" transform="matrix(0.98119 0.184639 -0.211358 0.979023 351.469 341.959)" fill="#F3DEE5"/>
<ellipse rx="4.36464" ry="6.59295" transform="matrix(0.340577 -0.941779 0.946901 0.316828 338.588 366.505)" fill="#F3DEE5"/>
<ellipse rx="4.34217" ry="6.62739" transform="matrix(0.152383 -0.98993 0.990543 0.125087 282.935 389.156)" fill="#F3DEE5"/>
<ellipse rx="5.82201" ry="6.62738" transform="matrix(0.152384 -0.98993 0.990543 0.125087 247.85 363.603)" fill="#F3DEE5"/>
<ellipse rx="4.63399" ry="6.62739" transform="matrix(0.152382 -0.98993 0.990543 0.125088 289.715 330.024)" fill="#F3DEE5"/>
<ellipse rx="4.36589" ry="6.59103" transform="matrix(0.351212 -0.93785 0.943167 0.327815 314.994 378.887)" fill="#F3DEE5"/>
<ellipse rx="5.29446" ry="6.81157" transform="matrix(0.482576 -0.877237 0.873752 0.483876 362.787 385.744)" fill="#F3DEE5"/>
<ellipse rx="5.29371" ry="6.81253" transform="matrix(0.684125 -0.730144 0.727037 0.685771 388.949 398.433)" fill="#F3DEE5"/>
<ellipse rx="5.29584" ry="6.80979" transform="matrix(0.212602 -0.978753 0.975373 0.213288 351.81 412.9)" fill="#F3DEE5"/>
<ellipse rx="5.29791" ry="6.80714" transform="matrix(-0.204103 -0.980174 0.977551 -0.204919 381.88 423.388)" fill="#F3DEE5"/>
<ellipse rx="5.56742" ry="5.2841" transform="matrix(0.85815 -0.512804 0.510597 0.860174 337.275 443.23)" fill="#F3DEE5"/>
<ellipse rx="7.32145" ry="5.62708" transform="matrix(0.99775 0.0373674 -0.0372346 1.00086 314.658 432.644)" fill="#F3DEE5"/>
<ellipse rx="7.37861" ry="5.67102" transform="matrix(0.99775 0.037368 -0.037234 1.00086 308.499 454.749)" fill="#F3DEE5"/>
</svg>
