<svg width="536" height="108" viewBox="0 0 536 108" fill="none" xmlns="http://www.w3.org/2000/svg">
<path d="M0 36H140" stroke="#919EAB" stroke-width="2"/>
<path d="M152 29V43" stroke="#637381" stroke-linecap="round" stroke-linejoin="round"/>
<path d="M145 36H159" stroke="#637381" stroke-linecap="round" stroke-linejoin="round"/>
<path d="M164 36H304" stroke="#919EAB" stroke-width="2"/>
<path d="M316 29V43" stroke="#637381" stroke-linecap="round" stroke-linejoin="round"/>
<path d="M309 36H323" stroke="#637381" stroke-linecap="round" stroke-linejoin="round"/>
<path d="M468.707 36.7071C469.098 36.3166 469.098 35.6834 468.707 35.2929L462.343 28.9289C461.953 28.5384 461.319 28.5384 460.929 28.9289C460.538 29.3195 460.538 29.9526 460.929 30.3431L466.586 36L460.929 41.6569C460.538 42.0474 460.538 42.6805 460.929 43.0711C461.319 43.4616 461.953 43.4616 462.343 43.0711L468.707 36.7071ZM328 37H468V35H328V37Z" fill="#919EAB"/>
<path d="M4.03125 60.6309H2.08594V64H1.06641V55.5449H3.90234C5.57812 55.5449 6.62695 56.5176 6.62695 58.0879C6.62695 59.1953 6.01172 60.1035 5.05078 60.4199L6.77344 64H5.60742L4.03125 60.6309ZM2.08594 56.4648V59.7578H3.76172C4.92773 59.7578 5.58398 59.166 5.58398 58.1113C5.58398 57.0625 4.93945 56.4648 3.80859 56.4648H2.08594ZM12.8438 62.3594H13.8105C13.6172 63.4082 12.6094 64.1172 11.2734 64.1172C9.52734 64.1172 8.51367 63.0684 8.51367 61.2578V60.3027C8.51367 58.627 9.58594 57.5254 11.2031 57.5254C12.8555 57.5254 13.8281 58.6211 13.8281 60.4609V61.082H9.49805V61.3398C9.49805 62.5059 10.1895 63.2559 11.2734 63.2559C12.0762 63.2559 12.668 62.916 12.8438 62.3594ZM11.1973 58.3809C10.1367 58.3809 9.49805 59.1074 9.49805 60.3262H12.8438C12.8438 59.1133 12.2227 58.3809 11.1973 58.3809ZM17.9004 64.1113C16.6875 64.1113 15.8789 63.3496 15.8789 62.1953C15.8789 61.0703 16.6875 60.4023 18.1348 60.3262L19.8809 60.2383V59.6641C19.8809 58.8672 19.3945 58.4277 18.5098 58.4277C17.7773 58.4277 17.2617 58.7383 17.0977 59.2832H16.1191C16.2363 58.2637 17.2207 57.5664 18.5215 57.5664C20.0156 57.5664 20.8711 58.3281 20.8711 59.6523V64.0059H19.9219V63.0508H19.8223C19.5176 63.7305 18.8262 64.1113 17.9004 64.1113ZM18.1875 63.2383C19.1484 63.2383 19.8809 62.5996 19.8809 61.75V61L18.2461 61.0762C17.3555 61.1172 16.8867 61.498 16.8867 62.1602C16.8867 62.8281 17.3848 63.2383 18.1875 63.2383ZM25.5645 64.1055C24.0938 64.1055 23.1328 63.0449 23.1328 61.4102V60.2266C23.1328 58.5977 24.0938 57.5371 25.5645 57.5371C26.4844 57.5371 27.1641 57.9297 27.4395 58.627H27.5449V55.1465H28.5586V64H27.5801V63.0273H27.4688C27.1406 63.7305 26.4727 64.1055 25.5645 64.1055ZM25.8574 63.1973C26.9004 63.1973 27.5742 62.4473 27.5742 61.2695V60.3555C27.5742 59.1836 26.9004 58.4336 25.8574 58.4336C24.8086 58.4336 24.1348 59.1836 24.1348 60.3555V61.2695C24.1348 62.4414 24.8086 63.1973 25.8574 63.1973Z" fill="#212B36"/>
<path d="M2.43164 75.7695C2.43164 73.7832 3.0293 72.0547 4.19531 70.7305H5.18555C3.97266 72.4355 3.46289 73.9297 3.46289 75.7695C3.46289 77.6094 3.97266 79.1035 5.18555 80.8086H4.19531C3.0293 79.4844 2.43164 77.7617 2.43164 75.7695ZM10.875 77.1523V79.2031H12.8438V80H8.61914V79.2031H9.90234V74.4395H8.49023V73.6426H10.8633V75.2656H10.9922C11.2266 74.0879 12.0176 73.4785 13.2422 73.4785C13.6055 73.4785 13.9512 73.5312 14.1621 73.6191V74.7383C13.8691 74.6328 13.459 74.5625 13.1133 74.5625C11.707 74.5625 10.875 75.5352 10.875 77.1523ZM20.2617 78.3594H21.2285C21.0352 79.4082 20.0273 80.1172 18.6914 80.1172C16.9453 80.1172 15.9316 79.0684 15.9316 77.2578V76.3027C15.9316 74.627 17.0039 73.5254 18.6211 73.5254C20.2734 73.5254 21.2461 74.6211 21.2461 76.4609V77.082H16.916V77.3398C16.916 78.5059 17.6074 79.2559 18.6914 79.2559C19.4941 79.2559 20.0859 78.916 20.2617 78.3594ZM18.6152 74.3809C17.5547 74.3809 16.916 75.1074 16.916 76.3262H20.2617C20.2617 75.1133 19.6406 74.3809 18.6152 74.3809ZM23.6484 75.3594C23.6484 74.2578 24.5859 73.5195 25.9863 73.5195C27.3105 73.5195 28.207 74.1816 28.3242 75.2422H27.3633C27.2461 74.6855 26.7129 74.3457 25.9688 74.3457C25.1602 74.3457 24.6387 74.7207 24.6387 75.3008C24.6387 75.7871 24.9668 76.0625 25.7637 76.2383L26.6602 76.4434C27.8965 76.7246 28.459 77.2637 28.459 78.1836C28.459 79.3555 27.4805 80.1172 25.9746 80.1172C24.5332 80.1172 23.5781 79.4434 23.4668 78.3535H24.4805C24.627 78.9395 25.1895 79.2793 26.0098 79.2793C26.877 79.2793 27.4277 78.8867 27.4277 78.2773C27.4277 77.7734 27.1172 77.5039 26.3086 77.3223L25.3652 77.1055C24.2168 76.8418 23.6484 76.2617 23.6484 75.3594ZM32.2969 71.9375H33.2812V73.6602H35.8594V74.5098H33.293V78.0957C33.293 78.7871 33.7793 79.1621 34.6758 79.1621C35.0332 79.1621 35.6719 79.1445 35.8418 79.127V79.9707C35.6836 80 34.9102 80.0293 34.6055 80.0293C33.0293 80.0293 32.2969 79.4316 32.2969 78.1074V74.5098H30.6035V73.6602H32.2969V71.9375ZM40.5469 77.1523V79.2031H42.5156V80H38.291V79.2031H39.5742V74.4395H38.1621V73.6426H40.5352V75.2656H40.6641C40.8984 74.0879 41.6895 73.4785 42.9141 73.4785C43.2773 73.4785 43.623 73.5312 43.834 73.6191V74.7383C43.541 74.6328 43.1309 74.5625 42.7852 74.5625C41.3789 74.5625 40.5469 75.5352 40.5469 77.1523ZM48.3281 72.084C47.8594 72.084 47.502 71.7324 47.502 71.2637C47.502 70.8008 47.8594 70.4492 48.3281 70.4492C48.7969 70.4492 49.1543 70.8008 49.1543 71.2637C49.1543 71.7324 48.7969 72.084 48.3281 72.084ZM50.9941 80H45.7266V79.1738H47.9062V74.4688H45.7441V73.6426H48.8906V79.1738H50.9941V80ZM58.2832 75.623H57.2988C57.1758 74.8789 56.5547 74.4102 55.7344 74.4102C54.627 74.4102 54.0117 75.166 54.0117 76.5312V77.1055C54.0117 78.4707 54.627 79.2207 55.7344 79.2207C56.5547 79.2207 57.1758 78.7578 57.2988 78.0312H58.2832C58.125 79.3262 57.1582 80.1172 55.752 80.1172C54.0234 80.1172 53.0156 79.0566 53.0156 77.2344V76.4023C53.0156 74.5801 54.0234 73.5195 55.752 73.5195C57.1582 73.5195 58.1191 74.3164 58.2832 75.623ZM61.9688 71.9375H62.9531V73.6602H65.5312V74.5098H62.9648V78.0957C62.9648 78.7871 63.4512 79.1621 64.3477 79.1621C64.7051 79.1621 65.3438 79.1445 65.5137 79.127V79.9707C65.3555 80 64.582 80.0293 64.2773 80.0293C62.7012 80.0293 61.9688 79.4316 61.9688 78.1074V74.5098H60.2754V73.6602H61.9688V71.9375ZM70.582 72.084C70.1133 72.084 69.7559 71.7324 69.7559 71.2637C69.7559 70.8008 70.1133 70.4492 70.582 70.4492C71.0508 70.4492 71.4082 70.8008 71.4082 71.2637C71.4082 71.7324 71.0508 72.084 70.582 72.084ZM73.248 80H67.9805V79.1738H70.1602V74.4688H67.998V73.6426H71.1445V79.1738H73.248V80ZM75.0176 73.6426H76.084L77.8594 78.9336H77.9355L79.6992 73.6426H80.7598L78.4395 80H77.3438L75.0176 73.6426ZM87.0234 78.3594H87.9902C87.7969 79.4082 86.7891 80.1172 85.4531 80.1172C83.707 80.1172 82.6934 79.0684 82.6934 77.2578V76.3027C82.6934 74.627 83.7656 73.5254 85.3828 73.5254C87.0352 73.5254 88.0078 74.6211 88.0078 76.4609V77.082H83.6777V77.3398C83.6777 78.5059 84.3691 79.2559 85.4531 79.2559C86.2559 79.2559 86.8477 78.916 87.0234 78.3594ZM85.377 74.3809C84.3164 74.3809 83.6777 75.1074 83.6777 76.3262H87.0234C87.0234 75.1133 86.4023 74.3809 85.377 74.3809ZM94.002 75.7695C94.002 77.7617 93.4043 79.4844 92.2383 80.8086H91.248C92.4609 79.1035 92.9707 77.6094 92.9707 75.7695C92.9707 73.9297 92.4609 72.4355 91.248 70.7305H92.2383C93.4043 72.0547 94.002 73.7832 94.002 75.7695Z" fill="#919EAB"/>
<path d="M167.744 56.7559H167.674L166.426 62H165.453L164 53.5449H164.979L165.488 56.9316L165.998 60.4531H166.062L167.246 55.4785H168.172L169.355 60.4531H169.42L169.93 56.9316L170.439 53.5449H171.418L169.965 62H168.992L167.744 56.7559ZM174.875 59.1523V61.2031H176.844V62H172.619V61.2031H173.902V56.4395H172.49V55.6426H174.863V57.2656H174.992C175.227 56.0879 176.018 55.4785 177.242 55.4785C177.605 55.4785 177.951 55.5312 178.162 55.6191V56.7383C177.869 56.6328 177.459 56.5625 177.113 56.5625C175.707 56.5625 174.875 57.5352 174.875 59.1523ZM182.656 54.084C182.188 54.084 181.83 53.7324 181.83 53.2637C181.83 52.8008 182.188 52.4492 182.656 52.4492C183.125 52.4492 183.482 52.8008 183.482 53.2637C183.482 53.7324 183.125 54.084 182.656 54.084ZM185.322 62H180.055V61.1738H182.234V56.4688H180.072V55.6426H183.219V61.1738H185.322V62ZM188.879 53.9375H189.863V55.6602H192.441V56.5098H189.875V60.0957C189.875 60.7871 190.361 61.1621 191.258 61.1621C191.615 61.1621 192.254 61.1445 192.424 61.127V61.9707C192.266 62 191.492 62.0293 191.188 62.0293C189.611 62.0293 188.879 61.4316 188.879 60.1074V56.5098H187.186V55.6602H188.879V53.9375ZM199.098 60.3594H200.064C199.871 61.4082 198.863 62.1172 197.527 62.1172C195.781 62.1172 194.768 61.0684 194.768 59.2578V58.3027C194.768 56.627 195.84 55.5254 197.457 55.5254C199.109 55.5254 200.082 56.6211 200.082 58.4609V59.082H195.752V59.3398C195.752 60.5059 196.443 61.2559 197.527 61.2559C198.33 61.2559 198.922 60.916 199.098 60.3594ZM197.451 56.3809C196.391 56.3809 195.752 57.1074 195.752 58.3262H199.098C199.098 57.1133 198.477 56.3809 197.451 56.3809Z" fill="#212B36"/>
<path d="M333.895 62L333.162 59.5742H330.221L329.482 62H328.434L331.158 53.5449H332.26L334.984 62H333.895ZM331.68 54.7871L330.49 58.6895H332.893L331.709 54.7871H331.68ZM338.729 62.1055C337.258 62.1055 336.297 61.0449 336.297 59.4102V58.2266C336.297 56.5977 337.258 55.5371 338.729 55.5371C339.648 55.5371 340.328 55.9297 340.604 56.627H340.709V53.1465H341.723V62H340.744V61.0273H340.633C340.305 61.7305 339.637 62.1055 338.729 62.1055ZM339.021 61.1973C340.064 61.1973 340.738 60.4473 340.738 59.2695V58.3555C340.738 57.1836 340.064 56.4336 339.021 56.4336C337.973 56.4336 337.299 57.1836 337.299 58.3555V59.2695C337.299 60.4414 337.973 61.1973 339.021 61.1973ZM349.609 57.3184V62H348.713V57.6113C348.713 56.8379 348.432 56.4336 347.898 56.4336C347.342 56.4336 347.002 56.9199 347.002 57.7109V62H346.111V57.6055C346.111 56.8379 345.83 56.4336 345.291 56.4336C344.729 56.4336 344.377 56.9199 344.377 57.7109V62H343.48V55.6426H344.371V56.5391H344.477C344.635 55.9004 345.092 55.5254 345.689 55.5254C346.287 55.5254 346.709 55.8945 346.844 56.5215H346.949C347.113 55.9121 347.623 55.5254 348.262 55.5254C349.146 55.5254 349.609 56.1406 349.609 57.3184ZM354.074 54.084C353.605 54.084 353.248 53.7324 353.248 53.2637C353.248 52.8008 353.605 52.4492 354.074 52.4492C354.543 52.4492 354.9 52.8008 354.9 53.2637C354.9 53.7324 354.543 54.084 354.074 54.084ZM356.74 62H351.473V61.1738H353.652V56.4688H351.49V55.6426H354.637V61.1738H356.74V62ZM358.779 62V55.6426H359.734V56.7617H359.816C360.156 55.9707 360.883 55.5254 361.85 55.5254C363.232 55.5254 363.982 56.3516 363.982 57.875V62H362.986V58.127C362.986 56.9785 362.518 56.4395 361.527 56.4395C360.479 56.4395 359.775 57.1719 359.775 58.2559V62H358.779Z" fill="#212B36"/>
</svg>
