<svg width="536" height="280" viewBox="0 0 536 280" fill="none" xmlns="http://www.w3.org/2000/svg">
<path d="M2.52539 40H1.48828V31.5449H6.47461V32.4941H2.52539V35.3945H6.13477V36.3145H2.52539V40ZM13.7285 33.6426V40H12.7734V38.8809H12.6914C12.3516 39.6719 11.625 40.1172 10.6582 40.1172C9.27539 40.1172 8.52539 39.291 8.52539 37.7676V33.6426H9.52148V37.5156C9.52148 38.6641 9.99023 39.2031 10.9805 39.2031C12.0293 39.2031 12.7324 38.4707 12.7324 37.3867V33.6426H13.7285ZM21.3223 40H16.0547V39.1738H18.2285V31.9727H16.0723V31.1465H19.2246V39.1738H21.3223V40ZM28.7402 40H23.4727V39.1738H25.6465V31.9727H23.4902V31.1465H26.6426V39.1738H28.7402V40ZM41.1973 33.5371C42.668 33.5371 43.6289 34.5977 43.6289 36.2324V37.416C43.6289 39.0449 42.668 40.1055 41.1973 40.1055C40.2773 40.1055 39.6035 39.7129 39.3281 39.0156H39.2168V42.1445H38.2031V33.6426H39.1875V34.6152H39.293C39.627 33.9121 40.2891 33.5371 41.1973 33.5371ZM40.9102 34.4512C39.8613 34.4512 39.1934 35.2012 39.1934 36.373V37.2871C39.1934 38.4648 39.8613 39.2148 40.9102 39.2148C41.959 39.2148 42.627 38.459 42.627 37.2871V36.373C42.627 35.2012 41.959 34.4512 40.9102 34.4512ZM49.9336 38.3594H50.9004C50.707 39.4082 49.6992 40.1172 48.3633 40.1172C46.6172 40.1172 45.6035 39.0684 45.6035 37.2578V36.3027C45.6035 34.627 46.6758 33.5254 48.293 33.5254C49.9453 33.5254 50.918 34.6211 50.918 36.4609V37.082H46.5879V37.3398C46.5879 38.5059 47.2793 39.2559 48.3633 39.2559C49.166 39.2559 49.7578 38.916 49.9336 38.3594ZM48.2871 34.3809C47.2266 34.3809 46.5879 35.1074 46.5879 36.3262H49.9336C49.9336 35.1133 49.3125 34.3809 48.2871 34.3809ZM55.3828 37.1523V39.2031H57.3516V40H53.127V39.2031H54.4102V34.4395H52.998V33.6426H55.3711V35.2656H55.5C55.7344 34.0879 56.5254 33.4785 57.75 33.4785C58.1133 33.4785 58.459 33.5312 58.6699 33.6191V34.7383C58.377 34.6328 57.9668 34.5625 57.6211 34.5625C56.2148 34.5625 55.3828 35.5352 55.3828 37.1523ZM66.1172 35.3184V40H65.2207V35.6113C65.2207 34.8379 64.9395 34.4336 64.4062 34.4336C63.8496 34.4336 63.5098 34.9199 63.5098 35.7109V40H62.6191V35.6055C62.6191 34.8379 62.3379 34.4336 61.7988 34.4336C61.2363 34.4336 60.8848 34.9199 60.8848 35.7109V40H59.9883V33.6426H60.8789V34.5391H60.9844C61.1426 33.9004 61.5996 33.5254 62.1973 33.5254C62.7949 33.5254 63.2168 33.8945 63.3516 34.5215H63.457C63.6211 33.9121 64.1309 33.5254 64.7695 33.5254C65.6543 33.5254 66.1172 34.1406 66.1172 35.3184ZM70.582 32.084C70.1133 32.084 69.7559 31.7324 69.7559 31.2637C69.7559 30.8008 70.1133 30.4492 70.582 30.4492C71.0508 30.4492 71.4082 30.8008 71.4082 31.2637C71.4082 31.7324 71.0508 32.084 70.582 32.084ZM73.248 40H67.9805V39.1738H70.1602V34.4688H67.998V33.6426H71.1445V39.1738H73.248V40ZM75.5742 35.3594C75.5742 34.2578 76.5117 33.5195 77.9121 33.5195C79.2363 33.5195 80.1328 34.1816 80.25 35.2422H79.2891C79.1719 34.6855 78.6387 34.3457 77.8945 34.3457C77.0859 34.3457 76.5645 34.7207 76.5645 35.3008C76.5645 35.7871 76.8926 36.0625 77.6895 36.2383L78.5859 36.4434C79.8223 36.7246 80.3848 37.2637 80.3848 38.1836C80.3848 39.3555 79.4062 40.1172 77.9004 40.1172C76.459 40.1172 75.5039 39.4434 75.3926 38.3535H76.4062C76.5527 38.9395 77.1152 39.2793 77.9355 39.2793C78.8027 39.2793 79.3535 38.8867 79.3535 38.2773C79.3535 37.7734 79.043 37.5039 78.2344 37.3223L77.291 37.1055C76.1426 36.8418 75.5742 36.2617 75.5742 35.3594ZM82.9922 35.3594C82.9922 34.2578 83.9297 33.5195 85.3301 33.5195C86.6543 33.5195 87.5508 34.1816 87.668 35.2422H86.707C86.5898 34.6855 86.0566 34.3457 85.3125 34.3457C84.5039 34.3457 83.9824 34.7207 83.9824 35.3008C83.9824 35.7871 84.3105 36.0625 85.1074 36.2383L86.0039 36.4434C87.2402 36.7246 87.8027 37.2637 87.8027 38.1836C87.8027 39.3555 86.8242 40.1172 85.3184 40.1172C83.877 40.1172 82.9219 39.4434 82.8105 38.3535H83.8242C83.9707 38.9395 84.5332 39.2793 85.3535 39.2793C86.2207 39.2793 86.7715 38.8867 86.7715 38.2773C86.7715 37.7734 86.4609 37.5039 85.6523 37.3223L84.709 37.1055C83.5605 36.8418 82.9922 36.2617 82.9922 35.3594ZM92.8359 32.084C92.3672 32.084 92.0098 31.7324 92.0098 31.2637C92.0098 30.8008 92.3672 30.4492 92.8359 30.4492C93.3047 30.4492 93.6621 30.8008 93.6621 31.2637C93.6621 31.7324 93.3047 32.084 92.8359 32.084ZM95.502 40H90.2344V39.1738H92.4141V34.4688H90.252V33.6426H93.3984V39.1738H95.502V40ZM100.143 40.1172C98.4609 40.1172 97.3887 39.0215 97.3887 37.3047V36.3438C97.3887 34.627 98.4609 33.5312 100.143 33.5312C101.824 33.5312 102.896 34.627 102.896 36.3438V37.3047C102.896 39.0215 101.824 40.1172 100.143 40.1172ZM100.143 34.4102C99.0527 34.4102 98.373 35.1836 98.373 36.4316V37.2109C98.373 38.4648 99.0527 39.2324 100.143 39.2324C101.232 39.2324 101.912 38.4648 101.912 37.2109V36.4316C101.912 35.1836 101.232 34.4102 100.143 34.4102ZM104.959 40V33.6426H105.914V34.7617H105.996C106.336 33.9707 107.062 33.5254 108.029 33.5254C109.412 33.5254 110.162 34.3516 110.162 35.875V40H109.166V36.127C109.166 34.9785 108.697 34.4395 107.707 34.4395C106.658 34.4395 105.955 35.1719 105.955 36.2559V40H104.959ZM112.664 35.3594C112.664 34.2578 113.602 33.5195 115.002 33.5195C116.326 33.5195 117.223 34.1816 117.34 35.2422H116.379C116.262 34.6855 115.729 34.3457 114.984 34.3457C114.176 34.3457 113.654 34.7207 113.654 35.3008C113.654 35.7871 113.982 36.0625 114.779 36.2383L115.676 36.4434C116.912 36.7246 117.475 37.2637 117.475 38.1836C117.475 39.3555 116.496 40.1172 114.99 40.1172C113.549 40.1172 112.594 39.4434 112.482 38.3535H113.496C113.643 38.9395 114.205 39.2793 115.025 39.2793C115.893 39.2793 116.443 38.8867 116.443 38.2773C116.443 37.7734 116.133 37.5039 115.324 37.3223L114.381 37.1055C113.232 36.8418 112.664 36.2617 112.664 35.3594Z" fill="#212B36"/>
<path d="M0 56H25" stroke="#919EAB" stroke-width="2"/>
<path d="M25 56H50" stroke="#919EAB" stroke-width="2"/>
<path d="M50 56H75" stroke="#919EAB" stroke-width="2"/>
<path d="M75 56H100" stroke="#919EAB" stroke-width="2"/>
<path d="M100 56H125" stroke="#919EAB" stroke-width="2"/>
<path d="M125 56H150" stroke="#919EAB" stroke-width="2"/>
<path d="M152 56H177" stroke="#919EAB" stroke-width="2"/>
<path d="M177 56H202" stroke="#919EAB" stroke-width="2"/>
<path d="M202 56H227" stroke="#919EAB" stroke-width="2"/>
<path d="M227 56H252" stroke="#919EAB" stroke-width="2"/>
<path d="M252 56H277" stroke="#919EAB" stroke-width="2"/>
<path d="M277 56H302" stroke="#919EAB" stroke-width="2"/>
<path d="M302 56H327" stroke="#919EAB" stroke-width="2"/>
<path d="M329 56H354" stroke="#919EAB" stroke-width="2"/>
<path d="M354 56H379" stroke="#919EAB" stroke-width="2"/>
<path d="M379 56H404" stroke="#919EAB" stroke-width="2"/>
<path d="M404 56H429" stroke="#919EAB" stroke-width="2"/>
<path d="M429 56H454" stroke="#919EAB" stroke-width="2"/>
<path d="M479.707 56.7071C480.098 56.3166 480.098 55.6834 479.707 55.2929L473.343 48.9289C472.953 48.5384 472.319 48.5384 471.929 48.9289C471.538 49.3195 471.538 49.9526 471.929 50.3431L477.586 56L471.929 61.6569C471.538 62.0474 471.538 62.6805 471.929 63.0711C472.319 63.4616 472.953 63.4616 473.343 63.0711L479.707 56.7071ZM454 57H479V55H454V57Z" fill="#919EAB"/>
<path d="M4.01367 81.2109H2.16797V84H1.19531V76.916H3.89062C5.48438 76.916 6.48047 77.7363 6.48047 79.0664C6.48047 79.9863 5.89453 80.7539 4.98633 81.0234L6.62109 84H5.50781L4.01367 81.2109ZM2.16797 77.7363V80.4316H3.75586C4.86914 80.4316 5.49023 79.9395 5.49023 79.084C5.49023 78.2285 4.875 77.7363 3.80273 77.7363H2.16797ZM13.623 83.1445V84H8.88867V76.916H13.623V77.7715H9.87305V79.9863H13.418V80.8008H9.87305V83.1445H13.623ZM20.625 84L19.9336 82.0137H17.1211L16.4297 84H15.4336L18.0176 76.916H19.0723L21.6562 84H20.625ZM18.5156 78.0059L17.3965 81.2168H19.6582L18.5449 78.0059H18.5156ZM23.3262 76.916H25.582C27.8555 76.916 29.0039 78.1055 29.0039 80.4375C29.0039 82.8047 27.8555 84 25.582 84H23.3262V76.916ZM24.3105 77.7715V83.1445H25.4883C27.1934 83.1445 27.9961 82.2891 27.9961 80.4492C27.9961 78.6328 27.1875 77.7715 25.4883 77.7715H24.3105Z" fill="#919EAB"/>
<path d="M158.744 77.6406H158.674L157.49 82H156.564L155.188 74.916H156.113L156.6 77.6992L157.08 80.6289H157.145L158.264 76.5332H159.154L160.273 80.6289H160.338L160.818 77.6992L161.305 74.916H162.23L160.854 82H159.928L158.744 77.6406ZM166.432 79.2109H164.586V82H163.613V74.916H166.309C167.902 74.916 168.898 75.7363 168.898 77.0664C168.898 77.9863 168.312 78.7539 167.404 79.0234L169.039 82H167.926L166.432 79.2109ZM164.586 75.7363V78.4316H166.174C167.287 78.4316 167.908 77.9395 167.908 77.084C167.908 76.2285 167.293 75.7363 166.221 75.7363H164.586ZM175.66 82H171.43V81.168H173.053V75.7539H171.43V74.916H175.66V75.7539H174.037V81.168H175.66V82ZM181.455 82H180.471V75.7715H178.051V74.916H183.875V75.7715H181.455V82ZM190.877 81.1445V82H186.143V74.916H190.877V75.7715H187.127V77.9863H190.672V78.8008H187.127V81.1445H190.877Z" fill="#919EAB"/>
<path d="M335.789 82L335.098 80.0137H332.285L331.594 82H330.598L333.182 74.916H334.236L336.82 82H335.789ZM333.68 76.0059L332.561 79.2168H334.822L333.709 76.0059H333.68ZM338.49 74.916H340.746C343.02 74.916 344.168 76.1055 344.168 78.4375C344.168 80.8047 343.02 82 340.746 82H338.49V74.916ZM339.475 75.7715V81.1445H340.652C342.357 81.1445 343.16 80.2891 343.16 78.4492C343.16 76.6328 342.352 75.7715 340.652 75.7715H339.475ZM346.523 79.3398V82H345.65V74.916H346.746L348.51 79.2695H348.586L350.338 74.916H351.439V82H350.566V79.3398L350.619 76.4746H350.543L348.932 80.3359H348.158L346.547 76.4746H346.471L346.523 79.3398ZM358.078 82H353.848V81.168H355.471V75.7539H353.848V74.916H358.078V75.7539H356.455V81.168H358.078V82ZM361.594 82H360.709V74.916H361.652L365.086 80.3125H365.168V74.916H366.053V82H365.121L361.67 76.5859H361.594V82Z" fill="#919EAB"/>
<path d="M4.03125 140.631H2.08594V144H1.06641V135.545H3.90234C5.57812 135.545 6.62695 136.518 6.62695 138.088C6.62695 139.195 6.01172 140.104 5.05078 140.42L6.77344 144H5.60742L4.03125 140.631ZM2.08594 136.465V139.758H3.76172C4.92773 139.758 5.58398 139.166 5.58398 138.111C5.58398 137.062 4.93945 136.465 3.80859 136.465H2.08594ZM12.8438 142.359H13.8105C13.6172 143.408 12.6094 144.117 11.2734 144.117C9.52734 144.117 8.51367 143.068 8.51367 141.258V140.303C8.51367 138.627 9.58594 137.525 11.2031 137.525C12.8555 137.525 13.8281 138.621 13.8281 140.461V141.082H9.49805V141.34C9.49805 142.506 10.1895 143.256 11.2734 143.256C12.0762 143.256 12.668 142.916 12.8438 142.359ZM11.1973 138.381C10.1367 138.381 9.49805 139.107 9.49805 140.326H12.8438C12.8438 139.113 12.2227 138.381 11.1973 138.381ZM17.9004 144.111C16.6875 144.111 15.8789 143.35 15.8789 142.195C15.8789 141.07 16.6875 140.402 18.1348 140.326L19.8809 140.238V139.664C19.8809 138.867 19.3945 138.428 18.5098 138.428C17.7773 138.428 17.2617 138.738 17.0977 139.283H16.1191C16.2363 138.264 17.2207 137.566 18.5215 137.566C20.0156 137.566 20.8711 138.328 20.8711 139.652V144.006H19.9219V143.051H19.8223C19.5176 143.73 18.8262 144.111 17.9004 144.111ZM18.1875 143.238C19.1484 143.238 19.8809 142.6 19.8809 141.75V141L18.2461 141.076C17.3555 141.117 16.8867 141.498 16.8867 142.16C16.8867 142.828 17.3848 143.238 18.1875 143.238ZM25.5645 144.105C24.0938 144.105 23.1328 143.045 23.1328 141.41V140.227C23.1328 138.598 24.0938 137.537 25.5645 137.537C26.4844 137.537 27.1641 137.93 27.4395 138.627H27.5449V135.146H28.5586V144H27.5801V143.027H27.4688C27.1406 143.73 26.4727 144.105 25.5645 144.105ZM25.8574 143.197C26.9004 143.197 27.5742 142.447 27.5742 141.27V140.355C27.5742 139.184 26.9004 138.434 25.8574 138.434C24.8086 138.434 24.1348 139.184 24.1348 140.355V141.27C24.1348 142.441 24.8086 143.197 25.8574 143.197ZM41.2559 140.713V143.361H40.3418V140.713H37.6758V139.787H40.3418V137.133H41.2559V139.787H43.9219V140.713H41.2559Z" fill="#212B36"/>
<path d="M0 160H25" stroke="#919EAB" stroke-width="2"/>
<path d="M25 160H50" stroke="#919EAB" stroke-width="2"/>
<path d="M50 160H75" stroke="#919EAB" stroke-width="2"/>
<path d="M75 160H100" stroke="#919EAB" stroke-width="2"/>
<path d="M100 160H125" stroke="#919EAB" stroke-width="2"/>
<path d="M125 160H150" stroke="#919EAB" stroke-width="2"/>
<path d="M152 160H164" stroke="#919EAB" stroke-width="2"/>
<path d="M3.74414 222.756H3.67383L2.42578 228H1.45312L0 219.545H0.978516L1.48828 222.932L1.99805 226.453H2.0625L3.24609 221.479H4.17188L5.35547 226.453H5.41992L5.92969 222.932L6.43945 219.545H7.41797L5.96484 228H4.99219L3.74414 222.756ZM10.875 225.152V227.203H12.8438V228H8.61914V227.203H9.90234V222.439H8.49023V221.643H10.8633V223.266H10.9922C11.2266 222.088 12.0176 221.479 13.2422 221.479C13.6055 221.479 13.9512 221.531 14.1621 221.619V222.738C13.8691 222.633 13.459 222.562 13.1133 222.562C11.707 222.562 10.875 223.535 10.875 225.152ZM18.6562 220.084C18.1875 220.084 17.8301 219.732 17.8301 219.264C17.8301 218.801 18.1875 218.449 18.6562 218.449C19.125 218.449 19.4824 218.801 19.4824 219.264C19.4824 219.732 19.125 220.084 18.6562 220.084ZM21.3223 228H16.0547V227.174H18.2344V222.469H16.0723V221.643H19.2188V227.174H21.3223V228ZM24.8789 219.938H25.8633V221.66H28.4414V222.51H25.875V226.096C25.875 226.787 26.3613 227.162 27.2578 227.162C27.6152 227.162 28.2539 227.145 28.4238 227.127V227.971C28.2656 228 27.4922 228.029 27.1875 228.029C25.6113 228.029 24.8789 227.432 24.8789 226.107V222.51H23.1855V221.66H24.8789V219.938ZM35.0977 226.359H36.0645C35.8711 227.408 34.8633 228.117 33.5273 228.117C31.7812 228.117 30.7676 227.068 30.7676 225.258V224.303C30.7676 222.627 31.8398 221.525 33.457 221.525C35.1094 221.525 36.082 222.621 36.082 224.461V225.082H31.752V225.34C31.752 226.506 32.4434 227.256 33.5273 227.256C34.3301 227.256 34.9219 226.916 35.0977 226.359ZM33.4512 222.381C32.3906 222.381 31.752 223.107 31.752 224.326H35.0977C35.0977 223.113 34.4766 222.381 33.4512 222.381ZM48.6738 224.713V227.361H47.7598V224.713H45.0938V223.787H47.7598V221.133H48.6738V223.787H51.3398V224.713H48.6738Z" fill="#212B36"/>
<path d="M0 244H25" stroke="#919EAB" stroke-width="2"/>
<path d="M25 244H50" stroke="#919EAB" stroke-width="2"/>
<path d="M50 244H75" stroke="#919EAB" stroke-width="2"/>
<path d="M75 244H100" stroke="#919EAB" stroke-width="2"/>
<path d="M100 244H125" stroke="#919EAB" stroke-width="2"/>
<path d="M125 244H150" stroke="#919EAB" stroke-width="2"/>
<path d="M152 244H177" stroke="#919EAB" stroke-width="2"/>
<path d="M177 244H202" stroke="#919EAB" stroke-width="2"/>
<path d="M202 244H227" stroke="#919EAB" stroke-width="2"/>
<path d="M227 244H252" stroke="#919EAB" stroke-width="2"/>
<path d="M252 244H277" stroke="#919EAB" stroke-width="2"/>
<path d="M277 244H302" stroke="#919EAB" stroke-width="2"/>
<path d="M302 244H327" stroke="#919EAB" stroke-width="2"/>
<path d="M329 244H341" stroke="#919EAB" stroke-width="2"/>
</svg>
