<svg width="541" height="172" viewBox="0 0 541 172" fill="none" xmlns="http://www.w3.org/2000/svg">
<g clip-path="url(#clip0_3269_18698)">
<path d="M42.0013 93.9995C25.3346 98.9995 25.3346 85.6661 18.668 83.9995M65.3346 103.999V91.0995C65.4597 89.51 65.2449 87.9122 64.7047 86.4121C64.1644 84.9121 63.3111 83.5442 62.2013 82.3995C72.668 81.2328 83.668 77.2661 83.668 59.0661C83.6671 54.4122 81.8769 49.9368 78.668 46.5661C80.1875 42.4945 80.08 37.994 78.368 33.9995C78.368 33.9995 74.4346 32.8328 65.3346 38.9328C57.6947 36.8622 49.6413 36.8622 42.0013 38.9328C32.9013 32.8328 28.968 33.9995 28.968 33.9995C27.2559 37.994 27.1484 42.4945 28.668 46.5661C25.4351 49.9618 23.643 54.4777 23.668 59.1661C23.668 77.2328 34.668 81.1995 45.1346 82.4995C44.038 83.6327 43.1922 84.9842 42.6523 86.4659C42.1125 87.9476 41.8907 89.5264 42.0013 91.0995V103.999" stroke="#2088FF" stroke-width="2" stroke-linecap="round" stroke-linejoin="round"/>
</g>
<path d="M35.2188 127.41V126.584H33.2676V125.699H36.2617V127.498C36.2617 129.086 35.0664 130.176 33.3613 130.176C31.375 130.176 30.2266 128.84 30.2266 126.525V125.02C30.2266 122.705 31.375 121.369 33.3613 121.369C35.1191 121.369 36.2207 122.441 36.2617 124.193H35.2188C35.1719 123.092 34.4219 122.348 33.3438 122.348C31.9785 122.348 31.2695 123.268 31.2695 125.02V126.525C31.2695 128.277 31.9844 129.197 33.3496 129.197C34.5039 129.197 35.2188 128.518 35.2188 127.41ZM40.7383 122.084C40.2695 122.084 39.9121 121.732 39.9121 121.264C39.9121 120.801 40.2695 120.449 40.7383 120.449C41.207 120.449 41.5645 120.801 41.5645 121.264C41.5645 121.732 41.207 122.084 40.7383 122.084ZM43.4043 130H38.1367V129.174H40.3164V124.469H38.1543V123.643H41.3008V129.174H43.4043V130ZM46.9609 121.938H47.9453V123.66H50.5234V124.51H47.957V128.096C47.957 128.787 48.4434 129.162 49.3398 129.162C49.6973 129.162 50.3359 129.145 50.5059 129.127V129.971C50.3477 130 49.5742 130.029 49.2695 130.029C47.6934 130.029 46.9609 129.432 46.9609 128.107V124.51H45.2676V123.66H46.9609V121.938ZM58.2754 130H57.25V126.156H53.6758V130H52.6504V121.545H53.6758V125.207H57.25V121.545H58.2754V130ZM65.4824 123.643V130H64.5273V128.881H64.4453C64.1055 129.672 63.3789 130.117 62.4121 130.117C61.0293 130.117 60.2793 129.291 60.2793 127.768V123.643H61.2754V127.516C61.2754 128.664 61.7441 129.203 62.7344 129.203C63.7832 129.203 64.4863 128.471 64.4863 127.387V123.643H65.4824ZM70.6973 130.105C69.7891 130.105 69.1211 129.73 68.793 129.027H68.6816V130H67.7031V121.146H68.7168V124.627H68.8223C69.1035 123.93 69.7773 123.537 70.6973 123.537C72.168 123.537 73.1289 124.598 73.1289 126.227V127.41C73.1289 129.045 72.168 130.105 70.6973 130.105ZM70.4043 129.197C71.459 129.197 72.127 128.441 72.127 127.27V126.355C72.127 125.184 71.459 124.434 70.4043 124.434C69.3613 124.434 68.6934 125.184 68.6934 126.355V127.27C68.6934 128.447 69.3613 129.197 70.4043 129.197Z" fill="#637381"/>
<path d="M125.686 67.0693V71.042H124.314V67.0693H120.315V65.6807H124.314V61.6992H125.686V65.6807H129.685V67.0693H125.686Z" fill="#637381"/>
<path fill-rule="evenodd" clip-rule="evenodd" d="M193.202 85.151V80.8258C193.202 80.8258 193.189 79.6589 193.831 78.673C192.936 78.6066 187.296 78.0423 187.296 71.3507C187.296 68.7643 188.854 67.1353 188.854 67.1353C188.854 67.1353 188.437 65.6606 188.604 63.968C188.827 61.7177 192.992 64.2722 192.992 64.2722C192.992 64.2722 196.25 63.0703 201.033 64.2722C201.456 63.7558 205.176 61.3724 205.558 63.8159C205.677 64.5718 205.399 67.1353 205.399 67.1353C205.399 67.1353 206.718 68.4728 206.727 71.3924C206.746 77.1653 200.259 78.673 200.259 78.673C200.259 78.673 200.871 79.7864 200.848 80.8258C200.825 81.8652 200.848 85.2745 200.848 85.2745C200.848 85.2745 207.052 83.3762 210.031 78.5509C211.456 76.2439 212.47 73.5605 212.47 70.2699C212.47 65.3591 210.47 61.788 208.215 59.3977C205.174 56.1742 201.008 54.6367 197.151 54.6367C193.325 54.6367 189.047 56.2092 185.938 59.5679C183.581 62.1133 181.832 65.7123 181.832 70.2699C181.832 73.7193 183.025 76.9849 184.85 79.4275C187.985 83.6237 193.202 85.151 193.202 85.151Z" stroke="#2088FF" stroke-width="2" stroke-linecap="round" stroke-linejoin="round"/>
<path d="M175.021 104H160C158.895 104 158 103.105 158 102V54.9375C158 53.8329 158.895 52.9375 160 52.9375H166.51L175.021 52.9375" stroke="#79B8FF" stroke-width="2" stroke-linecap="round" stroke-linejoin="round"/>
<path d="M164.832 61.4462H173.343" stroke="#79B8FF" stroke-width="2" stroke-linecap="round"/>
<path d="M164.832 69.956H173.343" stroke="#79B8FF" stroke-width="2" stroke-linecap="round"/>
<path d="M213.466 85.271C213.466 84.7187 213.018 84.271 212.466 84.271C211.914 84.271 211.466 84.7187 211.466 85.271H213.466ZM212.466 103.996V104.996C213.018 104.996 213.466 104.548 213.466 103.996H212.466ZM202.253 103.996H201.253C201.253 104.548 201.701 104.996 202.253 104.996V103.996ZM202.253 98.6575H203.253C203.253 98.1052 202.806 97.6575 202.253 97.6575V98.6575ZM192.041 98.6575V97.6575C191.488 97.6575 191.041 98.1052 191.041 98.6575H192.041ZM192.041 103.996V104.996C192.593 104.996 193.041 104.548 193.041 103.996H192.041ZM181.828 103.996H180.828C180.828 104.548 181.276 104.996 181.828 104.996V103.996ZM182.828 85.3142C182.828 84.7619 182.38 84.3142 181.828 84.3142C181.276 84.3142 180.828 84.7619 180.828 85.3142H182.828ZM180.828 54.6586C180.828 55.2109 181.276 55.6586 181.828 55.6586C182.38 55.6586 182.828 55.2109 182.828 54.6586H180.828ZM186.934 38.0036L187.361 38.9083C187.379 38.8995 187.397 38.8903 187.415 38.8804L186.934 38.0036ZM212.466 24H213.466C213.466 23.6466 213.279 23.3195 212.975 23.1395C212.671 22.9595 212.295 22.9533 211.985 23.1232L212.466 24ZM211.466 54.675C211.466 55.2273 211.914 55.675 212.466 55.675C213.018 55.675 213.466 55.2273 213.466 54.675H211.466ZM211.466 85.271V103.996H213.466V85.271H211.466ZM212.466 102.996H202.253V104.996H212.466V102.996ZM203.253 103.996V98.6575H201.253V103.996H203.253ZM202.253 97.6575H192.041V99.6575H202.253V97.6575ZM191.041 98.6575V103.996H193.041V98.6575H191.041ZM192.041 102.996H181.828V104.996H192.041V102.996ZM182.828 103.996V85.3142H180.828V103.996H182.828ZM182.828 54.6586V46.901H180.828V54.6586H182.828ZM182.828 46.901C182.828 43.2684 184.998 40.0212 187.361 38.9083L186.508 37.099C183.367 38.5788 180.828 42.5842 180.828 46.901H182.828ZM187.415 38.8804L212.947 24.8768L211.985 23.1232L186.454 37.1269L187.415 38.8804ZM211.466 24V54.675H213.466V24H211.466Z" fill="#2088FF"/>
<path d="M217.574 58.0438L219.378 56.691L224.383 52.9375L236.297 63.1501V102C236.297 103.105 235.402 104 234.297 104H219.276" stroke="#79B8FF" stroke-width="2" stroke-linecap="round" stroke-linejoin="round"/>
<path d="M220.996 73.372H229.507" stroke="#79B8FF" stroke-width="2" stroke-linecap="round"/>
<path d="M221.008 81.8876H229.518" stroke="#79B8FF" stroke-width="2" stroke-linecap="round"/>
<path d="M165.988 129.051V130H160.996V121.545H165.988V122.494H162.033V125.236H165.771V126.145H162.033V129.051H165.988ZM168.174 130V123.643H169.129V124.762H169.211C169.551 123.971 170.277 123.525 171.244 123.525C172.627 123.525 173.377 124.352 173.377 125.875V130H172.381V126.127C172.381 124.979 171.912 124.439 170.922 124.439C169.873 124.439 169.17 125.172 169.17 126.256V130H168.174ZM177.109 121.938H178.094V123.66H180.672V124.51H178.105V128.096C178.105 128.787 178.592 129.162 179.488 129.162C179.846 129.162 180.484 129.145 180.654 129.127V129.971C180.496 130 179.723 130.029 179.418 130.029C177.842 130.029 177.109 129.432 177.109 128.107V124.51H175.416V123.66H177.109V121.938ZM187.328 128.359H188.295C188.102 129.408 187.094 130.117 185.758 130.117C184.012 130.117 182.998 129.068 182.998 127.258V126.303C182.998 124.627 184.07 123.525 185.688 123.525C187.34 123.525 188.312 124.621 188.312 126.461V127.082H183.982V127.34C183.982 128.506 184.674 129.256 185.758 129.256C186.561 129.256 187.152 128.916 187.328 128.359ZM185.682 124.381C184.621 124.381 183.982 125.107 183.982 126.326H187.328C187.328 125.113 186.707 124.381 185.682 124.381ZM192.777 127.152V129.203H194.746V130H190.521V129.203H191.805V124.439H190.393V123.643H192.766V125.266H192.895C193.129 124.088 193.92 123.479 195.145 123.479C195.508 123.479 195.854 123.531 196.064 123.619V124.738C195.771 124.633 195.361 124.562 195.016 124.562C193.609 124.562 192.777 125.535 192.777 127.152ZM200.846 123.537C202.316 123.537 203.277 124.598 203.277 126.232V127.416C203.277 129.045 202.316 130.105 200.846 130.105C199.926 130.105 199.252 129.713 198.977 129.016H198.865V132.145H197.852V123.643H198.836V124.615H198.941C199.275 123.912 199.938 123.537 200.846 123.537ZM200.559 124.451C199.51 124.451 198.842 125.201 198.842 126.373V127.287C198.842 128.465 199.51 129.215 200.559 129.215C201.607 129.215 202.275 128.459 202.275 127.287V126.373C202.275 125.201 201.607 124.451 200.559 124.451ZM207.613 127.152V129.203H209.582V130H205.357V129.203H206.641V124.439H205.229V123.643H207.602V125.266H207.73C207.965 124.088 208.756 123.479 209.98 123.479C210.344 123.479 210.689 123.531 210.9 123.619V124.738C210.607 124.633 210.197 124.562 209.852 124.562C208.445 124.562 207.613 125.535 207.613 127.152ZM215.395 122.084C214.926 122.084 214.568 121.732 214.568 121.264C214.568 120.801 214.926 120.449 215.395 120.449C215.863 120.449 216.221 120.801 216.221 121.264C216.221 121.732 215.863 122.084 215.395 122.084ZM218.061 130H212.793V129.174H214.973V124.469H212.811V123.643H215.957V129.174H218.061V130ZM220.387 125.359C220.387 124.258 221.324 123.52 222.725 123.52C224.049 123.52 224.945 124.182 225.062 125.242H224.102C223.984 124.686 223.451 124.346 222.707 124.346C221.898 124.346 221.377 124.721 221.377 125.301C221.377 125.787 221.705 126.062 222.502 126.238L223.398 126.443C224.635 126.725 225.197 127.264 225.197 128.184C225.197 129.355 224.219 130.117 222.713 130.117C221.271 130.117 220.316 129.443 220.205 128.354H221.219C221.365 128.939 221.928 129.279 222.748 129.279C223.615 129.279 224.166 128.887 224.166 128.277C224.166 127.773 223.855 127.504 223.047 127.322L222.104 127.105C220.955 126.842 220.387 126.262 220.387 125.359ZM231.836 128.359H232.803C232.609 129.408 231.602 130.117 230.266 130.117C228.52 130.117 227.506 129.068 227.506 127.258V126.303C227.506 124.627 228.578 123.525 230.195 123.525C231.848 123.525 232.82 124.621 232.82 126.461V127.082H228.49V127.34C228.49 128.506 229.182 129.256 230.266 129.256C231.068 129.256 231.66 128.916 231.836 128.359ZM230.189 124.381C229.129 124.381 228.49 125.107 228.49 126.326H231.836C231.836 125.113 231.215 124.381 230.189 124.381Z" fill="#637381"/>
<path d="M269.982 67.0693V71.042H268.611V67.0693H264.612V65.6807H268.611V61.6992H269.982V65.6807H273.981V67.0693H269.982Z" fill="#637381"/>
<path d="M317.949 43.1309H302.297" stroke="#79B8FF" stroke-width="2" stroke-linecap="round"/>
<path d="M371.864 93.5653H363.168" stroke="#2088FF" stroke-width="2" stroke-linecap="round"/>
<path d="M321.434 34.4364H312.738" stroke="#79B8FF" stroke-width="2" stroke-linecap="round"/>
<path d="M382.324 84.906L366.672 84.8837" stroke="#2088FF" stroke-width="2" stroke-linecap="round"/>
<path fill-rule="evenodd" clip-rule="evenodd" d="M324.509 67.0978C328.584 63.0221 335.192 63.0221 339.267 67.0978C343.342 71.1734 343.342 77.7784 339.267 81.8541C335.192 85.9297 328.584 85.9297 324.509 81.8541C320.434 77.7784 320.434 71.1734 324.509 67.0978Z" stroke="#2088FF" stroke-width="2" stroke-linecap="round" stroke-linejoin="round"/>
<path fill-rule="evenodd" clip-rule="evenodd" d="M350.993 63.9998L352.732 69.2172L361.428 70.9564V77.913L352.732 81.3913L350.993 84.8695L354.471 93.5653L350.993 97.0436L342.297 93.5653L338.819 95.3044L335.341 104H328.384L324.906 95.3044L321.428 93.5653L312.732 97.0436L309.253 93.5653L312.732 84.8695L310.993 81.3913L302.297 77.913V70.9564L310.993 67.4781L312.732 63.9998L309.253 55.304L312.732 51.8257L321.428 55.304L324.906 53.5649L328.384 44.8691H335.341L338.819 53.5649L342.297 55.304L350.993 51.8257L354.471 55.304L350.993 63.9998Z" stroke="#2088FF" stroke-width="2" stroke-linecap="round" stroke-linejoin="round"/>
<path d="M351.449 43.8371C354.475 40.6618 359.55 40.6329 362.667 43.7342C365.783 46.8356 365.611 51.8401 362.552 54.8867" stroke="#79B8FF" stroke-width="2" stroke-linecap="round" stroke-linejoin="round"/>
<path d="M344.037 37.9132L340.559 32.6957L344.037 29.2174L350.993 32.6957L354.472 30.9566L356.211 24H361.428L363.168 30.9566L366.646 32.6957L373.602 29.2174L377.081 32.6957L373.602 39.6523L375.342 43.1306L382.298 44.8698V50.0872L375.342 51.8264L373.602 55.3047L377.081 62.2613L373.602 65.7396L366.646 62.2613" stroke="#79B8FF" stroke-width="2" stroke-linecap="round" stroke-linejoin="round"/>
<path d="M336.707 130L335.975 127.574H333.033L332.295 130H331.246L333.971 121.545H335.072L337.797 130H336.707ZM334.492 122.787L333.303 126.689H335.705L334.521 122.787H334.492ZM339.391 121.545H342.203C343.844 121.545 344.916 122.617 344.916 124.258C344.916 125.893 343.832 126.965 342.18 126.965H340.428V130H339.391V121.545ZM340.428 122.465V126.045H341.945C343.176 126.045 343.867 125.406 343.867 124.258C343.867 123.104 343.176 122.465 341.945 122.465H340.428ZM351.584 130H347.131V129.08H348.842V122.465H347.131V121.545H351.584V122.465H349.873V129.08H351.584V130Z" fill="#637381"/>
<path d="M416.01 67.0693V71.042H414.639V67.0693H410.64V65.6807H414.639V61.6992H416.01V65.6807H420.009V67.0693H416.01Z" fill="#637381"/>
<path fill-rule="evenodd" clip-rule="evenodd" d="M470.197 28.4226C475.701 25.5952 481.942 24 488.552 24C494.163 24 499.507 25.1491 504.361 27.2256C504.869 27.4428 505.105 28.0306 504.887 28.5383C504.67 29.0461 504.082 29.2816 503.575 29.0644C498.965 27.0923 493.887 26 488.552 26C482.267 26 476.339 27.5161 471.111 30.2016C470.62 30.4539 470.017 30.2602 469.765 29.769C469.512 29.2777 469.706 28.6749 470.197 28.4226ZM455.037 43.8074C455.516 44.0831 455.68 44.6946 455.404 45.1731C452.173 50.7817 450.324 57.2874 450.324 64.228C450.324 70.0451 451.623 75.5561 453.945 80.4894C454.18 80.9891 453.966 81.5848 453.466 81.82C452.967 82.0553 452.371 81.8409 452.136 81.3412C449.691 76.1471 448.324 70.3457 448.324 64.228C448.324 56.9277 450.27 50.0788 453.671 44.1747C453.947 43.6962 454.558 43.5317 455.037 43.8074ZM458.03 88.8912C458.45 88.533 459.081 88.5834 459.439 89.0038C464.692 95.1683 471.866 99.6422 480.032 101.5C480.57 101.623 480.907 102.159 480.785 102.697C480.662 103.236 480.126 103.573 479.588 103.45C470.99 101.494 463.441 96.7846 457.917 90.3009C457.559 89.8805 457.609 89.2494 458.03 88.8912ZM519.937 87.7768C520.37 88.1198 520.443 88.7487 520.1 89.1816C515.334 95.1986 508.883 99.8212 501.456 102.335C500.933 102.513 500.366 102.232 500.189 101.709C500.012 101.186 500.292 100.618 500.815 100.441C507.869 98.0529 514.001 93.6603 518.532 87.9398C518.875 87.5069 519.504 87.4339 519.937 87.7768ZM526.54 54.3622C527.078 54.2375 527.615 54.5726 527.74 55.1107C528.419 58.0404 528.777 61.0918 528.777 64.2257C528.777 69.9739 527.571 75.443 525.397 80.3916C525.175 80.8972 524.585 81.127 524.079 80.9049C523.573 80.6827 523.344 80.0927 523.566 79.5871C525.631 74.8873 526.777 69.6917 526.777 64.2257C526.777 61.2448 526.436 58.3448 525.792 55.5621C525.667 55.024 526.002 54.4868 526.54 54.3622ZM512.026 32.779C512.367 32.3452 512.996 32.2706 513.43 32.6124C513.709 32.8323 513.985 33.0559 514.258 33.283C514.878 33.7981 515.481 34.3314 516.068 34.8822C516.471 35.2601 516.491 35.8929 516.114 36.2957C515.736 36.6985 515.103 36.7187 514.7 36.3409C514.142 35.8173 513.568 35.3103 512.979 34.8207C512.72 34.6049 512.457 34.3924 512.192 34.1833C511.758 33.8415 511.684 33.2128 512.026 32.779Z" fill="#79B8FF"/>
<path d="M456.816 80.3386L459.454 67.3516" stroke="#79B8FF" stroke-width="2"/>
<path fill-rule="evenodd" clip-rule="evenodd" d="M460.493 67.4962C463.201 67.4962 465.397 65.3009 465.397 62.5928C465.397 59.8848 463.201 57.6895 460.493 57.6895C457.785 57.6895 455.59 59.8848 455.59 62.5928C455.59 65.3009 457.785 67.4962 460.493 67.4962Z" stroke="#79B8FF" stroke-width="2"/>
<path d="M477.84 90.1387L485.604 95.4909" stroke="#2088FF" stroke-width="2"/>
<path d="M461.824 49.4395L461.115 56.8376" stroke="#79B8FF" stroke-width="2" stroke-linecap="round"/>
<path fill-rule="evenodd" clip-rule="evenodd" d="M473.841 92.0118C476.549 92.0118 478.744 89.8165 478.744 87.1084C478.744 84.4004 476.549 82.2051 473.841 82.2051C471.133 82.2051 468.938 84.4004 468.938 87.1084C468.938 89.8165 471.133 92.0118 473.841 92.0118Z" stroke="#2088FF" stroke-width="2"/>
<path d="M485.634 40.5547L486.378 47.6525" stroke="#2088FF" stroke-width="2"/>
<path d="M505.344 36.3652L500.723 44.9457" stroke="#79B8FF" stroke-width="2" stroke-linecap="round"/>
<path d="M468.727 36.8268L479.227 35.6247" stroke="#2088FF" stroke-width="2" stroke-linecap="square"/>
<path d="M496.414 33.8978L502.491 32.8024" stroke="#79B8FF" stroke-width="2" stroke-linecap="round"/>
<path d="M518.611 60.9673L519.356 51.5469" stroke="#2088FF" stroke-width="2"/>
<path d="M505.461 64.9235L512.61 65.6546" stroke="#2088FF" stroke-width="2"/>
<path d="M482.016 70.7647C482.451 67.9415 485.241 65.8613 488.553 65.8613C491.953 65.8613 494.743 68.0151 495.091 70.7647" stroke="#2088FF" stroke-width="2" stroke-linecap="round" stroke-linejoin="round"/>
<path fill-rule="evenodd" clip-rule="evenodd" d="M488.552 56.0527C491.26 56.0527 493.455 58.2474 493.455 60.9561C493.455 63.6638 491.26 65.8595 488.552 65.8595C485.844 65.8595 483.648 63.6638 483.648 60.9561C483.648 58.2474 485.844 56.0527 488.552 56.0527Z" stroke="#2088FF" stroke-width="2" stroke-linecap="round" stroke-linejoin="round"/>
<path fill-rule="evenodd" clip-rule="evenodd" d="M488.552 47.8828C497.579 47.8828 504.896 55.2003 504.896 64.2284C504.896 73.2544 497.579 80.5719 488.552 80.5719C479.525 80.5719 472.207 73.2544 472.207 64.2284C472.207 55.2003 479.525 47.8828 488.552 47.8828Z" stroke="#2088FF" stroke-width="2" stroke-linecap="round" stroke-linejoin="round"/>
<path fill-rule="evenodd" clip-rule="evenodd" d="M507.892 36.4395C510.6 36.4395 512.795 34.2442 512.795 31.5362C512.795 28.8281 510.6 26.6328 507.892 26.6328C505.184 26.6328 502.988 28.8281 502.988 31.5362C502.988 34.2442 505.184 36.4395 507.892 36.4395Z" stroke="#79B8FF" stroke-width="2"/>
<path fill-rule="evenodd" clip-rule="evenodd" d="M521.239 88.7442C523.947 88.7442 526.143 86.5489 526.143 83.8409C526.143 81.1328 523.947 78.9375 521.239 78.9375C518.531 78.9375 516.336 81.1328 516.336 83.8409C516.336 86.5489 518.531 88.7442 521.239 88.7442Z" stroke="#79B8FF" stroke-width="2"/>
<path fill-rule="evenodd" clip-rule="evenodd" d="M506.255 90.379C508.963 90.379 511.158 88.1837 511.158 85.4756C511.158 82.7676 508.963 80.5723 506.255 80.5723C503.547 80.5723 501.352 82.7676 501.352 85.4756C501.352 88.1837 503.547 90.379 506.255 90.379Z" stroke="#79B8FF" stroke-width="2"/>
<path fill-rule="evenodd" clip-rule="evenodd" d="M484.716 40.4259C487.424 40.4259 489.619 38.2305 489.619 35.5225C489.619 32.8144 487.424 30.6191 484.716 30.6191C482.008 30.6191 479.812 32.8144 479.812 35.5225C479.812 38.2305 482.008 40.4259 484.716 40.4259Z" stroke="#2088FF" stroke-width="2"/>
<path fill-rule="evenodd" clip-rule="evenodd" d="M490.317 103.619C493.025 103.619 495.221 101.424 495.221 98.7159C495.221 96.0078 493.025 93.8125 490.317 93.8125C487.609 93.8125 485.414 96.0078 485.414 98.7159C485.414 101.424 487.609 103.619 490.317 103.619Z" stroke="#2088FF" stroke-width="2"/>
<path fill-rule="evenodd" clip-rule="evenodd" d="M463.759 33.1719C466.467 33.1719 468.662 35.3673 468.662 38.0752C468.662 40.7832 466.467 42.9786 463.759 42.9786C461.051 42.9786 458.855 40.7832 458.855 38.0752C458.855 35.3673 461.051 33.1719 463.759 33.1719Z" stroke="#2088FF" stroke-width="2" stroke-linecap="round"/>
<path fill-rule="evenodd" clip-rule="evenodd" d="M455.864 90.379C458.572 90.379 460.768 88.1837 460.768 85.4756C460.768 82.7676 458.572 80.5723 455.864 80.5723C453.156 80.5723 450.961 82.7676 450.961 85.4756C450.961 88.1837 453.156 90.379 455.864 90.379Z" stroke="#79B8FF" stroke-width="2"/>
<path fill-rule="evenodd" clip-rule="evenodd" d="M519.329 41.3457C522.037 41.3457 524.232 43.5411 524.232 46.2491C524.232 48.957 522.037 51.1524 519.329 51.1524C516.621 51.1524 514.426 48.957 514.426 46.2491C514.426 43.5411 516.621 41.3457 519.329 41.3457Z" stroke="#2088FF" stroke-width="2" stroke-linecap="round"/>
<path d="M502.137 88.502L499.219 91.2162" stroke="#79B8FF" stroke-width="2" stroke-linecap="round"/>
<path fill-rule="evenodd" clip-rule="evenodd" d="M517.97 70.7637C520.678 70.7637 522.873 68.5684 522.873 65.8604C522.873 63.1523 520.678 60.957 517.97 60.957C515.262 60.957 513.066 63.1523 513.066 65.8604C513.066 68.5684 515.262 70.7637 517.97 70.7637Z" stroke="#2088FF" stroke-width="2"/>
<path d="M479.116 77.9375L476.562 82.2848" stroke="#2088FF" stroke-width="2" stroke-linecap="square"/>
<path d="M511.16 85.0477L515.985 84.8649" stroke="#79B8FF" stroke-width="2"/>
<path d="M461.391 128.67V129.619H456.398V121.164H461.391V122.113H457.436V124.855H461.174V125.764H457.436V128.67H461.391ZM468.826 125.242H467.842C467.719 124.498 467.098 124.029 466.277 124.029C465.17 124.029 464.555 124.785 464.555 126.15V126.725C464.555 128.09 465.17 128.84 466.277 128.84C467.098 128.84 467.719 128.377 467.842 127.65H468.826C468.668 128.945 467.701 129.736 466.295 129.736C464.566 129.736 463.559 128.676 463.559 126.854V126.021C463.559 124.199 464.566 123.139 466.295 123.139C467.701 123.139 468.662 123.936 468.826 125.242ZM473.596 129.736C471.914 129.736 470.842 128.641 470.842 126.924V125.963C470.842 124.246 471.914 123.15 473.596 123.15C475.277 123.15 476.35 124.246 476.35 125.963V126.924C476.35 128.641 475.277 129.736 473.596 129.736ZM473.596 124.029C472.506 124.029 471.826 124.803 471.826 126.051V126.83C471.826 128.084 472.506 128.852 473.596 128.852C474.686 128.852 475.365 128.084 475.365 126.83V126.051C475.365 124.803 474.686 124.029 473.596 124.029ZM478.699 124.979C478.699 123.877 479.637 123.139 481.037 123.139C482.361 123.139 483.258 123.801 483.375 124.861H482.414C482.297 124.305 481.764 123.965 481.02 123.965C480.211 123.965 479.689 124.34 479.689 124.92C479.689 125.406 480.018 125.682 480.814 125.857L481.711 126.062C482.947 126.344 483.51 126.883 483.51 127.803C483.51 128.975 482.531 129.736 481.025 129.736C479.584 129.736 478.629 129.062 478.518 127.973H479.531C479.678 128.559 480.24 128.898 481.061 128.898C481.928 128.898 482.479 128.506 482.479 127.896C482.479 127.393 482.168 127.123 481.359 126.941L480.416 126.725C479.268 126.461 478.699 125.881 478.699 124.979ZM486.65 131.881C486.504 131.881 486.311 131.875 486.223 131.863V130.99C486.299 131.008 486.48 131.014 486.574 131.014C487.172 131.014 487.5 130.744 487.764 130.006L487.875 129.66L485.537 123.262H486.621L488.402 128.582H488.479L490.254 123.262H491.314L488.918 129.854C488.361 131.418 487.828 131.881 486.65 131.881ZM493.535 124.979C493.535 123.877 494.473 123.139 495.873 123.139C497.197 123.139 498.094 123.801 498.211 124.861H497.25C497.133 124.305 496.6 123.965 495.855 123.965C495.047 123.965 494.525 124.34 494.525 124.92C494.525 125.406 494.854 125.682 495.65 125.857L496.547 126.062C497.783 126.344 498.346 126.883 498.346 127.803C498.346 128.975 497.367 129.736 495.861 129.736C494.42 129.736 493.465 129.062 493.354 127.973H494.367C494.514 128.559 495.076 128.898 495.896 128.898C496.764 128.898 497.314 128.506 497.314 127.896C497.314 127.393 497.004 127.123 496.195 126.941L495.252 126.725C494.104 126.461 493.535 125.881 493.535 124.979ZM502.184 121.557H503.168V123.279H505.746V124.129H503.18V127.715C503.18 128.406 503.666 128.781 504.562 128.781C504.92 128.781 505.559 128.764 505.729 128.746V129.59C505.57 129.619 504.797 129.648 504.492 129.648C502.916 129.648 502.184 129.051 502.184 127.727V124.129H500.49V123.279H502.184V121.557ZM512.402 127.979H513.369C513.176 129.027 512.168 129.736 510.832 129.736C509.086 129.736 508.072 128.688 508.072 126.877V125.922C508.072 124.246 509.145 123.145 510.762 123.145C512.414 123.145 513.387 124.24 513.387 126.08V126.701H509.057V126.959C509.057 128.125 509.748 128.875 510.832 128.875C511.635 128.875 512.227 128.535 512.402 127.979ZM510.756 124C509.695 124 509.057 124.727 509.057 125.945H512.402C512.402 124.732 511.781 124 510.756 124ZM521.168 124.938V129.619H520.271V125.23C520.271 124.457 519.99 124.053 519.457 124.053C518.9 124.053 518.561 124.539 518.561 125.33V129.619H517.67V125.225C517.67 124.457 517.389 124.053 516.85 124.053C516.287 124.053 515.936 124.539 515.936 125.33V129.619H515.039V123.262H515.93V124.158H516.035C516.193 123.52 516.65 123.145 517.248 123.145C517.846 123.145 518.268 123.514 518.402 124.141H518.508C518.672 123.531 519.182 123.145 519.82 123.145C520.705 123.145 521.168 123.76 521.168 124.938Z" fill="#637381"/>
<defs>
<clipPath id="clip0_3269_18698">
<rect width="80" height="80" fill="white" transform="translate(12 24)"/>
</clipPath>
</defs>
</svg>
