<svg width="537" height="321" viewBox="0 0 537 321" fill="none" xmlns="http://www.w3.org/2000/svg">
<path d="M6.69141 40.3574L5.95898 37.9316H3.01758L2.2793 40.3574H1.23047L3.95508 31.9023H5.05664L7.78125 40.3574H6.69141ZM4.47656 33.1445L3.28711 37.0469H5.68945L4.50586 33.1445H4.47656ZM14.7012 40.3574H9.43359V39.5312H11.6074V32.3301H9.45117V31.5039H12.6035V39.5312H14.7012V40.3574ZM22.1191 40.3574H16.8516V39.5312H19.0254V32.3301H16.8691V31.5039H20.0215V39.5312H22.1191V40.3574ZM34.5762 33.8945C36.0469 33.8945 37.0078 34.9551 37.0078 36.5898V37.7734C37.0078 39.4023 36.0469 40.4629 34.5762 40.4629C33.6562 40.4629 32.9824 40.0703 32.707 39.373H32.5957V42.502H31.582V34H32.5664V34.9727H32.6719C33.0059 34.2695 33.668 33.8945 34.5762 33.8945ZM34.2891 34.8086C33.2402 34.8086 32.5723 35.5586 32.5723 36.7305V37.6445C32.5723 38.8223 33.2402 39.5723 34.2891 39.5723C35.3379 39.5723 36.0059 38.8164 36.0059 37.6445V36.7305C36.0059 35.5586 35.3379 34.8086 34.2891 34.8086ZM43.3125 38.7168H44.2793C44.0859 39.7656 43.0781 40.4746 41.7422 40.4746C39.9961 40.4746 38.9824 39.4258 38.9824 37.6152V36.6602C38.9824 34.9844 40.0547 33.8828 41.6719 33.8828C43.3242 33.8828 44.2969 34.9785 44.2969 36.8184V37.4395H39.9668V37.6973C39.9668 38.8633 40.6582 39.6133 41.7422 39.6133C42.5449 39.6133 43.1367 39.2734 43.3125 38.7168ZM41.666 34.7383C40.6055 34.7383 39.9668 35.4648 39.9668 36.6836H43.3125C43.3125 35.4707 42.6914 34.7383 41.666 34.7383ZM48.7617 37.5098V39.5605H50.7305V40.3574H46.5059V39.5605H47.7891V34.7969H46.377V34H48.75V35.623H48.8789C49.1133 34.4453 49.9043 33.8359 51.1289 33.8359C51.4922 33.8359 51.8379 33.8887 52.0488 33.9766V35.0957C51.7559 34.9902 51.3457 34.9199 51 34.9199C49.5938 34.9199 48.7617 35.8926 48.7617 37.5098ZM59.4961 35.6758V40.3574H58.5996V35.9688C58.5996 35.1953 58.3184 34.791 57.7852 34.791C57.2285 34.791 56.8887 35.2773 56.8887 36.0684V40.3574H55.998V35.9629C55.998 35.1953 55.7168 34.791 55.1777 34.791C54.6152 34.791 54.2637 35.2773 54.2637 36.0684V40.3574H53.3672V34H54.2578V34.8965H54.3633C54.5215 34.2578 54.9785 33.8828 55.5762 33.8828C56.1738 33.8828 56.5957 34.252 56.7305 34.8789H56.8359C57 34.2695 57.5098 33.8828 58.1484 33.8828C59.0332 33.8828 59.4961 34.498 59.4961 35.6758ZM63.9609 32.4414C63.4922 32.4414 63.1348 32.0898 63.1348 31.6211C63.1348 31.1582 63.4922 30.8066 63.9609 30.8066C64.4297 30.8066 64.7871 31.1582 64.7871 31.6211C64.7871 32.0898 64.4297 32.4414 63.9609 32.4414ZM66.627 40.3574H61.3594V39.5312H63.5391V34.8262H61.377V34H64.5234V39.5312H66.627V40.3574ZM68.9531 35.7168C68.9531 34.6152 69.8906 33.877 71.291 33.877C72.6152 33.877 73.5117 34.5391 73.6289 35.5996H72.668C72.5508 35.043 72.0176 34.7031 71.2734 34.7031C70.4648 34.7031 69.9434 35.0781 69.9434 35.6582C69.9434 36.1445 70.2715 36.4199 71.0684 36.5957L71.9648 36.8008C73.2012 37.082 73.7637 37.6211 73.7637 38.541C73.7637 39.7129 72.7852 40.4746 71.2793 40.4746C69.8379 40.4746 68.8828 39.8008 68.7715 38.7109H69.7852C69.9316 39.2969 70.4941 39.6367 71.3145 39.6367C72.1816 39.6367 72.7324 39.2441 72.7324 38.6348C72.7324 38.1309 72.4219 37.8613 71.6133 37.6797L70.6699 37.4629C69.5215 37.1992 68.9531 36.6191 68.9531 35.7168ZM76.3711 35.7168C76.3711 34.6152 77.3086 33.877 78.709 33.877C80.0332 33.877 80.9297 34.5391 81.0469 35.5996H80.0859C79.9688 35.043 79.4355 34.7031 78.6914 34.7031C77.8828 34.7031 77.3613 35.0781 77.3613 35.6582C77.3613 36.1445 77.6895 36.4199 78.4863 36.5957L79.3828 36.8008C80.6191 37.082 81.1816 37.6211 81.1816 38.541C81.1816 39.7129 80.2031 40.4746 78.6973 40.4746C77.2559 40.4746 76.3008 39.8008 76.1895 38.7109H77.2031C77.3496 39.2969 77.9121 39.6367 78.7324 39.6367C79.5996 39.6367 80.1504 39.2441 80.1504 38.6348C80.1504 38.1309 79.8398 37.8613 79.0312 37.6797L78.0879 37.4629C76.9395 37.1992 76.3711 36.6191 76.3711 35.7168ZM86.2148 32.4414C85.7461 32.4414 85.3887 32.0898 85.3887 31.6211C85.3887 31.1582 85.7461 30.8066 86.2148 30.8066C86.6836 30.8066 87.041 31.1582 87.041 31.6211C87.041 32.0898 86.6836 32.4414 86.2148 32.4414ZM88.8809 40.3574H83.6133V39.5312H85.793V34.8262H83.6309V34H86.7773V39.5312H88.8809V40.3574ZM93.5215 40.4746C91.8398 40.4746 90.7676 39.3789 90.7676 37.6621V36.7012C90.7676 34.9844 91.8398 33.8887 93.5215 33.8887C95.2031 33.8887 96.2754 34.9844 96.2754 36.7012V37.6621C96.2754 39.3789 95.2031 40.4746 93.5215 40.4746ZM93.5215 34.7676C92.4316 34.7676 91.752 35.541 91.752 36.7891V37.5684C91.752 38.8223 92.4316 39.5898 93.5215 39.5898C94.6113 39.5898 95.291 38.8223 95.291 37.5684V36.7891C95.291 35.541 94.6113 34.7676 93.5215 34.7676ZM98.3379 40.3574V34H99.293V35.1191H99.375C99.7148 34.3281 100.441 33.8828 101.408 33.8828C102.791 33.8828 103.541 34.709 103.541 36.2324V40.3574H102.545V36.4844C102.545 35.3359 102.076 34.7969 101.086 34.7969C100.037 34.7969 99.334 35.5293 99.334 36.6133V40.3574H98.3379ZM106.043 35.7168C106.043 34.6152 106.98 33.877 108.381 33.877C109.705 33.877 110.602 34.5391 110.719 35.5996H109.758C109.641 35.043 109.107 34.7031 108.363 34.7031C107.555 34.7031 107.033 35.0781 107.033 35.6582C107.033 36.1445 107.361 36.4199 108.158 36.5957L109.055 36.8008C110.291 37.082 110.854 37.6211 110.854 38.541C110.854 39.7129 109.875 40.4746 108.369 40.4746C106.928 40.4746 105.973 39.8008 105.861 38.7109H106.875C107.021 39.2969 107.584 39.6367 108.404 39.6367C109.271 39.6367 109.822 39.2441 109.822 38.6348C109.822 38.1309 109.512 37.8613 108.703 37.6797L107.76 37.4629C106.611 37.1992 106.043 36.6191 106.043 35.7168Z" fill="#212B36"/>
<path d="M0.796875 56.3574H25.7969" stroke="#F49342" stroke-width="2"/>
<path d="M25.7969 56.3574H50.7969" stroke="#F49342" stroke-width="2"/>
<path d="M50.7969 56.3574H75.7969" stroke="#F49342" stroke-width="2"/>
<path d="M75.7969 56.3574H100.797" stroke="#F49342" stroke-width="2"/>
<path d="M100.797 56.3574H125.797" stroke="#F49342" stroke-width="2"/>
<path d="M125.797 56.3574H150.797" stroke="#F49342" stroke-width="2"/>
<path d="M152.797 56.3574H177.797" stroke="#582EFF" stroke-width="2"/>
<path d="M177.797 56.3574H202.797" stroke="#582EFF" stroke-width="2"/>
<path d="M202.797 56.3574H227.797" stroke="#582EFF" stroke-width="2"/>
<path d="M227.797 56.3574H252.797" stroke="#582EFF" stroke-width="2"/>
<path d="M252.797 56.3574H277.797" stroke="#582EFF" stroke-width="2"/>
<path d="M277.797 56.3574H302.797" stroke="#582EFF" stroke-width="2"/>
<path d="M302.797 56.3574H327.797" stroke="#582EFF" stroke-width="2"/>
<path d="M329.797 56.3574H354.797" stroke="#FF0000" stroke-width="2"/>
<path d="M354.797 56.3574H379.797" stroke="#FF0000" stroke-width="2"/>
<path d="M379.797 56.3574H404.797" stroke="#FF0000" stroke-width="2"/>
<path d="M404.797 56.3574H429.797" stroke="#FF0000" stroke-width="2"/>
<path d="M429.797 56.3574H454.797" stroke="#FF0000" stroke-width="2"/>
<path d="M454.797 56.3574H479.797" stroke="#FF0000" stroke-width="2"/>
<path d="M4.81055 81.5684H2.96484V84.3574H1.99219V77.2734H4.6875C6.28125 77.2734 7.27734 78.0938 7.27734 79.4238C7.27734 80.3438 6.69141 81.1113 5.7832 81.3809L7.41797 84.3574H6.30469L4.81055 81.5684ZM2.96484 78.0938V80.7891H4.55273C5.66602 80.7891 6.28711 80.2969 6.28711 79.4414C6.28711 78.5859 5.67188 78.0938 4.59961 78.0938H2.96484ZM14.4199 83.502V84.3574H9.68555V77.2734H14.4199V78.1289H10.6699V80.3438H14.2148V81.1582H10.6699V83.502H14.4199ZM21.4219 84.3574L20.7305 82.3711H17.918L17.2266 84.3574H16.2305L18.8145 77.2734H19.8691L22.4531 84.3574H21.4219ZM19.3125 78.3633L18.1934 81.5742H20.4551L19.3418 78.3633H19.3125ZM24.123 77.2734H26.3789C28.6523 77.2734 29.8008 78.4629 29.8008 80.7949C29.8008 83.1621 28.6523 84.3574 26.3789 84.3574H24.123V77.2734ZM25.1074 78.1289V83.502H26.2852C27.9902 83.502 28.793 82.6465 28.793 80.8066C28.793 78.9902 27.9844 78.1289 26.2852 78.1289H25.1074Z" fill="#919EAB"/>
<path d="M159.541 77.998H159.471L158.287 82.3574H157.361L155.984 75.2734H156.91L157.396 78.0566L157.877 80.9863H157.941L159.061 76.8906H159.951L161.07 80.9863H161.135L161.615 78.0566L162.102 75.2734H163.027L161.65 82.3574H160.725L159.541 77.998ZM167.229 79.5684H165.383V82.3574H164.41V75.2734H167.105C168.699 75.2734 169.695 76.0938 169.695 77.4238C169.695 78.3438 169.109 79.1113 168.201 79.3809L169.836 82.3574H168.723L167.229 79.5684ZM165.383 76.0938V78.7891H166.971C168.084 78.7891 168.705 78.2969 168.705 77.4414C168.705 76.5859 168.09 76.0938 167.018 76.0938H165.383ZM176.457 82.3574H172.227V81.5254H173.85V76.1113H172.227V75.2734H176.457V76.1113H174.834V81.5254H176.457V82.3574ZM182.252 82.3574H181.268V76.1289H178.848V75.2734H184.672V76.1289H182.252V82.3574ZM191.674 81.502V82.3574H186.939V75.2734H191.674V76.1289H187.924V78.3438H191.469V79.1582H187.924V81.502H191.674Z" fill="#919EAB"/>
<path d="M336.586 82.3574L335.895 80.3711H333.082L332.391 82.3574H331.395L333.979 75.2734H335.033L337.617 82.3574H336.586ZM334.477 76.3633L333.357 79.5742H335.619L334.506 76.3633H334.477ZM339.287 75.2734H341.543C343.816 75.2734 344.965 76.4629 344.965 78.7949C344.965 81.1621 343.816 82.3574 341.543 82.3574H339.287V75.2734ZM340.271 76.1289V81.502H341.449C343.154 81.502 343.957 80.6465 343.957 78.8066C343.957 76.9902 343.148 76.1289 341.449 76.1289H340.271ZM347.32 79.6973V82.3574H346.447V75.2734H347.543L349.307 79.627H349.383L351.135 75.2734H352.236V82.3574H351.363V79.6973L351.416 76.832H351.34L349.729 80.6934H348.955L347.344 76.832H347.268L347.32 79.6973ZM358.875 82.3574H354.645V81.5254H356.268V76.1113H354.645V75.2734H358.875V76.1113H357.252V81.5254H358.875V82.3574ZM362.391 82.3574H361.506V75.2734H362.449L365.883 80.6699H365.965V75.2734H366.85V82.3574H365.918L362.467 76.9434H362.391V82.3574Z" fill="#919EAB"/>
<path d="M4.82812 140.988H2.88281V144.357H1.86328V135.902H4.69922C6.375 135.902 7.42383 136.875 7.42383 138.445C7.42383 139.553 6.80859 140.461 5.84766 140.777L7.57031 144.357H6.4043L4.82812 140.988ZM2.88281 136.822V140.115H4.55859C5.72461 140.115 6.38086 139.523 6.38086 138.469C6.38086 137.42 5.73633 136.822 4.60547 136.822H2.88281ZM13.6406 142.717H14.6074C14.4141 143.766 13.4062 144.475 12.0703 144.475C10.3242 144.475 9.31055 143.426 9.31055 141.615V140.66C9.31055 138.984 10.3828 137.883 12 137.883C13.6523 137.883 14.625 138.979 14.625 140.818V141.439H10.2949V141.697C10.2949 142.863 10.9863 143.613 12.0703 143.613C12.873 143.613 13.4648 143.273 13.6406 142.717ZM11.9941 138.738C10.9336 138.738 10.2949 139.465 10.2949 140.684H13.6406C13.6406 139.471 13.0195 138.738 11.9941 138.738ZM18.6973 144.469C17.4844 144.469 16.6758 143.707 16.6758 142.553C16.6758 141.428 17.4844 140.76 18.9316 140.684L20.6777 140.596V140.021C20.6777 139.225 20.1914 138.785 19.3066 138.785C18.5742 138.785 18.0586 139.096 17.8945 139.641H16.916C17.0332 138.621 18.0176 137.924 19.3184 137.924C20.8125 137.924 21.668 138.686 21.668 140.01V144.363H20.7188V143.408H20.6191C20.3145 144.088 19.623 144.469 18.6973 144.469ZM18.9844 143.596C19.9453 143.596 20.6777 142.957 20.6777 142.107V141.357L19.043 141.434C18.1523 141.475 17.6836 141.855 17.6836 142.518C17.6836 143.186 18.1816 143.596 18.9844 143.596ZM26.3613 144.463C24.8906 144.463 23.9297 143.402 23.9297 141.768V140.584C23.9297 138.955 24.8906 137.895 26.3613 137.895C27.2812 137.895 27.9609 138.287 28.2363 138.984H28.3418V135.504H29.3555V144.357H28.377V143.385H28.2656C27.9375 144.088 27.2695 144.463 26.3613 144.463ZM26.6543 143.555C27.6973 143.555 28.3711 142.805 28.3711 141.627V140.713C28.3711 139.541 27.6973 138.791 26.6543 138.791C25.6055 138.791 24.9316 139.541 24.9316 140.713V141.627C24.9316 142.799 25.6055 143.555 26.6543 143.555ZM42.0527 141.07V143.719H41.1387V141.07H38.4727V140.145H41.1387V137.49H42.0527V140.145H44.7188V141.07H42.0527Z" fill="#212B36"/>
<path d="M0.796875 160.357H25.7969" stroke="#F49342" stroke-width="2"/>
<path d="M25.7969 160.357H50.7969" stroke="#F49342" stroke-width="2"/>
<path d="M50.7969 160.357H75.7969" stroke="#F49342" stroke-width="2"/>
<path d="M75.7969 160.357H100.797" stroke="#F49342" stroke-width="2"/>
<path d="M100.797 160.357H125.797" stroke="#F49342" stroke-width="2"/>
<path d="M125.797 160.357H150.797" stroke="#F49342" stroke-width="2"/>
<path d="M152.797 160.357H164.797" stroke="#582EFF" stroke-width="2"/>
<path d="M4.81055 185.568H2.96484V188.357H1.99219V181.273H4.6875C6.28125 181.273 7.27734 182.094 7.27734 183.424C7.27734 184.344 6.69141 185.111 5.7832 185.381L7.41797 188.357H6.30469L4.81055 185.568ZM2.96484 182.094V184.789H4.55273C5.66602 184.789 6.28711 184.297 6.28711 183.441C6.28711 182.586 5.67188 182.094 4.59961 182.094H2.96484ZM14.4199 187.502V188.357H9.68555V181.273H14.4199V182.129H10.6699V184.344H14.2148V185.158H10.6699V187.502H14.4199ZM21.4219 188.357L20.7305 186.371H17.918L17.2266 188.357H16.2305L18.8145 181.273H19.8691L22.4531 188.357H21.4219ZM19.3125 182.363L18.1934 185.574H20.4551L19.3418 182.363H19.3125ZM24.123 181.273H26.3789C28.6523 181.273 29.8008 182.463 29.8008 184.795C29.8008 187.162 28.6523 188.357 26.3789 188.357H24.123V181.273ZM25.1074 182.129V187.502H26.2852C27.9902 187.502 28.793 186.646 28.793 184.807C28.793 182.99 27.9844 182.129 26.2852 182.129H25.1074Z" fill="#919EAB"/>
<path d="M159.963 183.07V185.719H159.049V183.07H156.383V182.145H159.049V179.49H159.963V182.145H162.629V183.07H159.963Z" fill="#919EAB"/>
<path d="M4.54102 243.113H4.4707L3.22266 248.357H2.25L0.796875 239.902H1.77539L2.28516 243.289L2.79492 246.811H2.85938L4.04297 241.836H4.96875L6.15234 246.811H6.2168L6.72656 243.289L7.23633 239.902H8.21484L6.76172 248.357H5.78906L4.54102 243.113ZM11.6719 245.51V247.561H13.6406V248.357H9.41602V247.561H10.6992V242.797H9.28711V242H11.6602V243.623H11.7891C12.0234 242.445 12.8145 241.836 14.0391 241.836C14.4023 241.836 14.748 241.889 14.959 241.977V243.096C14.666 242.99 14.2559 242.92 13.9102 242.92C12.5039 242.92 11.6719 243.893 11.6719 245.51ZM19.4531 240.441C18.9844 240.441 18.627 240.09 18.627 239.621C18.627 239.158 18.9844 238.807 19.4531 238.807C19.9219 238.807 20.2793 239.158 20.2793 239.621C20.2793 240.09 19.9219 240.441 19.4531 240.441ZM22.1191 248.357H16.8516V247.531H19.0312V242.826H16.8691V242H20.0156V247.531H22.1191V248.357ZM25.6758 240.295H26.6602V242.018H29.2383V242.867H26.6719V246.453C26.6719 247.145 27.1582 247.52 28.0547 247.52C28.4121 247.52 29.0508 247.502 29.2207 247.484V248.328C29.0625 248.357 28.2891 248.387 27.9844 248.387C26.4082 248.387 25.6758 247.789 25.6758 246.465V242.867H23.9824V242.018H25.6758V240.295ZM35.8945 246.717H36.8613C36.668 247.766 35.6602 248.475 34.3242 248.475C32.5781 248.475 31.5645 247.426 31.5645 245.615V244.66C31.5645 242.984 32.6367 241.883 34.2539 241.883C35.9062 241.883 36.8789 242.979 36.8789 244.818V245.439H32.5488V245.697C32.5488 246.863 33.2402 247.613 34.3242 247.613C35.127 247.613 35.7188 247.273 35.8945 246.717ZM34.248 242.738C33.1875 242.738 32.5488 243.465 32.5488 244.684H35.8945C35.8945 243.471 35.2734 242.738 34.248 242.738ZM49.4707 245.07V247.719H48.5566V245.07H45.8906V244.145H48.5566V241.49H49.4707V244.145H52.1367V245.07H49.4707Z" fill="#212B36"/>
<path d="M0.796875 264.357H25.7969" stroke="#F49342" stroke-width="2"/>
<path d="M25.7969 264.357H50.7969" stroke="#F49342" stroke-width="2"/>
<path d="M50.7969 264.357H75.7969" stroke="#F49342" stroke-width="2"/>
<path d="M75.7969 264.357H100.797" stroke="#F49342" stroke-width="2"/>
<path d="M100.797 264.357H125.797" stroke="#F49342" stroke-width="2"/>
<path d="M125.797 264.357H150.797" stroke="#F49342" stroke-width="2"/>
<path d="M152.797 264.357H177.797" stroke="#582EFF" stroke-width="2"/>
<path d="M177.797 264.357H202.797" stroke="#582EFF" stroke-width="2"/>
<path d="M202.797 264.357H227.797" stroke="#582EFF" stroke-width="2"/>
<path d="M227.797 264.357H252.797" stroke="#582EFF" stroke-width="2"/>
<path d="M252.797 264.357H277.797" stroke="#582EFF" stroke-width="2"/>
<path d="M277.797 264.357H302.797" stroke="#582EFF" stroke-width="2"/>
<path d="M302.797 264.357H327.797" stroke="#582EFF" stroke-width="2"/>
<path d="M329.797 264.357H341.797" stroke="#FF0000" stroke-width="2"/>
<path d="M4.81055 289.568H2.96484V292.357H1.99219V285.273H4.6875C6.28125 285.273 7.27734 286.094 7.27734 287.424C7.27734 288.344 6.69141 289.111 5.7832 289.381L7.41797 292.357H6.30469L4.81055 289.568ZM2.96484 286.094V288.789H4.55273C5.66602 288.789 6.28711 288.297 6.28711 287.441C6.28711 286.586 5.67188 286.094 4.59961 286.094H2.96484ZM14.4199 291.502V292.357H9.68555V285.273H14.4199V286.129H10.6699V288.344H14.2148V289.158H10.6699V291.502H14.4199ZM21.4219 292.357L20.7305 290.371H17.918L17.2266 292.357H16.2305L18.8145 285.273H19.8691L22.4531 292.357H21.4219ZM19.3125 286.363L18.1934 289.574H20.4551L19.3418 286.363H19.3125ZM24.123 285.273H26.3789C28.6523 285.273 29.8008 286.463 29.8008 288.795C29.8008 291.162 28.6523 292.357 26.3789 292.357H24.123V285.273ZM25.1074 286.129V291.502H26.2852C27.9902 291.502 28.793 290.646 28.793 288.807C28.793 286.99 27.9844 286.129 26.2852 286.129H25.1074Z" fill="#919EAB"/>
<path d="M159.541 285.998H159.471L158.287 290.357H157.361L155.984 283.273H156.91L157.396 286.057L157.877 288.986H157.941L159.061 284.891H159.951L161.07 288.986H161.135L161.615 286.057L162.102 283.273H163.027L161.65 290.357H160.725L159.541 285.998ZM167.229 287.568H165.383V290.357H164.41V283.273H167.105C168.699 283.273 169.695 284.094 169.695 285.424C169.695 286.344 169.109 287.111 168.201 287.381L169.836 290.357H168.723L167.229 287.568ZM165.383 284.094V286.789H166.971C168.084 286.789 168.705 286.297 168.705 285.441C168.705 284.586 168.09 284.094 167.018 284.094H165.383ZM176.457 290.357H172.227V289.525H173.85V284.111H172.227V283.273H176.457V284.111H174.834V289.525H176.457V290.357ZM182.252 290.357H181.268V284.129H178.848V283.273H184.672V284.129H182.252V290.357ZM191.674 289.502V290.357H186.939V283.273H191.674V284.129H187.924V286.344H191.469V287.158H187.924V289.502H191.674Z" fill="#919EAB"/>
<path d="M334.963 287.07V289.719H334.049V287.07H331.383V286.145H334.049V283.49H334.963V286.145H337.629V287.07H334.963Z" fill="#919EAB"/>
</svg>
