<?xml version="1.0" encoding="utf-8"?>
<!-- Generator: Adobe Illustrator 15.1.0, SVG Export Plug-In . SVG Version: 6.00 Build 0)  -->
<!DOCTYPE svg PUBLIC "-//W3C//DTD SVG 1.1//EN" "http://www.w3.org/Graphics/SVG/1.1/DTD/svg11.dtd">
<svg version="1.1" id="Layer_1" xmlns="http://www.w3.org/2000/svg" xmlns:xlink="http://www.w3.org/1999/xlink" x="0px" y="0px"
	 width="553.572px" height="407.143px" viewBox="0 0 553.572 407.143" enable-background="new 0 0 553.572 407.143"
	 xml:space="preserve">
<path fill="#999999" d="M326.762,223.571v102.777c0,27-21.89,48.89-48.89,48.89H82.317c-27.001,0-48.889-21.89-48.889-48.89V130.793
	c0-27,21.888-48.889,48.889-48.889h102.778V52.571H62.762c-32.401,0-58.667,26.267-58.667,58.667v234.667
	c0,32.4,26.266,58.667,58.667,58.667h234.667c32.4,0,58.667-26.267,58.667-58.667V223.571H326.762z"/>
<g>
	<path fill="#999999" d="M401.903,181.289l-47.1,4.525l2.363-107.251l-7.65,10.736L199.238,239.577l-30.851-30.85L318.666,58.449
		l10.429-7.959l-107.253,2.363l4.527-47.099l178.795-2.953L401.903,181.289z"/>
</g>
</svg>
